<svg width="200" height="40" viewBox="0 0 200 40" fill="none" xmlns="http://www.w3.org/2000/svg">
<g clip-path="url(#clip0_1201_7932)">
<path d="M159.324 12.9824C163.93 12.9824 166.235 16.1344 166.235 19.2818C166.242 22.4338 163.944 25.5857 159.324 25.5857C154.621 25.5857 152.275 22.3931 152.311 19.2142C152.343 16.0884 154.684 12.9839 159.324 12.9839V12.9824ZM156.499 19.2275C156.488 19.5981 156.551 19.9672 156.687 20.313C156.822 20.6589 157.026 20.9746 157.287 21.2414C157.549 21.5082 157.861 21.7208 158.207 21.8666C158.553 22.0124 158.925 22.0885 159.301 22.0904C159.677 22.0923 160.049 22.02 160.396 21.8777C160.744 21.7354 161.059 21.526 161.322 21.2618C161.586 20.9976 161.794 20.6841 161.933 20.3396C162.072 19.9951 162.139 19.6266 162.132 19.256C162.139 18.8866 162.072 18.5195 161.934 18.1761C161.796 17.8326 161.59 17.5198 161.327 17.256C161.065 16.9921 160.752 16.7825 160.407 16.6394C160.061 16.4963 159.69 16.4226 159.315 16.4226C158.941 16.4226 158.57 16.4963 158.224 16.6394C157.879 16.7825 157.566 16.9921 157.303 17.256C157.041 17.5198 156.835 17.8326 156.697 18.1761C156.559 18.5195 156.492 18.8866 156.499 19.256V19.2275Z" fill="white"/>
<path d="M138.227 13.2204H141.564L142.306 14.7014L142.378 14.6954C142.825 14.1263 143.406 13.6734 144.07 13.3759C144.735 13.0784 145.463 12.9454 146.191 12.9884C149 12.9884 150.621 14.7474 150.621 17.5264V25.281H146.474V19.023C146.474 17.6141 146.245 16.2782 144.551 16.2782C143.11 16.2782 142.37 17.3183 142.37 18.69V25.2806H138.227V13.2204Z" fill="white"/>
<path d="M100.816 25.2805L103.735 9.04102H108.427L111.465 16.6642L111.633 17.5175L111.812 16.6642L114.849 9.04102H119.534L122.456 25.2805H118.001L116.525 15.3605L116.276 16.2784L112.551 25.2805H110.726L107.005 16.2776L106.756 15.3598L105.277 25.2797L100.816 25.2805Z" fill="white"/>
<path d="M197.131 25.2801L196.361 23.7413H196.274C195.177 25.0993 193.795 25.53 192.101 25.53C189.78 25.53 188.48 23.9282 188.48 21.6819C188.48 18.5846 191.364 17.8722 193.933 17.7758C194.594 17.7469 195.257 17.7533 195.885 17.7378C195.885 16.7447 195.532 16.0976 194.432 16.0976C193.28 16.1667 192.155 16.4677 191.126 16.9821L189.938 14.2683C191.322 13.557 193.074 13.1895 195.192 13.1895C197.911 13.1895 199.999 14.6207 199.999 17.5054V25.2782L197.131 25.2801ZM195.908 20.9186V19.9988L194.962 20.0368C193.612 20.0961 192.684 20.5871 192.684 21.5274C192.684 22.3153 193.298 22.6245 193.971 22.6245C194.992 22.6294 195.908 22.0134 195.908 20.9186Z" fill="white"/>
<path d="M182.987 25.5307C179.093 25.5307 176.967 23.1667 176.967 19.3373C176.967 15.4026 179.387 13.0333 183.306 13.0333C184.68 13.0262 186.035 13.3398 187.262 13.9485L186.035 17.0272C185.581 16.8272 185.116 16.6517 184.642 16.5016C184.21 16.3666 183.76 16.2986 183.306 16.3C180.494 16.3 180.302 22.2113 183.338 22.2113C184.589 22.2026 185.809 21.8347 186.851 21.1525V24.4586C185.703 25.1936 184.355 25.5674 182.987 25.5307Z" fill="white"/>
<path d="M175.242 13.0332C175.667 13.0362 176.091 13.0792 176.509 13.1616L176.139 17.0901C175.671 16.9917 175.192 16.9489 174.714 16.9625C173.813 16.9625 173.146 17.1706 172.735 17.5887C172.298 18.0843 172.076 18.7301 172.119 19.3857V25.2799H167.955V13.2447H171.052L171.704 15.1765H171.906C172.547 13.9985 173.862 13.0332 175.242 13.0332Z" fill="white"/>
<path d="M136.516 19.9733H127.716C127.747 21.6594 128.564 22.6612 130.297 22.6612C130.719 22.6812 131.139 22.5873 131.511 22.3896C131.883 22.1919 132.193 21.898 132.408 21.5394H136.328C135.509 24.3557 133.169 25.5842 130.351 25.5842C126.514 25.5842 123.488 23.3551 123.488 19.3217C123.488 15.2013 126.371 12.9824 130.325 12.9824C134.495 12.9824 136.516 16.0721 136.516 19.9733ZM132.626 17.5501C132.512 17.0136 132.213 16.5328 131.779 16.1899C131.345 15.847 130.804 15.6633 130.248 15.6703C129.018 15.6703 128.069 16.311 127.822 17.5501H132.626Z" fill="white"/>
<path fill-rule="evenodd" clip-rule="evenodd" d="M15.2534 12.6279L0 27.8789L9.92202 37.8023C10.6195 38.4973 11.4499 39.049 12.3651 39.4254C13.2803 39.8018 14.2622 39.9956 15.2539 39.9953C16.2455 39.9951 17.2273 39.801 18.1424 39.4242C19.0574 39.0473 19.8876 38.4953 20.5848 37.8L30.5091 27.8789L15.2534 12.6279Z" fill="white"/>
<path fill-rule="evenodd" clip-rule="evenodd" d="M46.385 12.625L31.127 27.8763L41.0528 37.8043C41.7513 38.4997 42.5827 39.0516 43.499 39.428C44.4153 39.8045 45.3982 39.998 46.3908 39.9974C47.3835 39.9967 48.3662 39.802 49.2819 39.4243C50.1977 39.0467 51.0284 38.4938 51.726 37.7974L61.643 27.8763L46.385 12.625Z" fill="white"/>
<path fill-rule="evenodd" clip-rule="evenodd" d="M77.5173 12.626L62.2539 27.8769L72.1844 37.8041C73.5757 39.1889 75.4642 39.9776 77.441 39.9995C78.4472 40.0129 79.4456 39.8246 80.3756 39.4459C81.3057 39.0673 82.148 38.5063 82.8514 37.7969L92.7711 27.8754L77.5173 12.626Z" fill="white"/>
<path fill-rule="evenodd" clip-rule="evenodd" d="M61.951 27.3667L46.6914 12.1234L56.6196 2.19922C57.3167 1.50289 58.1473 0.950064 59.063 0.572861C59.9787 0.195659 60.9613 0.00160029 61.9537 0.00195361C62.9461 0.00230693 63.9285 0.197058 64.844 0.574913C65.7594 0.952767 66.5895 1.50619 67.2862 2.20302L77.2074 12.1234L61.951 27.3667Z" fill="white"/>
<path fill-rule="evenodd" clip-rule="evenodd" d="M30.8381 27.3643L15.582 12.1198L25.4983 2.1968C26.197 1.50054 27.029 0.947855 27.9459 0.570769C28.8628 0.193683 29.8465 -0.000317487 30.84 3.90007e-07C31.8335 0.000318267 32.817 0.194951 33.7337 0.572623C34.6504 0.950296 35.482 1.5035 36.1803 2.20021L46.1004 12.1198L30.8381 27.3643Z" fill="white"/>
</g>
<defs>
<clipPath id="clip0_1201_7932">
<rect width="200" height="40" fill="white"/>
</clipPath>
</defs>
</svg>
