<svg width="45" height="12" viewBox="0 0 45 12" fill="none" xmlns="http://www.w3.org/2000/svg">
<g clip-path="url(#clip0_1734_12699)">
<path fill-rule="evenodd" clip-rule="evenodd" d="M7.60607 5.91989C7.61034 5.94157 7.62954 5.94565 7.64372 5.95344C8.23434 6.27849 8.58099 6.78179 8.73572 7.42326C8.85887 7.93407 8.87424 8.45348 8.85092 8.97512C8.83644 9.30306 8.79332 9.62699 8.70662 9.94468C8.47299 10.8012 7.92369 11.3623 7.07994 11.6479C6.70922 11.7734 6.32642 11.8412 5.93739 11.8799C5.57642 11.9159 5.21462 11.9206 4.85222 11.9202C3.60887 11.9188 2.36537 11.9196 1.12187 11.9198C0.947569 11.9198 0.773644 11.9122 0.602119 11.8792C0.547744 11.8687 0.493744 11.8541 0.441094 11.8367C0.264319 11.7779 0.147019 11.6586 0.0837191 11.4858C0.0246941 11.3247 0.0138191 11.1561 0.00286914 10.9874C-0.000655859 10.9325 0.000544141 10.8772 0.000544141 10.822C0.000544141 7.71883 0.000544141 4.61563 0.000244141 1.51243C0.000244141 1.34323 0.00811914 1.17462 0.0408191 1.00824C0.0519191 0.950994 0.0676691 0.894048 0.0878441 0.839181C0.149569 0.670052 0.267994 0.556607 0.439594 0.496246C0.592369 0.442418 0.751894 0.428609 0.911719 0.418512C0.991519 0.413537 1.07184 0.413612 1.15194 0.413612C2.37452 0.41324 3.59709 0.412572 4.81967 0.41376C5.35719 0.41428 5.89074 0.457713 6.41514 0.581553C6.61509 0.628847 6.81047 0.690915 7.00007 0.769985C7.74789 1.08204 8.22017 1.6287 8.42229 2.40574C8.55489 2.91573 8.56892 3.43447 8.53682 3.95626C8.51912 4.24597 8.47217 4.53122 8.38172 4.80844C8.24342 5.2326 8.00844 5.59165 7.65354 5.87022C7.63547 5.88447 7.60989 5.89323 7.60607 5.91989ZM3.94209 7.02175C3.94209 7.02093 3.94209 7.02012 3.94209 7.01923C3.47184 7.01923 3.00167 7.01908 2.53157 7.01945C2.43939 7.01945 2.43939 7.02049 2.43782 7.10921C2.43767 7.11953 2.43782 7.12985 2.43782 7.14024C2.43782 8.02279 2.43782 8.90541 2.43782 9.78803C2.43782 9.80867 2.43872 9.82946 2.43797 9.8501C2.43662 9.88781 2.45147 9.9086 2.49264 9.90674C2.52047 9.90541 2.54829 9.90674 2.57627 9.90674C3.36324 9.90674 4.15037 9.90764 4.93742 9.90593C5.07662 9.90563 5.21612 9.89947 5.35472 9.88796C5.50734 9.87527 5.65824 9.84943 5.80367 9.79798C6.03939 9.71445 6.19629 9.55683 6.27212 9.31999C6.30054 9.23104 6.32102 9.14047 6.33242 9.04803C6.37464 8.70443 6.36662 8.35993 6.34817 8.01559C6.34262 7.90919 6.32462 7.80362 6.30114 7.69893C6.22832 7.3733 6.02882 7.17454 5.70174 7.09458C5.48364 7.0412 5.26157 7.02583 5.03889 7.02301C4.67334 7.01841 4.30772 7.02175 3.94209 7.02175ZM3.77447 2.42794C3.77447 2.42712 3.77447 2.42631 3.77447 2.42549C3.35657 2.42549 2.93859 2.42519 2.52084 2.42579C2.44029 2.42594 2.43909 2.42742 2.43804 2.50523C2.43684 2.60524 2.43774 2.70517 2.43774 2.80518C2.43774 3.50501 2.43759 4.20484 2.43789 4.90459C2.43789 5.0049 2.43857 5.00675 2.51844 5.00675C3.28104 5.0066 4.04379 5.00861 4.80639 5.00348C5.02892 5.00193 5.25092 4.97884 5.46647 4.91439C5.75589 4.82782 5.93477 4.6411 5.99964 4.3485C6.06677 4.04588 6.06399 3.73947 6.04944 3.43254C6.04322 3.30173 6.03024 3.17143 5.99567 3.04425C5.93387 2.81676 5.79827 2.65194 5.57537 2.56284C5.51754 2.53968 5.45807 2.51986 5.39777 2.50367C5.18792 2.44702 4.97199 2.43284 4.75629 2.42935C4.42929 2.42408 4.10169 2.42794 3.77447 2.42794Z" fill="#0A83BA"/>
<path fill-rule="evenodd" clip-rule="evenodd" d="M34.1942 5.92099C34.2179 5.93635 34.2314 5.94645 34.246 5.95439C34.8187 6.26897 35.1628 6.75349 35.326 7.37373C35.4195 7.72973 35.4518 8.09301 35.4588 8.45896C35.4669 8.87659 35.4516 9.29288 35.3666 9.70412C35.2868 10.0894 35.1538 10.4531 34.921 10.7761C34.6343 11.1739 34.2447 11.4354 33.7895 11.6088C33.4497 11.7381 33.0962 11.8123 32.7362 11.858C32.3382 11.9086 31.9385 11.9212 31.5376 11.9206C30.2663 11.9188 28.9949 11.9199 27.7236 11.92C27.5596 11.92 27.3962 11.9139 27.2346 11.8845C26.8475 11.8144 26.6819 11.6401 26.63 11.2537C26.6126 11.1235 26.606 10.9929 26.606 10.8618C26.6062 7.73448 26.6063 4.60708 26.606 1.47968C26.606 1.3104 26.6159 1.14238 26.6498 0.975927C26.7084 0.686744 26.8832 0.51472 27.1753 0.458442C27.34 0.42674 27.5065 0.41397 27.6738 0.414118C29.0078 0.414935 30.3419 0.409961 31.6759 0.419835C32.2307 0.423993 32.78 0.494599 33.3119 0.663803C33.6871 0.783114 34.0332 0.955584 34.3278 1.21945C34.694 1.54746 34.9118 1.96071 35.0301 2.42919C35.1459 2.88787 35.1697 3.35487 35.147 3.82536C35.1323 4.12917 35.0956 4.42964 35.01 4.72268C34.8737 5.18938 34.6279 5.58488 34.2357 5.88475C34.2248 5.89307 34.215 5.90272 34.1942 5.92099ZM30.5399 7.02188C30.5399 7.02107 30.5399 7.02025 30.5399 7.01943C30.0696 7.01943 29.5996 7.01921 29.1293 7.01958C29.0375 7.01966 29.0375 7.0207 29.036 7.10934C29.0359 7.11974 29.036 7.13006 29.036 7.14038C29.036 8.02307 29.036 8.90569 29.036 9.78838C29.036 9.80902 29.0374 9.82981 29.036 9.85045C29.0336 9.88951 29.0507 9.90799 29.0907 9.90673C29.1185 9.90584 29.1464 9.90688 29.1743 9.90688C29.9578 9.90688 30.7415 9.90777 31.5252 9.90606C31.6679 9.90576 31.8108 9.8999 31.9529 9.88832C32.1125 9.87518 32.2701 9.84837 32.4218 9.79232C32.6453 9.70976 32.7953 9.55741 32.871 9.33453C32.892 9.27276 32.9077 9.20876 32.9201 9.14461C32.9703 8.88564 32.9664 8.62334 32.9651 8.36133C32.9639 8.13704 32.9531 7.91393 32.9031 7.69365C32.8302 7.37165 32.6318 7.17624 32.31 7.09598C32.0922 7.04163 31.8701 7.02589 31.6475 7.02315C31.2783 7.01862 30.9092 7.02188 30.5399 7.02188ZM30.3813 2.42822C30.3813 2.42733 30.3813 2.42652 30.3813 2.42563C29.9636 2.42563 29.5457 2.4254 29.1281 2.42577C29.0383 2.42592 29.0364 2.42696 29.0364 2.50648C29.0359 3.31285 29.0359 4.11922 29.0364 4.92559C29.0364 5.00503 29.0381 5.00696 29.1167 5.00696C29.8825 5.00681 30.6485 5.00852 31.4142 5.00369C31.6263 5.00236 31.8379 4.97994 32.0439 4.92284C32.342 4.84036 32.5314 4.65445 32.6 4.35316C32.612 4.29956 32.6219 4.24514 32.6291 4.19064C32.6663 3.90918 32.6579 3.62661 32.6444 3.34448C32.6387 3.23125 32.6194 3.1187 32.5855 3.00926C32.5204 2.79885 32.3877 2.64829 32.1812 2.56446C32.1236 2.541 32.064 2.52088 32.0039 2.50455C31.7942 2.44768 31.5783 2.43298 31.3628 2.42956C31.0358 2.42436 30.7084 2.42822 30.3813 2.42822Z" fill="#0A83BA"/>
<path fill-rule="evenodd" clip-rule="evenodd" d="M14.8558 11.2983C14.5013 11.4486 14.1562 11.5865 13.802 11.7012C13.317 11.8585 12.8226 11.9685 12.3114 11.9946C12.025 12.0093 11.7404 11.9944 11.4598 11.9327C10.8659 11.8022 10.4575 11.4466 10.2005 10.9093C10.0427 10.5797 9.95019 10.2305 9.88637 9.87319C9.77912 9.27381 9.75032 8.66812 9.74162 8.06103C9.73502 7.58504 9.74514 7.10928 9.78399 6.63479C9.82854 6.09109 9.90249 5.55215 10.0936 5.03593C10.1549 4.87044 10.2302 4.71178 10.3232 4.56121C10.601 4.11107 11.0066 3.84534 11.5268 3.7469C11.9212 3.67228 12.317 3.68349 12.7124 3.73658C13.4152 3.83087 14.0751 4.06875 14.7265 4.3341C14.7587 4.34716 14.7909 4.35993 14.8234 4.37233C14.8296 4.37463 14.837 4.37441 14.8517 4.37649C14.8614 4.34301 14.8726 4.30841 14.8816 4.27322C14.9417 4.03741 15.0911 3.89086 15.3285 3.82953C15.4472 3.79887 15.568 3.78587 15.6897 3.7783C15.965 3.76123 16.2396 3.76345 16.5126 3.8077C16.5639 3.81602 16.6146 3.82931 16.6645 3.84401C16.8679 3.90422 16.9962 4.03786 17.0556 4.23862C17.0932 4.36528 17.1072 4.49543 17.1146 4.62625C17.1196 4.71564 17.1196 4.80547 17.1196 4.89509C17.1199 6.8573 17.1198 8.81928 17.1198 10.7815C17.1198 10.9678 17.1135 11.1533 17.0777 11.3373C17.0211 11.6283 16.8467 11.7992 16.5548 11.8563C16.404 11.8859 16.2517 11.8989 16.0981 11.8999C15.8683 11.9014 15.6381 11.9065 15.4114 11.8585C15.3605 11.8476 15.3098 11.8341 15.2607 11.8171C15.0812 11.7546 14.9622 11.6324 14.903 11.4536C14.8871 11.4049 14.8732 11.3555 14.8558 11.2983ZM14.8223 7.85455C14.8223 7.36179 14.8218 6.86903 14.8231 6.37627C14.8232 6.32422 14.8164 6.2894 14.7587 6.26445C14.3476 6.08634 13.9354 5.91105 13.5044 5.78417C13.22 5.70035 12.932 5.63813 12.6321 5.64912C12.4876 5.65431 12.3802 5.71646 12.3054 5.83792C12.2488 5.93021 12.2145 6.03125 12.1873 6.13468C12.129 6.35548 12.0995 6.58133 12.0854 6.808C12.0383 7.56537 12.0319 8.32289 12.1038 9.07944C12.1237 9.28858 12.1562 9.49669 12.2298 9.69537C12.3271 9.95723 12.4536 10.0415 12.7346 10.0323C12.9336 10.0258 13.129 9.99317 13.3214 9.94387C13.808 9.81936 14.27 9.62833 14.7326 9.43804C14.8014 9.40975 14.8247 9.37552 14.8242 9.30195C14.8206 8.81943 14.8223 8.33707 14.8223 7.85455Z" fill="#0A83BA"/>
<path fill-rule="evenodd" clip-rule="evenodd" d="M20.4956 4.38088C20.7456 4.27917 20.9969 4.17752 21.2525 4.08739C21.6992 3.92984 22.1529 3.79813 22.6245 3.73703C23.0409 3.68313 23.4569 3.67014 23.8708 3.76257C24.3434 3.86807 24.7065 4.126 24.9666 4.52863C25.16 4.82806 25.2746 5.15948 25.3737 5.49833C25.4972 5.92086 25.5157 6.35497 25.5172 6.78908C25.5222 8.16483 25.5194 9.54065 25.5188 10.9165C25.5186 11.0822 25.5034 11.2466 25.4629 11.4083C25.4038 11.6447 25.2548 11.7918 25.0194 11.8564C24.9116 11.886 24.8014 11.9024 24.6901 11.9091C24.3837 11.9274 24.0777 11.9333 23.7737 11.8799C23.7083 11.8685 23.645 11.8501 23.5834 11.8259C23.4255 11.7642 23.3171 11.6548 23.2571 11.4972C23.21 11.3732 23.19 11.2441 23.1816 11.1132C23.1755 11.0169 23.1741 10.9203 23.1741 10.8238C23.1736 9.45149 23.1743 8.07907 23.1731 6.70674C23.173 6.49291 23.1602 6.27961 23.1166 6.0692C23.1047 6.01159 23.0868 5.95627 23.0616 5.90282C22.9814 5.73235 22.8506 5.64757 22.6574 5.64757C22.379 5.64742 22.1109 5.70325 21.8466 5.78084C21.4086 5.90943 20.9892 6.08635 20.5724 6.26936C20.5289 6.28844 20.5029 6.31124 20.5099 6.36165C20.5131 6.38533 20.5104 6.40983 20.5104 6.43404C20.5104 7.88916 20.5107 9.3442 20.5101 10.7994C20.51 10.9924 20.5068 11.1849 20.4648 11.3754C20.407 11.6369 20.2541 11.8027 19.9886 11.8661C19.8932 11.8889 19.7971 11.9041 19.7 11.9101C19.4007 11.9286 19.1014 11.9351 18.8047 11.8798C18.7502 11.8696 18.6963 11.8543 18.644 11.836C18.468 11.7745 18.3523 11.653 18.2926 11.4792C18.2531 11.3642 18.2331 11.2452 18.2271 11.1244C18.2205 10.9935 18.2161 10.8626 18.216 10.7316C18.2153 8.80407 18.2148 6.87654 18.2165 4.949C18.2168 4.73228 18.2159 4.51504 18.2645 4.30084C18.3231 4.04166 18.4788 3.8827 18.7412 3.82598C19.0297 3.76354 19.3218 3.76391 19.6145 3.77809C19.7431 3.78425 19.8709 3.79754 19.9969 3.8282C20.2443 3.88842 20.3968 4.03995 20.4584 4.2834C20.465 4.30998 20.4722 4.33663 20.4803 4.36284C20.4824 4.3687 20.489 4.37316 20.4956 4.38088Z" fill="#0A83BA"/>
<path fill-rule="evenodd" clip-rule="evenodd" d="M42.7274 8.43027C42.7274 9.25097 42.7272 10.0715 42.7275 10.8921C42.7275 11.0233 42.7213 11.1538 42.7026 11.2839C42.6522 11.6373 42.4918 11.8183 42.1398 11.8828C41.7705 11.9504 41.3967 11.9495 41.0275 11.8874C40.6529 11.8242 40.4926 11.6391 40.4435 11.2624C40.4259 11.1285 40.4212 10.9946 40.4212 10.8601C40.4212 9.17049 40.4214 7.48091 40.4207 5.7914C40.4207 5.6432 40.4461 5.65367 40.2821 5.65211C40.1286 5.65063 39.9762 5.64023 39.8252 5.60994C39.5484 5.55433 39.3717 5.39664 39.3111 5.11926C39.2538 4.85614 39.2524 4.59131 39.3072 4.32893C39.3729 4.01465 39.5487 3.86141 39.8768 3.80944C40.0322 3.78479 40.1889 3.78293 40.3453 3.77781C40.4241 3.77521 40.4248 3.77528 40.4281 3.698C40.444 3.33984 40.4618 2.98183 40.5084 2.62598C40.5569 2.25624 40.6308 1.89318 40.7572 1.54C40.9038 1.13077 41.1811 0.852647 41.5788 0.681513C41.8914 0.546908 42.2179 0.469396 42.5562 0.436357C42.9732 0.395671 43.3913 0.406511 43.8088 0.419355C43.9791 0.424553 44.1484 0.448014 44.3139 0.492932C44.7622 0.614693 44.9718 0.870094 44.9975 1.32915C45.0042 1.44675 44.9962 1.56376 44.9715 1.67884C44.9054 1.98525 44.7206 2.19484 44.4331 2.31957C44.189 2.42552 43.93 2.45106 43.6677 2.45722C43.5114 2.46086 43.3544 2.45143 43.199 2.48061C42.9206 2.53295 42.7862 2.6683 42.7482 2.94761C42.7133 3.20501 42.7306 3.4639 42.7343 3.72235C42.7347 3.75539 42.747 3.7741 42.7828 3.77335C42.8107 3.77276 42.8385 3.77373 42.8664 3.77373C43.1694 3.77335 43.4724 3.77209 43.7751 3.78746C43.8869 3.7931 43.9969 3.80862 44.1047 3.83817C44.3241 3.89838 44.4659 4.03625 44.5275 4.25446C44.59 4.47704 44.5936 4.70349 44.5734 4.93135C44.5657 5.0171 44.5504 5.10174 44.5246 5.1846C44.4597 5.39218 44.3226 5.52605 44.1132 5.58804C43.9753 5.6288 43.8336 5.64714 43.6907 5.64907C43.4016 5.65315 43.1125 5.65226 42.8234 5.65382C42.7281 5.65434 42.7273 5.65486 42.7273 5.75116C42.7272 6.64417 42.7274 7.53726 42.7274 8.43027Z" fill="#0A83BA"/>
<path fill-rule="evenodd" clip-rule="evenodd" d="M38.658 7.84403C38.658 8.85079 38.6586 9.85739 38.6576 10.8641C38.6574 11.0398 38.6493 11.2151 38.6091 11.3879C38.5503 11.6409 38.3982 11.7998 38.1423 11.8627C38.0438 11.8869 37.9442 11.9022 37.8437 11.9086C37.5408 11.9274 37.2383 11.9329 36.9379 11.8789C36.8727 11.8671 36.8096 11.8483 36.7481 11.8233C36.5946 11.7607 36.4902 11.6517 36.432 11.4983C36.3759 11.3512 36.3606 11.1969 36.3513 11.042C36.3465 10.9596 36.347 10.8766 36.347 10.7939C36.3466 8.83223 36.3466 6.87054 36.3468 4.90892C36.3468 4.71922 36.3516 4.5302 36.3879 4.3428C36.4428 4.05845 36.6067 3.88234 36.8951 3.82035C37.001 3.79748 37.1078 3.78486 37.2154 3.77817C37.4942 3.76073 37.7723 3.7611 38.0484 3.80802C38.1031 3.8173 38.1571 3.832 38.2099 3.84885C38.4029 3.91055 38.5275 4.03937 38.5886 4.23092C38.6501 4.4244 38.6571 4.62427 38.6574 4.82406C38.6587 5.83067 38.658 6.83735 38.658 7.84403Z" fill="#0A83BA"/>
<path fill-rule="evenodd" clip-rule="evenodd" d="M35.971 1.49018C35.948 0.700958 36.6818 -0.124864 37.6726 0.0157552C38.0174 0.0646081 38.3219 0.191121 38.5708 0.436276C38.8058 0.667697 38.9453 0.950346 38.9955 1.2713C39.0843 1.83898 38.945 2.34726 38.5457 2.77045C38.2617 3.07129 37.9073 3.24799 37.4879 3.26633C37.1101 3.28281 36.7973 3.12668 36.539 2.86296C36.2363 2.55418 36.0647 2.17917 35.9933 1.75724C35.9779 1.66547 35.9682 1.57303 35.971 1.49018ZM36.5554 1.4068C36.5548 1.66755 36.6708 1.94032 36.8582 2.11005C37.0279 2.26366 37.2248 2.31867 37.4476 2.25111C37.9867 2.08777 38.1623 1.48335 37.9331 1.06869C37.7759 0.784261 37.4224 0.637479 37.1003 0.719222C36.7823 0.799852 36.5561 1.08532 36.5554 1.4068Z" fill="#BDCD0D"/>
<path fill-rule="evenodd" clip-rule="evenodd" d="M36.5554 1.40684C36.5561 1.08536 36.7823 0.799886 37.1003 0.719257C37.4225 0.637514 37.776 0.784295 37.9331 1.06873C38.1623 1.48338 37.9867 2.08781 37.4476 2.25114C37.2248 2.31863 37.0278 2.26369 36.8583 2.11008C36.6708 1.94036 36.5548 1.66758 36.5554 1.40684Z" fill="#0A83BA"/>
</g>
<defs>
<clipPath id="clip0_1734_12699">
<rect width="45" height="12" fill="white"/>
</clipPath>
</defs>
</svg>
