<svg width="54" height="12" viewBox="0 0 54 12" fill="none" xmlns="http://www.w3.org/2000/svg">
<g clip-path="url(#clip0_1672_12117)">
<path d="M40.8681 0H40.9989C41.1546 0.0989318 41.2137 0.284804 41.2994 0.438758C42.4803 2.65203 43.663 4.86431 44.8453 7.07698C45.4167 8.15492 45.9999 9.2271 46.5654 10.308V10.329C46.5317 10.3899 46.5049 10.4857 46.418 10.4771C45.8436 10.4789 45.2684 10.4801 44.6944 10.4766C44.5566 10.4821 44.5194 10.3317 44.4673 10.2348C44.3629 10.0363 44.2502 9.84287 44.156 9.63919C43.9948 9.36556 43.8678 9.07404 43.7066 8.80071C43.5828 8.53028 43.4227 8.27943 43.2981 8.00954C43.2211 7.84621 43.1199 7.69575 43.0436 7.53221C42.9303 7.28925 42.7837 7.06417 42.6737 6.8195C42.5078 6.5321 42.3706 6.22974 42.2048 5.94228C42.0883 5.68472 41.9332 5.44738 41.8156 5.19038C41.7334 5.01362 41.6234 4.85116 41.5417 4.67386C41.4352 4.44378 41.2936 4.23212 41.1921 3.99978C41.1414 3.9099 41.1066 3.78493 41.0001 3.74894C40.9317 3.74338 40.8357 3.72613 40.7971 3.7996C40.618 4.0873 40.487 4.40129 40.3144 4.69278C40.1908 4.963 40.0296 5.21377 39.9056 5.48364C39.8319 5.64049 39.735 5.78509 39.6607 5.94138C39.6042 6.0588 39.5468 6.17582 39.4802 6.28795C39.3622 6.48695 39.278 6.70384 39.1586 6.90198C39.0544 7.07584 38.9804 7.26579 38.8765 7.43965C38.7674 7.61905 38.6913 7.81571 38.584 7.99575C38.4611 8.20061 38.3744 8.42451 38.2512 8.62911C38.1474 8.80299 38.0737 8.99264 37.9695 9.1665C37.8604 9.3459 37.7843 9.54256 37.6769 9.7226C37.5613 9.91542 37.4765 10.1244 37.3676 10.3205C37.3304 10.3788 37.2948 10.4519 37.2216 10.4689C37.1093 10.4888 36.9943 10.4771 36.8808 10.4786C36.4416 10.4782 36.0024 10.4768 35.5632 10.48C35.4837 10.4786 35.3883 10.4797 35.3339 10.4113C35.3169 10.3366 35.323 10.2558 35.3637 10.19C37.1552 6.83153 38.9504 3.47524 40.7436 0.117359C40.7711 0.0659146 40.8205 0.031938 40.8682 1.99862e-05L40.8681 0ZM6.62581 1.61295C6.74869 1.48336 6.93506 1.52575 7.09393 1.52137C8.69352 1.52223 10.2927 1.52137 11.8924 1.52169C12.3629 1.50584 12.8392 1.57695 13.2808 1.74178C14.0239 2.0084 14.6635 2.60718 14.904 3.36878C15.0105 3.65764 15.0336 3.96852 15.055 4.27291C15.0354 4.59893 14.9959 4.93026 14.8727 5.23553C14.7249 5.59286 14.5116 5.93709 14.1936 6.16685C14.117 6.24086 13.9981 6.27224 13.9423 6.36531C14.3654 6.51809 14.7294 6.80749 15.0038 7.16076C15.4549 7.75082 15.5805 8.5317 15.5038 9.25612C15.4635 9.73375 15.3262 10.2079 15.0769 10.6192C14.9105 10.8749 14.7051 11.1094 14.4558 11.2873C13.9116 11.6912 13.2381 11.8774 12.573 11.954C12.4367 11.9725 12.2968 11.9625 12.163 12H6.74777C6.70272 11.9637 6.66087 11.9233 6.62573 11.8771V1.61293L6.62581 1.61295ZM8.42105 3.11353C8.36985 3.17615 8.38388 3.26163 8.381 3.33658C8.3856 4.11424 8.37398 4.89215 8.38679 5.66957C8.43448 5.72905 8.50763 5.76974 8.58516 5.76561C9.6192 5.76644 10.6535 5.76441 11.6874 5.76676C11.8314 5.77294 11.973 5.74278 12.1149 5.72289C12.4368 5.67605 12.7583 5.54871 12.9828 5.30584C13.1364 5.15305 13.2063 4.94109 13.258 4.73623C13.2706 4.57033 13.3236 4.40372 13.2774 4.23806C13.2552 3.95771 13.1413 3.68524 12.9514 3.4771C12.6855 3.23595 12.3294 3.12063 11.9783 3.07816C11.866 3.06707 11.7518 3.08377 11.6403 3.06153C11.5017 3.03163 11.3597 3.04598 11.2193 3.04428C10.3705 3.04334 9.52173 3.04512 8.67328 3.04308C8.5849 3.04308 8.49652 3.06739 8.42103 3.11359L8.42105 3.11353ZM8.47865 7.32649C8.44414 7.33734 8.4111 7.35781 8.40057 7.39496C8.33821 7.51558 8.35108 7.65432 8.3517 7.78539C8.35288 8.58562 8.35084 9.38585 8.35256 10.1859C8.35428 10.3004 8.41805 10.4625 8.55594 10.4485C9.64846 10.449 10.7412 10.4479 11.8337 10.4488C11.9434 10.4526 12.0531 10.4488 12.1614 10.4289C12.5458 10.3961 12.9438 10.3191 13.2677 10.0976C13.528 9.91317 13.6712 9.60824 13.7268 9.30117C13.8005 8.94673 13.773 8.57587 13.67 8.22995C13.5778 7.96303 13.3958 7.71984 13.1407 7.59047C12.8036 7.40488 12.4169 7.34931 12.0391 7.31706C10.8878 7.31736 9.73648 7.31736 8.58508 7.31706C8.54935 7.31623 8.51363 7.31936 8.47859 7.32641L8.47865 7.32649ZM17.2874 1.52989C17.4092 1.50998 17.5335 1.52403 17.6564 1.52169C19.3534 1.52137 21.0507 1.52255 22.7481 1.52107C23.5152 1.56032 24.2947 1.82866 24.8488 2.37602C25.2702 2.79253 25.5241 3.3641 25.585 3.95034C25.5838 4.18244 25.5946 4.41518 25.5786 4.64696C25.5057 5.14451 25.3102 5.64557 24.9357 5.99383C24.8299 6.10477 24.7149 6.20784 24.5803 6.28271C24.5525 6.30611 24.4936 6.31782 24.5109 6.36529C24.9416 6.54089 25.3305 6.83443 25.5982 7.21696C25.7132 7.37476 25.7959 7.55267 25.8755 7.73037C26.0338 8.08772 26.0634 8.48313 26.0865 8.86835C26.0669 9.16626 26.049 9.46683 25.978 9.75835C25.8744 10.2664 25.6102 10.7374 25.2412 11.0997C25.0905 11.2241 24.9384 11.3488 24.7693 11.4477C24.2924 11.7398 23.7373 11.8748 23.1878 11.9473C23.0345 11.9734 22.8765 11.9593 22.7252 12H17.3136C17.2293 11.9508 17.1477 11.8733 17.1585 11.7664C17.1592 8.42951 17.1592 5.09241 17.1585 1.75551C17.155 1.66331 17.21 1.57663 17.2876 1.52989H17.2874ZM19.1004 3.05415C19.0442 3.06735 18.9831 3.08781 18.953 3.14135C18.9006 3.21544 18.9155 3.31024 18.9135 3.3954C18.9161 4.10781 18.9143 4.82022 18.914 5.53233C18.9091 5.62516 18.9709 5.70535 19.0416 5.75827C19.252 5.77678 19.4641 5.76039 19.6754 5.76563C20.573 5.76507 21.4704 5.76678 22.3681 5.76507C22.6692 5.73111 22.9808 5.69184 23.245 5.53147C23.5172 5.40915 23.6892 5.14423 23.7816 4.86996C23.8512 4.64816 23.8273 4.41372 23.8284 4.18511C23.8085 4.02297 23.7568 3.86346 23.683 3.7177C23.472 3.35561 23.0657 3.15604 22.6625 3.09718C22.5039 3.05737 22.3392 3.09017 22.18 3.05737C22.0583 3.03371 21.9342 3.04542 21.8116 3.04426C20.9432 3.04332 20.0749 3.04512 19.2066 3.04308C19.1706 3.04332 19.1353 3.04684 19.1004 3.05417V3.05415ZM19.0416 7.32703C18.9544 7.34602 18.9103 7.43795 18.915 7.52104C18.9143 8.36046 18.9155 9.19956 18.9143 10.0387C18.9155 10.1456 18.9038 10.2571 18.9453 10.3586C18.9662 10.4304 19.0539 10.4467 19.1189 10.4482C20.2307 10.4497 21.3427 10.447 22.455 10.4497C22.6019 10.457 22.7455 10.4192 22.8918 10.4125C23.2666 10.3657 23.6514 10.2577 23.9404 10.003C24.1684 9.77326 24.2799 9.4516 24.3045 9.13378C24.3336 8.97631 24.3404 8.81502 24.308 8.65755C24.2796 8.30108 24.155 7.92056 23.8594 7.69789C23.5019 7.42184 23.0384 7.35805 22.6019 7.31706C21.49 7.31738 20.3778 7.31738 19.266 7.31706C19.1911 7.31885 19.115 7.3109 19.0416 7.32705L19.0416 7.32703ZM26.1507 1.7438C26.0978 1.63667 26.2026 1.50786 26.3164 1.52105C26.8629 1.52073 27.4098 1.52371 27.9566 1.51987C28.0201 1.51667 28.0903 1.52573 28.1242 1.58781C28.2539 1.78681 28.3586 2.00132 28.4628 2.21471C28.5286 2.3511 28.6128 2.47757 28.6787 2.61398C28.8001 2.87708 28.9573 3.12143 29.0775 3.38517C29.2384 3.65878 29.3657 3.95032 29.5267 4.22373C29.6647 4.5193 29.8383 4.79623 29.9746 5.09267C30.0931 5.29993 30.2007 5.5127 30.3081 5.72603C30.4445 5.947 30.5399 6.18941 30.6745 6.41152C30.7684 6.57485 30.838 6.75075 30.9351 6.91227C31.0583 7.11689 31.1446 7.34112 31.2678 7.54536C31.3898 7.7503 31.4727 7.97624 31.604 8.17552C31.6628 8.28617 31.8554 8.28649 31.9145 8.17552C32.0452 7.97592 32.1283 7.7503 32.2503 7.54536C32.3592 7.36626 32.4358 7.16982 32.5429 6.98954C32.6658 6.78468 32.7524 6.5608 32.8756 6.35594C32.9973 6.14312 33.0921 5.9157 33.2205 5.70647C33.3704 5.39238 33.5512 5.09479 33.699 4.77984C33.8201 4.57405 33.9222 4.35834 34.0328 4.14708C34.1622 3.9384 34.2516 3.70862 34.3783 3.49877C34.4878 3.31086 34.568 3.10802 34.6788 2.92097C34.7912 2.73539 34.8696 2.53201 34.9822 2.34644C35.1327 2.09326 35.2298 1.80821 35.4077 1.57144C35.4481 1.50906 35.5273 1.52311 35.5911 1.51959C36.128 1.52459 36.6652 1.52053 37.2021 1.52107C37.275 1.51288 37.3364 1.56152 37.371 1.6221C37.4051 1.72303 37.3318 1.81493 37.2855 1.89809C35.5783 5.08889 33.876 8.28229 32.1694 11.4735C32.0717 11.6558 31.9891 11.8539 31.8379 12H31.7092C31.5152 11.8785 31.4499 11.6417 31.339 11.4539C29.609 8.21774 27.8826 4.97877 26.1508 1.7438H26.1507Z" fill="#004580"/>
</g>
<defs>
<clipPath id="clip0_1672_12117">
<rect width="53.1913" height="12" fill="white"/>
</clipPath>
</defs>
</svg>
