<svg width="49" height="12" viewBox="0 0 49 12" fill="none" xmlns="http://www.w3.org/2000/svg">
<g clip-path="url(#clip0_1672_12113)">
<path fill-rule="evenodd" clip-rule="evenodd" d="M12.0936 9.28534C12.0936 9.28534 12.0012 9.6949 12.4054 9.7288C12.6098 9.73492 12.8271 9.73492 13.0555 9.73492C14.5128 9.73492 15.846 9.23386 15.8759 8.00302C15.9034 6.91216 14.8658 6.58342 13.6156 6.58342H12.7334L12.0936 9.28534ZM18.7055 8.0632C18.7055 9.69568 17.2406 11.8494 12.1741 11.5843C11.5804 11.5529 11.2155 11.5071 10.6799 11.384C8.77153 10.9446 9.44281 8.83804 9.44281 8.83804L11.3846 0.68636C12.4531 0.523493 13.6514 0.424602 14.8823 0.424602C17.5921 0.424602 19.3876 1.32915 19.3876 3.02203C19.3876 4.6071 17.7523 5.46857 16.5144 5.6638C17.4954 5.73237 18.7055 6.44068 18.7055 8.0632ZM13.7516 2.31756L13.2618 4.41772C13.2618 4.41772 13.1401 4.86732 13.5551 4.86732H14.1265C15.5965 4.86732 16.6147 4.32852 16.6402 3.37936C16.661 2.59639 15.9404 2.25715 14.9171 2.25715C14.4494 2.25715 13.9582 2.28697 13.7516 2.31756ZM31.0942 11.6137H29.4857L32.0361 0.746864C33.0909 0.516203 34.2011 0.470581 35.4869 0.480775C38.6254 0.4925 40.0642 1.61573 40.0642 3.57368C40.0642 5.36774 38.5546 8.00746 34.2138 8.00746C33.7692 8.00746 33.3868 7.95982 33.1108 7.94248C33.1108 7.94248 32.7572 9.4534 32.5469 10.3437C32.282 11.4613 31.5056 11.6137 31.0942 11.6137ZM34.5835 2.39667L33.8744 5.42662C33.8744 5.42662 33.6458 6.07066 34.462 6.07066C34.5628 6.07474 34.6721 6.07756 34.7924 6.07756C36.6171 6.0643 37.5542 4.93803 37.5542 3.77197C37.5542 2.62478 36.7167 2.34264 35.7085 2.34264C35.1937 2.34264 34.8073 2.36557 34.5835 2.39667ZM23.119 6.81268C23.119 8.52802 24.1716 9.62476 25.9774 9.62476C26.7209 9.62476 27.5333 9.50674 28.629 8.74618L28.1995 10.5731C28.1995 10.5731 28.0802 11.1792 27.3685 11.4147C26.7904 11.6199 26.1805 11.7132 25.256 11.7132C22.6809 11.7132 20.168 10.5132 20.168 6.9577C20.168 3.63187 22.4197 0.251465 26.7664 0.251465C27.6192 0.251465 28.2221 0.365139 28.9942 0.600896C30.1847 0.964352 30.3293 1.57452 30.2504 1.94026C30.1699 2.31468 29.889 3.21438 29.889 3.21438C29.1401 2.58127 27.8357 2.40312 27.1106 2.40312C24.3321 2.40312 23.119 5.04387 23.119 6.81268ZM4.76035 5.39287C3.78878 4.3958 2.7639 3.79302 2.00722 3.44946C2.00722 3.44946 1.63858 3.27639 1.44604 3.17699C1.72663 2.58007 2.09581 2.15367 2.09581 2.15367C2.14806 2.08919 3.26638 0.845396 4.25006 1.28226C5.32449 1.73976 5.43382 3.83967 4.76035 5.39287ZM44.6753 5.39287C43.7037 4.3958 42.6788 3.79302 41.9221 3.44946C41.9221 3.44946 41.5535 3.27639 41.3609 3.17699C41.6416 2.58007 42.0107 2.15367 42.0107 2.15367C42.063 2.08919 43.1813 0.845396 44.165 1.28226C45.2394 1.73976 45.3487 3.83967 44.6753 5.39287Z" fill="#00498C"/>
<path fill-rule="evenodd" clip-rule="evenodd" d="M8.09359 6.98069C7.04611 8.56427 4.1885 10.3693 3.37877 10.64C1.80401 11.2636 0.737933 10.107 0.646919 9.98567C0.353132 9.62759 0.281772 9.55187 0.139592 9.29063C0.111857 9.33395 3.16253 7.99079 4.25555 6.25307C5.4393 4.7605 5.54244 1.83276 4.24962 1.28223C4.64061 1.46854 5.56182 1.96911 6.39307 2.67028C7.22245 3.33576 7.93933 4.20844 7.92397 4.19723C8.01145 4.30963 9.05035 5.53354 8.09359 6.98069ZM47.8384 4.19723C47.926 4.30963 48.9648 5.53354 48.0081 6.98069C46.9609 8.56427 44.103 10.3693 43.2933 10.64C41.7185 11.2636 40.6524 10.107 40.5614 9.98567C40.2676 9.62759 40.1962 9.55187 40.0541 9.29063C40.0263 9.33395 43.0773 7.99079 44.17 6.25307C45.3538 4.7605 45.4569 1.83276 44.1641 1.28223C44.5551 1.46854 45.4763 1.96911 46.3076 2.67028C47.137 3.33576 47.854 4.20844 47.8384 4.19723Z" fill="#FF7800"/>
</g>
<defs>
<clipPath id="clip0_1672_12113">
<rect width="48.6" height="12" fill="white"/>
</clipPath>
</defs>
</svg>
