<svg width="18" height="17" viewBox="0 0 18 17" fill="none" xmlns="http://www.w3.org/2000/svg">
<path d="M15.6665 0.5H4.57734C4.23826 0.501126 3.90752 0.605132 3.62882 0.798269C3.35013 0.991405 3.13661 1.26458 3.01651 1.58167L0.719005 7.7075C0.684121 7.80107 0.666339 7.90014 0.666505 8V9.66667C0.666505 10.5858 1.41401 11.3333 2.33317 11.3333H7.00984L6.07484 14.1392C5.99148 14.3897 5.96871 14.6564 6.0084 14.9175C6.04809 15.1785 6.14911 15.4264 6.30317 15.6408C6.6165 16.0742 7.1215 16.3333 7.6565 16.3333H8.99984C9.24734 16.3333 9.4815 16.2233 9.64067 16.0333L13.5573 11.3333H15.6665C16.5857 11.3333 17.3332 10.5858 17.3332 9.66667V2.16667C17.3332 1.2475 16.5857 0.5 15.6665 0.5ZM8.609 14.6667H7.65484L8.9565 10.7633C8.99821 10.6381 9.00958 10.5048 8.98968 10.3743C8.96977 10.2439 8.91917 10.12 8.84203 10.0129C8.7649 9.90583 8.66343 9.8186 8.54598 9.75841C8.42854 9.69821 8.29848 9.66677 8.1665 9.66667H2.33317V8.15083L4.57734 2.16667H12.3332V10.1983L8.609 14.6667ZM13.9998 9.66667V2.16667H15.6665L15.6673 9.66667H13.9998Z" fill="#005F27"/>
</svg>
