<svg width="18" height="17" viewBox="0 0 18 17" fill="none" xmlns="http://www.w3.org/2000/svg">
<path d="M15.6665 5.66602H10.9898L11.9257 2.86018C12.094 2.35352 12.009 1.79185 11.6965 1.35852C11.384 0.925182 10.8773 0.666016 10.3432 0.666016H8.99984C8.75234 0.666016 8.51817 0.776016 8.359 0.966016L4.44234 5.66602H2.33317C1.414 5.66602 0.666504 6.41352 0.666504 7.33268V14.8327C0.666504 15.7518 1.414 16.4993 2.33317 16.4993H13.4223C13.7614 16.4982 14.0922 16.3942 14.3709 16.2011C14.6495 16.0079 14.8631 15.7348 14.9832 15.4177L17.2807 9.29185C17.3156 9.19828 17.3333 9.09921 17.3332 8.99935V7.33268C17.3332 6.41352 16.5857 5.66602 15.6665 5.66602ZM2.33317 7.33268H3.99984V14.8327H2.33317V7.33268ZM15.6665 8.84852L13.4223 14.8327H5.6665V6.80102L9.38984 2.33268H10.3448L9.04317 6.23518C9.00091 6.36044 8.98913 6.49398 9.00879 6.6247C9.02845 6.75543 9.07899 6.87959 9.15622 6.98688C9.23345 7.09418 9.33515 7.18151 9.45288 7.24165C9.5706 7.30179 9.70097 7.33299 9.83317 7.33268H15.6665V8.84852Z" fill="#005F27"/>
</svg>
