<svg width="17" height="17" viewBox="0 0 17 17" fill="none" xmlns="http://www.w3.org/2000/svg">
<path d="M12.7558 9.24368C12.6785 9.16623 12.5866 9.10478 12.4855 9.06286C12.3844 9.02093 12.2761 8.99935 12.1666 8.99935C12.0572 8.99935 11.9488 9.02093 11.8477 9.06286C11.7466 9.10478 11.6548 9.16623 11.5775 9.24368L10.2491 10.572C9.63329 10.3887 8.48412 9.97202 7.75579 9.24368C7.02745 8.51535 6.61079 7.36618 6.42745 6.75035L7.75579 5.42202C7.83324 5.34469 7.89469 5.25286 7.93661 5.15176C7.97854 5.05067 8.00012 4.94229 8.00012 4.83285C8.00012 4.72341 7.97854 4.61503 7.93661 4.51394C7.89469 4.41284 7.83324 4.32101 7.75579 4.24368L4.42245 0.91035C4.34513 0.832895 4.25329 0.771447 4.1522 0.729521C4.0511 0.687596 3.94273 0.666016 3.83329 0.666016C3.72384 0.666016 3.61547 0.687596 3.51437 0.729521C3.41328 0.771447 3.32144 0.832895 3.24412 0.91035L0.984119 3.17035C0.667453 3.48702 0.489119 3.92202 0.495786 4.36618C0.514953 5.55285 0.82912 9.67452 4.07745 12.9229C7.32579 16.1712 11.4475 16.4845 12.635 16.5045H12.6583C13.0983 16.5045 13.5141 16.3312 13.8291 16.0162L16.0891 13.7562C16.1666 13.6789 16.228 13.587 16.2699 13.4859C16.3119 13.3848 16.3335 13.2765 16.3335 13.167C16.3335 13.0576 16.3119 12.9492 16.2699 12.8481C16.228 12.747 16.1666 12.6552 16.0891 12.5779L12.7558 9.24368ZM12.65 14.837C11.61 14.8195 8.05162 14.5404 5.25579 11.7437C2.45079 8.93868 2.17912 5.36785 2.16245 4.34868L3.83329 2.67785L5.98829 4.83285L4.91079 5.91035C4.81284 6.00823 4.74082 6.12896 4.70125 6.26166C4.66167 6.39435 4.65579 6.53481 4.68412 6.67035C4.70412 6.76618 5.19329 9.03868 6.57662 10.422C7.95995 11.8054 10.2325 12.2945 10.3283 12.3145C10.4637 12.3436 10.6043 12.3382 10.7372 12.2988C10.87 12.2593 10.9907 12.1871 11.0883 12.0887L12.1666 11.0112L14.3216 13.1662L12.65 14.837Z" fill="#005F27"/>
</svg>
