<svg width="18" height="14" viewBox="0 0 18 14" fill="none" xmlns="http://www.w3.org/2000/svg">
<path d="M15.6665 0.333984H2.33317C1.414 0.333984 0.666504 1.08148 0.666504 2.00065V12.0007C0.666504 12.9198 1.414 13.6673 2.33317 13.6673H15.6665C16.5857 13.6673 17.3332 12.9198 17.3332 12.0007V2.00065C17.3332 1.08148 16.5857 0.333984 15.6665 0.333984ZM15.6665 2.00065V2.42648L8.99984 7.61232L2.33317 2.42732V2.00065H15.6665ZM2.33317 12.0007V4.53732L8.48817 9.32482C8.63409 9.43944 8.81428 9.50174 8.99984 9.50174C9.1854 9.50174 9.36558 9.43944 9.5115 9.32482L15.6665 4.53732L15.6682 12.0007H2.33317Z" fill="#005F27"/>
</svg>
