<svg width="67" height="12" viewBox="0 0 67 12" fill="none" xmlns="http://www.w3.org/2000/svg">
<g clip-path="url(#clip0_1672_12108)">
<path d="M32.5314 3.49426C30.6391 3.49426 29.3079 4.85844 29.2969 7.05873C29.2969 9.072 30.9031 10.3152 32.5424 10.3152C33.5215 10.3152 34.1266 10.1611 34.4786 9.8751V8.76395C33.9699 8.98994 33.418 9.10256 32.8614 9.094C31.8493 9.094 31.0352 8.54393 30.9031 7.66381L30.8921 7.5868H32.0693C33.1805 7.5868 33.9616 7.48779 34.4566 7.24575C34.9517 7.00372 35.1607 6.62967 35.1607 6.03559C35.1607 4.46239 33.8955 3.49426 32.5314 3.49426ZM33.3015 6.38764C32.9934 6.49765 32.5094 6.54166 31.7063 6.54166H30.8811V6.46465L30.8921 6.24462C30.9251 5.45252 31.5192 4.74842 32.3773 4.74842C32.7198 4.73216 33.0587 4.82458 33.3455 5.01246C33.4679 5.10634 33.5658 5.22837 33.6309 5.36819C33.696 5.50801 33.7264 5.66148 33.7195 5.81557C33.7305 6.0796 33.6095 6.27763 33.3015 6.38764ZM35.9748 6.03559V10.2051H37.526V6.34363C37.526 5.82657 37.625 5.45252 37.8451 5.19948C38.0651 4.94645 38.3731 4.84744 38.7582 4.84744C38.8983 4.84615 39.0381 4.8572 39.1763 4.88044V3.64828C38.9325 3.53267 38.6649 3.47614 38.3952 3.48326C36.6569 3.49426 35.9748 4.72642 35.9748 6.03559ZM17.1513 10.2051V1.81104H15.6111V10.2051H17.1513ZM21.3209 3.49426C19.2526 3.49426 18.3615 4.90244 18.3505 6.28863V10.2051H19.8907V6.39864C19.8739 5.98484 19.998 5.5776 20.2427 5.24349C20.3575 5.10847 20.5011 5.00085 20.6629 4.92852C20.8247 4.85618 21.0007 4.82096 21.1778 4.82543C21.6179 4.82543 21.9809 4.95745 22.234 5.23249C22.487 5.50752 22.608 5.94758 22.608 6.51966V10.2051H24.1482V6.37664C24.1482 4.51739 22.8721 3.49426 21.3209 3.49426ZM26.8656 1.81104H25.3364V7.87284C25.3474 9.41304 26.1175 10.3152 27.7897 10.3262C28.5048 10.3262 28.9229 10.0951 29.0989 9.72108V8.76395C28.8239 8.88497 28.4498 8.93998 27.9878 8.93998C27.6357 8.93998 27.3497 8.85197 27.1516 8.64294C26.9536 8.43391 26.8546 8.11487 26.8546 7.66381V4.82543H28.1968C28.8569 4.82543 29.1319 4.40738 29.1319 4.09934V3.48326H26.8656V1.81104ZM56.0745 3.49426C54.0063 3.49426 53.1151 4.90244 53.1041 6.28863L53.1151 10.2051H54.6443V6.39864C54.6443 5.90358 54.7764 5.51853 54.9964 5.24349C55.1112 5.10847 55.2548 5.00085 55.4166 4.92852C55.5784 4.85618 55.7543 4.82096 55.9315 4.82543C56.3716 4.82543 56.7346 4.95745 56.9877 5.24349C57.2407 5.52953 57.3617 5.94758 57.3617 6.51966V10.2051H58.8909V6.37664C58.9019 4.51739 57.6367 3.49426 56.0745 3.49426ZM43.2578 3.49426C42.3887 3.49426 41.8496 4.01133 41.5306 4.48439L41.4096 4.66041V1.81104H39.8804V7.01472C39.8804 9.22602 41.2115 10.3262 42.9388 10.3262C44.908 10.3262 46.1512 8.77496 46.1512 6.79469C46.1512 4.84744 44.897 3.49426 43.2578 3.49426ZM43.1148 9.01699C42.6087 9.01699 42.1577 8.87397 41.8606 8.49992C41.5636 8.12587 41.4206 7.55379 41.4206 6.77269C41.4206 5.70555 42.0696 4.83644 42.9498 4.82543C43.4668 4.82543 43.8849 4.96845 44.1709 5.3315C44.457 5.69455 44.6 6.24462 44.6 7.06973C44.589 8.18088 43.9839 9.01699 43.1148 9.01699ZM49.3086 3.49426C48.3735 3.49426 47.7574 3.74729 47.3284 4.07734V5.15548C47.8675 4.89922 48.4587 4.7712 49.0556 4.78143C49.5617 4.78143 50.0017 4.85844 50.2547 5.05646C50.5078 5.25449 50.6288 5.59554 50.6288 6.0796V6.23362H49.9687C47.5044 6.24462 46.6903 7.11374 46.6903 8.26889C46.6903 9.45705 47.7464 10.3262 49.3196 10.3262H49.6607C51.1239 10.3262 52.136 9.38004 52.136 7.99385V6.45365C52.147 4.11034 50.7938 3.50526 49.3086 3.49426ZM50.6508 8.00485C50.6508 8.3569 50.5628 8.63194 50.3648 8.82996C50.1667 9.02799 49.8807 9.105 49.5066 9.105C49.1895 9.12128 48.8748 9.0407 48.6045 8.87397C48.4975 8.79892 48.4111 8.69807 48.3534 8.58076C48.2957 8.46345 48.2686 8.33348 48.2745 8.20288C48.2648 8.06379 48.2948 7.9248 48.361 7.80209C48.4272 7.67939 48.5269 7.57802 48.6485 7.50979C48.9126 7.35577 49.3416 7.28976 49.9797 7.28976H50.6508V8.00485ZM63.2915 6.72869L63.2585 6.68468L63.2915 6.64067C63.9626 5.79356 65.4258 4.14334 65.9649 3.64828H65.1178C64.5787 3.64828 64.2156 3.70329 63.8306 4.06633C63.0605 4.79243 62.4224 5.65054 61.7733 6.48665L61.6523 6.65168L61.6633 1.81104H60.1121V10.1941H61.6633V6.79469L61.7843 6.95972C62.5214 7.93885 63.2695 8.92898 64.1276 9.80909C64.4146 10.0791 64.79 10.2355 65.1838 10.2492C65.6128 10.2492 65.8549 10.1391 66.0199 9.94111C65.5798 9.42404 63.8196 7.36677 63.2915 6.72869Z" fill="#00A24F"/>
<path d="M1.59521 0.00683594C1.17112 0.0097407 0.765399 0.180248 0.466552 0.481157C0.167704 0.782066 -9.94746e-06 1.18895 4.42517e-10 1.61305L4.42517e-10 11.9984H10.3964C10.8222 11.9978 11.2304 11.8284 11.5315 11.5273C11.8326 11.2262 12.002 10.818 12.0026 10.3922V0.00683594H1.59521ZM9.1972 8.66499L2.80537 9.82014V3.37328L9.1972 2.21813V8.66499Z" fill="#0060A9"/>
</g>
<defs>
<clipPath id="clip0_1672_12108">
<rect width="66.0793" height="12" fill="white"/>
</clipPath>
</defs>
</svg>
