<svg width="68" height="12" viewBox="0 0 68 12" fill="none" xmlns="http://www.w3.org/2000/svg">
<path fill-rule="evenodd" clip-rule="evenodd" d="M2.40321 5.96252C2.0181 5.35139 1.93435 4.53872 1.93435 3.91497C1.93435 1.79208 3.83045 0 5.80687 0H11.9989L9.59564 2.42425H5.7648C4.22398 2.42463 2.36115 3.9861 2.40321 5.96252ZM4.76436 4.22474C4.92345 3.71419 5.42176 3.061 5.89101 2.71757C4.99458 2.71757 3.98572 3.14513 3.2155 4.22474H4.76436ZM6.00382 3.01931C5.65237 3.32947 5.26688 3.79795 5.07069 4.22474H6.92931C6.73236 3.79833 6.34725 3.32947 6.00382 3.01931ZM3.06062 4.5391C2.83001 4.95366 2.71719 5.42291 2.67512 5.89139H4.41252C4.41252 5.42291 4.49665 4.95366 4.65078 4.5391H3.06062ZM4.9529 4.5391C4.79839 4.95366 4.72688 5.42291 4.68519 5.89139H7.31442C7.27274 5.42291 7.20122 4.95366 7.04672 4.5391H4.9529ZM8.75046 4.22474C8.01313 3.14513 7.00427 2.71757 6.12085 2.71757C6.57709 3.061 7.04634 3.71419 7.24291 4.22474H8.75046ZM7.35611 4.5391C7.5152 4.95366 7.58595 5.42291 7.58595 5.89139H9.32335C9.29428 5.42291 9.17688 4.95366 8.93824 4.5391H7.35611ZM3.2155 7.78405C3.98572 8.90955 4.99458 9.29505 5.89101 9.29505C5.42176 8.93938 4.92345 8.2858 4.76436 7.78405H3.2155ZM6.00382 9.02314C6.34725 8.71298 6.73236 8.21046 6.92893 7.78405H5.0703C5.26688 8.21046 5.65199 8.71336 6.00382 9.02314ZM4.65116 7.51597C4.49704 7.04672 4.4129 6.58665 4.4129 6.1633H2.67551C2.71719 6.61954 2.83039 7.08955 3.061 7.51597H4.65116ZM7.04634 7.51597C7.20084 7.08955 7.27236 6.61954 7.31404 6.1633H4.68481C4.7265 6.61954 4.79801 7.08955 4.95252 7.51597H7.04634ZM7.24291 7.78405C7.04634 8.2858 6.57709 8.93938 6.12085 9.29505C7.00427 9.29505 8.01313 8.90955 8.75046 7.78405H7.24291ZM8.93862 7.51597C9.17726 7.08955 9.29467 6.61954 9.32373 6.1633H7.58595C7.58333 6.62368 7.5057 7.08056 7.35611 7.51597H8.93862ZM9.59564 6.00421C9.63771 8.05596 7.78291 9.6052 6.23367 9.6052H2.40321L0 12H6.19236C8.1684 12 10.0649 10.2209 10.0649 8.09879C10.0649 7.47428 9.98955 6.66237 9.59564 6.04666V6.00421ZM27.6981 9.28778C26.0889 9.28778 24.9373 8.32137 24.9373 6.80884C24.9373 5.31544 26.1309 4.32226 27.6981 4.32226C29.2653 4.32226 30.4585 5.30932 30.4585 6.80884C30.4585 8.32099 29.2971 9.28778 27.6981 9.28778ZM55.2077 4.43699V9.18758H53.6027L53.5782 8.70878H53.5438C53.3652 8.86863 52.9946 9.29199 51.9601 9.29199C50.812 9.29199 49.8066 8.29498 49.8066 6.8077C49.8066 5.42788 50.6985 4.32647 52.0653 4.32647C52.9954 4.32647 53.3755 4.73606 53.5181 4.86723H53.5606L53.577 4.43699H55.2077ZM42.8192 4.4389V9.1895H41.2133L41.1896 8.70992H41.1552C40.9766 8.87054 40.606 9.2939 39.5716 9.2939C38.4235 9.2939 37.4181 8.2969 37.4181 6.81038C37.4181 5.42979 38.3099 4.32838 39.6767 4.32838C40.6068 4.32838 40.9869 4.73835 41.1296 4.86914H41.172L41.1877 4.43852H42.8192V4.4389ZM35.021 4.44273H36.6769V9.19638H35.021V4.44273ZM43.885 9.18605V2.48696H45.5341V4.78271H45.552C45.6687 4.71005 46.2026 4.32685 46.9862 4.32685C48.2708 4.32685 49.215 5.35904 49.215 6.72548C49.215 8.43228 48.1687 9.29199 46.9762 9.29199C46.0748 9.29199 45.6167 8.87208 45.5039 8.7497H45.4771L45.4534 9.18605H43.885ZM27.6981 8.09841C28.3693 8.09841 28.764 7.51061 28.764 6.80846C28.764 6.09828 28.388 5.50934 27.6981 5.50934C26.9772 5.50934 26.6319 6.09828 26.6319 6.80846C26.6319 7.51061 27.0273 8.09841 27.6981 8.09841ZM34.2194 7.89534C34.1387 7.9179 33.9161 7.97527 33.7628 7.97527C33.4278 7.97527 33.0618 7.81847 33.0618 7.23717V5.63172H34.1005V4.43738H33.0618V2.90764H31.4089V4.43738H30.6865V5.63172H31.4089V7.51061C31.4089 8.54357 31.8885 9.28472 33.1111 9.28472C33.466 9.28472 33.7918 9.23692 34.0159 9.19523L34.2194 7.89534ZM15.4285 9.01358C15.8905 9.15316 16.5926 9.28243 17.3372 9.28243C18.7477 9.28243 20.1546 8.78259 20.1546 7.2345C20.1546 5.10931 17.2248 5.4034 17.2248 4.55669C17.2248 4.1234 17.6749 4.0297 18.1166 4.0297C18.7285 4.0297 19.5033 4.32341 19.6754 4.3934L19.8085 2.92982C19.381 2.78411 18.732 2.70151 18.122 2.70151C16.7299 2.70151 15.3562 3.24495 15.3562 4.624C15.3562 6.71171 18.2784 6.2765 18.2784 7.37217C18.2784 7.79285 17.8574 7.95347 17.3208 7.95347C16.5835 7.95347 15.8901 7.58442 15.5899 7.45095L15.4285 9.01358ZM51.5559 6.76372C51.5559 7.54962 51.9941 8.04028 52.5621 8.04028C53.0768 8.04028 53.5778 7.55918 53.5778 6.82873C53.5778 6.09216 53.1334 5.58888 52.5621 5.58888C51.9712 5.58888 51.5559 6.11702 51.5559 6.76372ZM39.1673 6.76678C39.1673 7.55192 39.6056 8.04258 40.1735 8.04258C40.6883 8.04258 41.1892 7.56148 41.1892 6.83103C41.1892 6.09523 40.7449 5.59194 40.1735 5.59194C39.5826 5.59194 39.1673 6.11894 39.1673 6.76678ZM24.5155 4.51233C24.392 4.47791 23.9384 4.32188 23.3369 4.32188C21.8484 4.32188 20.7325 5.25349 20.7325 6.8054C20.7325 8.21582 21.7341 9.28893 23.2707 9.28893C23.9247 9.28893 24.4061 9.11415 24.5155 9.08127L24.4352 7.69648C24.3079 7.75384 23.9782 7.94238 23.5984 7.94238C22.9319 7.94238 22.4446 7.47046 22.4446 6.8054C22.4446 6.10785 22.9659 5.6581 23.6176 5.6581C23.9851 5.6581 24.3125 5.82905 24.4352 5.88947L24.5155 4.51233ZM62.2483 9.19064H63.8962V6.99165H63.9142L65.3782 9.19064H67.2119L65.4455 6.67194L67.1672 4.44617H65.3357L63.9142 6.40461H63.8962V2.49308H62.2483V9.19064ZM56.2766 9.18988H57.884V6.73618C57.884 6.161 58.2649 5.76748 58.7525 5.76748C59.3089 5.76748 59.6248 6.12888 59.6248 6.73618V9.18988H61.233V6.32966C61.233 5.25272 60.54 4.33106 59.2676 4.33106C58.4183 4.33106 57.9762 4.79266 57.7746 4.97431H57.741L57.7245 4.44808H56.2762V9.18988H56.2766ZM35.8501 2.03646C35.604 2.03736 35.3683 2.13546 35.1942 2.30938C35.0202 2.4833 34.9219 2.71895 34.9208 2.96501C34.9221 3.21093 35.0205 3.44639 35.1945 3.62014C35.3685 3.7939 35.6042 3.89188 35.8501 3.89279C36.0958 3.89158 36.3311 3.79345 36.5048 3.61971C36.6785 3.44598 36.7767 3.2107 36.7779 2.96501C36.7769 2.71918 36.6788 2.4837 36.5051 2.3098C36.3313 2.13591 36.0959 2.03767 35.8501 2.03646ZM47.504 6.81076C47.504 6.17515 47.1418 5.61068 46.5112 5.61068C45.9555 5.61068 45.5088 6.0849 45.5088 6.81076C45.5088 7.51367 45.8748 8.01389 46.5112 8.01389C47.0848 8.01428 47.504 7.53662 47.504 6.81076Z" fill="#CC2229"/>
</svg>
