<?xml version="1.0" encoding="utf-8"?>
<!-- Generator: Adobe Illustrator 23.0.3, SVG Export Plug-In . SVG Version: 6.00 Build 0)  -->
<svg version="1.1" id="Capa_1" xmlns="http://www.w3.org/2000/svg" xmlns:xlink="http://www.w3.org/1999/xlink" x="0px" y="0px"
	 viewBox="0 0 1315 384" style="enable-background:new 0 0 1315 384;" xml:space="preserve">
<style type="text/css">
	.st0{fill:#545553;}
	.st1{fill:#3C3C38;}
	.st2{fill-rule:evenodd;clip-rule:evenodd;fill:#BB0043;}
	.st3{fill-rule:evenodd;clip-rule:evenodd;fill:#4E7BB8;}
	.st4{fill-rule:evenodd;clip-rule:evenodd;fill:#EDC832;}
	.st5{fill-rule:evenodd;clip-rule:evenodd;fill:#70A63B;}
</style>
<g>
	<g>
		<g>
			<path class="st0" d="M467.8,272c0,7.2-1.9,12.8-5.9,16.6c-3.9,3.8-9.6,5.8-17.1,5.8h-12.1v-44h13.5c6.9,0,12.1,1.8,16.1,5.6
				C465.9,259.9,467.8,265.1,467.8,272z M462.4,272.2c0-5.8-1.5-10.1-4.4-13.1c-2.8-2.9-7.2-4.3-12.7-4.3h-7.6V290h6.2
				c6.2,0,10.8-1.5,13.8-4.5C460.9,282.4,462.4,278,462.4,272.2z"/>
			<path class="st0" d="M526.8,294.4h-24.6v-44h24.6v4.6h-19.5v14.1h18.3v4.5h-18.3v16.2h19.5V294.4z"/>
			<path class="st0" d="M626.7,282.6c0,3.9-1.5,6.9-4.3,9c-2.8,2.3-6.6,3.4-11.4,3.4c-5.2,0-9.2-0.7-12.1-2v-5
				c1.9,0.8,3.8,1.4,6,1.9c2.1,0.5,4.2,0.6,6.2,0.6c3.6,0,6-0.6,7.8-1.8c1.7-1.4,2.6-3.2,2.6-5.5c0-1.5-0.3-2.8-1-3.7
				c-0.5-1-1.6-1.9-3-2.6c-1.4-0.9-3.6-1.9-6.6-2.9c-4-1.5-7-3.2-8.7-5.2c-1.8-2-2.6-4.6-2.6-7.9c0-3.3,1.2-6,3.8-8.1
				c2.6-2,6-3,10.1-3c4.4,0,8.4,0.8,12.1,2.5l-1.6,4.3c-3.6-1.5-7.1-2.2-10.6-2.2c-2.7,0-4.8,0.5-6.4,1.6c-1.5,1.2-2.3,2.8-2.3,4.9
				c0,1.5,0.4,2.7,0.9,3.7c0.6,1,1.5,1.9,2.8,2.7c1.3,0.7,3.3,1.7,6.1,2.7c4.6,1.6,7.8,3.4,9.4,5.3
				C625.7,277.2,626.7,279.6,626.7,282.6z"/>
			<path class="st0" d="M687.9,294.4l-5.5-14h-17.6l-5.5,14h-5.1l17.3-44.2h4.3l17.3,44.2H687.9z M680.9,275.7l-5.2-13.6
				c-0.6-1.7-1.3-3.7-2-6.3c-0.5,1.8-1,4.1-1.9,6.3l-5.1,13.6H680.9z"/>
			<path class="st0" d="M758.3,294.4h-5.9l-24-36.9h-0.2c0.3,4.3,0.5,8.2,0.5,11.9v25h-4.7v-44h5.7l24,36.7h0.3
				c-0.1-0.6-0.1-2.2-0.3-5.2c-0.2-2.9-0.2-5.1-0.2-6.3v-25.2h4.9V294.4z"/>
			<path class="st0" d="M863.3,294.4l-5.5-14h-17.6l-5.4,14h-5.2l17.3-44.2h4.3l17.3,44.2H863.3z M856.2,275.7l-5.2-13.6
				c-0.6-1.7-1.3-3.7-2-6.3c-0.3,1.8-1.1,4.1-1.9,6.3l-5.2,13.6H856.2z"/>
			<path class="st0" d="M933.6,294.4h-5.9l-24-36.9h-0.3c0.3,4.3,0.5,8.2,0.5,11.9v25h-4.7v-44h5.7l24,36.7h0.3
				c0-0.6-0.1-2.2-0.3-5.2c-0.2-2.9-0.2-5.1-0.2-6.3v-25.2h4.8V294.4z"/>
			<path class="st0" d="M983.9,294.4h-5.2V255h-13.9v-4.6h33.1v4.6h-13.9V294.4z"/>
			<path class="st0" d="M1067.2,272.3c0,7.1-1.8,12.6-5.4,16.6c-3.6,4.1-8.5,6.1-14.8,6.1c-6.5,0-11.5-2-15.1-6
				c-3.5-4-5.2-9.5-5.2-16.8c0-7.2,1.8-12.7,5.2-16.7c3.6-3.8,8.6-5.9,15.1-5.9c6.2,0,11.2,2.1,14.8,6.1
				C1065.5,259.8,1067.2,265.3,1067.2,272.3z M1032.2,272.3c0,6,1.2,10.5,3.8,13.5c2.5,3.2,6.2,4.6,11,4.6c4.8,0,8.5-1.5,11-4.5
				c2.5-3.1,3.7-7.6,3.7-13.6c0-5.9-1.3-10.5-3.7-13.4c-2.5-3.1-6.1-4.7-11-4.7c-4.9,0-8.6,1.6-11.1,4.7
				C1033.4,261.9,1032.2,266.4,1032.2,272.3z"/>
			<path class="st0" d="M1136,294.4h-5.8l-24.1-36.9h-0.2c0.3,4.3,0.4,8.2,0.4,11.9v25h-4.7v-44h5.8l24,36.7h0.3
				c-0.1-0.6-0.2-2.2-0.3-5.2c-0.1-2.9-0.1-5.1-0.1-6.3v-25.2h4.8V294.4z"/>
			<path class="st0" d="M1172.8,294.4v-44h5.1v44H1172.8z"/>
			<path class="st0" d="M1252.7,272.3c0,7.1-1.6,12.6-5.2,16.6c-3.6,4.1-8.5,6.1-14.9,6.1c-6.5,0-11.5-2-15-6
				c-3.4-4-5.2-9.5-5.2-16.8c0-7.2,1.8-12.7,5.2-16.7c3.5-3.8,8.6-5.9,15.1-5.9c6.4,0,11.3,2.1,14.8,6.1
				C1251,259.8,1252.7,265.3,1252.7,272.3z M1217.8,272.3c0,6,1.2,10.5,3.8,13.5c2.5,3.2,6.1,4.6,11,4.6c5,0,8.6-1.5,11.1-4.5
				c2.5-3.1,3.8-7.6,3.8-13.6c0-5.9-1.3-10.5-3.7-13.4c-2.5-3.1-6.2-4.7-11-4.7s-8.6,1.6-11.1,4.7
				C1218.9,261.9,1217.8,266.4,1217.8,272.3z"/>
		</g>
		<g>
			<path class="st1" d="M411.2,100.3h73.1c3.4,0,5.9,0.5,7.4,1.6c1.5,1,2.2,3.2,2.2,6.5c0,4-1.3,8.1-3.9,12.2
				c-11.3-4.5-25.7-6.8-43.2-6.8h-3.8c-0.3,5.3-0.5,15.9-0.5,32h40.5c0.9,2.8,1.4,5.7,1.4,8.7c0,1.8-0.4,3.1-1.1,3.7
				c-0.6,0.6-1.9,0.9-3.7,0.9h-37.2c0.1,20.6,0.3,33,0.5,37.3h6.7c17.9,0,32.3-2.2,42.8-6.4c2.3,3.5,3.5,7.3,3.5,11.5
				c0,2.9-1.1,5-3.3,6.3c-2.3,1.2-6.6,1.9-13.4,1.9l-71.3,0.1c-0.9-2.4-1.4-4.7-1.4-6.8c0-1.4,0.4-2.6,1.2-3.2
				c0.7-0.6,1.9-0.9,3.4-0.9h5.9c0.3-6.8,0.4-24.8,0.4-53.9c0-15.7-0.1-26.9-0.4-33.8H408c-0.9-2.3-1.4-4.5-1.4-6.7
				c0-1.6,0.4-2.6,1.2-3.2C408.5,100.7,409.6,100.3,411.2,100.3z"/>
			<path class="st1" d="M508.1,171.1c0-24.2-0.1-39.4-0.3-45.7c-0.3-6.2-0.6-10.4-1.2-12.6c-0.6-2.4-1.6-3.7-3.1-4.4
				c-1.5-0.7-3.3-1-5.7-1c-0.9-2.2-1.4-4.4-1.4-6.6c0-2.3,0.8-3.8,2.5-4.4c1.8-0.6,7.1-0.8,16.2-0.8c5.7,0,9.6,0.1,11.7,0.7
				c2.1,0.4,3.3,1.4,3.6,2.5c0.3,1.4,0.5,3,0.5,5.3v61.6c0,15.3,0.1,26.5,0.3,33.3h10.3c0.9,1.7,1.4,3.7,1.4,5.9
				c0,1.9-0.5,3.3-1.3,4c-0.7,0.8-2.3,1.1-4.5,1.1h-39.2c-0.9-2.2-1.4-4.3-1.4-6.2c0-1.7,0.4-3,1.1-3.7c0.8-0.6,1.9-1,3.6-1h6.5
				C507.9,192,508.1,182.7,508.1,171.1z"/>
			<path class="st1" d="M581.1,100.3h38.7c16.1,0,28.2,2.2,36.1,6.4c7.9,4.2,11.9,10.6,11.9,19.2c0,11.9-7.6,21-22.3,27.1
				c18.5,3.4,27.8,11.8,27.8,25.3c0,9.1-4.1,16.7-12.6,22.6c-8.3,5.9-23.2,8.9-44.3,8.9l-38.5,0.1c-1-2.4-1.5-4.7-1.5-6.8
				c0-1.4,0.4-2.6,1.2-3.2c0.8-0.6,1.9-0.9,3.6-0.9h5.8c0.4-6.8,0.5-22,0.5-45.6c0-21.2-0.1-35.1-0.5-42.1h-9.1
				c-1-2.3-1.5-4.5-1.5-6.7c0-1.6,0.4-2.6,1.2-3.2C578.3,100.7,579.5,100.3,581.1,100.3z M612.1,145.9c2.7,0.6,5.9,0.9,9.8,0.9
				c6.3,0,11.1-1.3,13.9-3.6c2.7-2.4,4.2-6.3,4.2-11.3c0-5.6-1.7-9.7-4.6-12.2c-3-2.7-7.5-4.1-13.5-4.1c-3.2,0-6.4,0.3-9.6,0.9
				C612.2,121.7,612.1,131.5,612.1,145.9z M612.1,160.7v18.8c0,6.1,0.7,10.2,2.1,12.1c1.6,1.9,5.6,2.9,12,2.9
				c6.7,0,11.7-1.2,14.7-3.8c3.1-2.5,4.6-6.6,4.6-12.3c0-6-1.8-10.6-5.6-13.7c-3.8-3.2-9.4-4.8-17.2-4.8
				C619.3,159.9,615.8,160.1,612.1,160.7z"/>
			<path class="st1" d="M712.5,211.5c-11.9,0-21-3.2-27-9.5c-6.1-6.3-9.2-15.2-9.2-27.1c0-14.9,3.8-26.4,11.1-34.5
				c7.3-8.2,17.8-12.3,31-12.3c12.1,0,21,3.1,27.1,9.4c6,6.3,9,15.4,9,27.2c0,14.9-3.6,26.4-11,34.5
				C736.2,207.3,725.8,211.5,712.5,211.5z M716.2,197.6c4.3,0,7.6-1.8,9.7-5.2c2.1-3.5,3.2-10.1,3.2-20.1c0-10.8-1.1-18.6-3.5-23.2
				c-2.4-4.7-5.9-7.1-11-7.1c-4.4,0-7.6,1.9-9.8,5.2c-2.1,3.6-3.2,10.4-3.2,20.2c0,10.9,1.2,18.6,3.5,23.3
				C707.5,195.2,711.3,197.6,716.2,197.6z"/>
			<path class="st1" d="M832.7,174.4c0,10.7,0.4,17.3,1.2,19.8c0.8,2.5,2.7,3.7,5.9,3.4c0.7,1.8,1.1,3.5,1.1,5c0,2.6-2,4.6-6,6
				c-3.8,1.3-7.4,1.9-10.7,1.9c-2.6,0-4.3-0.4-5.3-1c-1.1-0.8-2.6-2.7-4.7-5.7c-5,2.3-9.8,4.3-14.3,5.6c-4.6,1.4-9.5,2.1-14.7,2.1
				c-6.8,0-12.2-1.9-16.1-5.4c-3.9-3.7-5.9-11-5.9-22.1c0-16.5-0.2-26.7-0.3-30.5c-0.2-4-0.6-6.9-1.3-8.6c-0.6-1.8-1.5-3-2.5-3.4
				c-1.1-0.4-2.7-0.7-4.7-0.7c-1-1.5-1.5-3.3-1.5-5.2c0-2.4,1.5-4.1,4.5-5.1c3-0.9,7.7-1.4,14.2-1.4c4.7,0,7.9,0.3,9.9,0.8
				c2,0.6,3.1,1.4,3.6,2.6c0.5,1.1,0.7,4.8,0.7,11.2v28.5c0,10.5,1,17.3,3,20.5c2,3.3,4.8,4.8,8.4,4.8c2.7,0,5.3-0.6,7.5-1.8
				c2.3-1.1,3.8-2.9,4.4-4.7c0.6-2,0.9-5.6,0.9-10.7c0-14-0.1-23.1-0.1-26.8c-0.1-4-0.4-6.8-0.8-8.5c-0.7-1.9-1.3-3.1-2.1-3.5
				c-0.8-0.4-2.3-0.7-4.2-0.7c-1.1-1.5-1.5-3.3-1.5-5.2c0-2.4,1.5-4.1,4.5-5.1c3-0.9,7.2-1.4,12.7-1.4c4.7,0,8,0.3,9.9,0.8
				c2,0.6,3.1,1.7,3.6,3c0.4,1.4,0.6,5.2,0.6,11.7V174.4z"/>
			<path class="st1" d="M854,171.1c0-24.2-0.1-39.4-0.3-45.7c-0.3-6.2-0.6-10.4-1.2-12.6c-0.7-2.4-1.7-3.7-3.2-4.4
				c-1.4-0.7-3.3-1-5.7-1c-0.9-2.2-1.4-4.4-1.4-6.6c0-2.3,0.8-3.8,2.5-4.4c1.7-0.6,7.2-0.8,16.3-0.8c5.7,0,9.6,0.1,11.6,0.7
				c2.1,0.4,3.3,1.4,3.6,2.5c0.3,1.4,0.4,3,0.4,5.3v61.6c0,15.3,0.1,26.5,0.5,33.3h10.2c0.9,1.7,1.4,3.7,1.4,5.9
				c0,1.9-0.4,3.3-1.2,4c-0.7,0.8-2.3,1.1-4.5,1.1h-39.3c-0.9-2.2-1.4-4.3-1.4-6.2c0-1.7,0.3-3,1.2-3.7c0.7-0.6,1.9-1,3.5-1h6.6
				C853.7,192,854,182.7,854,171.1z"/>
			<path class="st1" d="M929.2,128.2c11.1,0,19.2,2.5,24.2,7.7c5.1,5,7.6,13,7.6,23.8c0,5.4-1.1,9.4-3.2,11.6
				c-2.1,2.3-6.8,3.4-14,3.4h-29.8c0.2,7,1.7,12.6,4.7,16.5c3,3.9,8.3,5.9,15.8,5.9c7.4,0,15-2.2,22.7-6.4c2.8,2.7,4.2,5.7,4.2,8.8
				c0,4.3-3.1,7.2-9.5,9c-6.2,1.6-13.5,2.5-22,2.5c-14.7,0-25.1-3-31.8-8.8c-6.6-5.9-9.9-15.5-9.9-29.2c0-14.1,3.6-25,11-33
				C906.8,132.1,916.7,128.2,929.2,128.2z M926,141.9c-4,0-7,1.7-9.1,5c-2,3.2-3.2,8.7-3.3,16.7h4.4c6,0,10.5-0.2,13.5-0.5
				c3.1-0.4,5-1,5.6-1.8c0.4-0.8,0.7-2.2,0.7-4.1c0-4.8-1-8.5-3.1-11.3C932.6,143.4,929.7,141.9,926,141.9z"/>
			<path class="st1" d="M1023.7,142.4h-4.3c-0.9-1.9-1.4-3.8-1.4-5.9c0-2.1,0.4-3.7,1.2-4.5c0.8-1,2.1-1.5,4-1.5h24.4
				c0.9,1.9,1.5,3.7,1.5,5.8c0,2.4-0.5,4-1.4,4.9c-0.9,0.8-2.5,1.3-4.8,1.3h-0.5c-1.8,4-5.9,15.2-12.3,33.5
				c-6.3,18.4-10.7,29-12.9,31.6c-2.2,2.6-6.1,4-11.5,4c-8.7,0-13.3-0.6-14-1.4c-0.6-0.9-3.5-9.6-8.6-26.2
				c-5.1-16.7-8.3-26.9-9.5-30.7c-1.3-3.8-2.4-6.6-3.2-8.4c-0.8-1.8-1.7-3-2.7-3.4c-1-0.4-3-0.7-5.5-0.7c-1-2.4-1.4-4.7-1.4-6.7
				c0-2,1-3.2,3-4c2-0.7,8-1.1,18.4-1.1c4,0,6.7,0.4,8.3,1c1.6,0.6,2.8,1.7,3.5,3.5c0.7,1.6,1.7,5.6,2.6,11.8
				c1.1,6.3,3.2,15.8,6.7,28.8c3.4,12.8,5.5,19.4,6.3,19.4c0.7,0,3.1-7.3,7.1-22C1020.6,156.9,1023.1,147.1,1023.7,142.4z"/>
			<path class="st1" d="M1100.1,203.8c-4,1.9-8.6,3.7-13.6,5.3c-5.2,1.5-10.1,2.4-14.6,2.4c-7.7,0-13.3-1.8-17.1-5.4
				c-3.6-3.7-5.4-8.7-5.4-15.1c0-9.1,3.1-15.8,9.3-20.2c6.2-4.3,16-6.6,29.4-6.6h8.7c-0.5-8.2-1.8-13.8-4.1-16.8
				c-2.3-3-5.6-4.5-10.1-4.5c-2.5,0-5.2,0.3-8,1c-1.9,3.5-3,5.3-3.3,5.6c-0.5,0.2-2.2,0.7-5.6,1.4c-3.4,0.8-5.8,0.6-7-0.6
				c-1.4-1.3-2.8-3.5-4.3-6.5c-1.5-3.1-2.1-5.8-2.1-7.8c0-1.4,0.6-2.4,1.6-3.2c1.1-0.7,5.2-1.5,12.2-2.4c6.9-0.8,14.4-1.3,22.3-1.3
				c9.4,0,16.8,1.6,22.2,5c5.3,3.1,8,9.4,8,18.7v21.1c0,11.8,0.5,19,1.5,21.9c0.9,2.6,2.8,3.7,5.5,3.1c0.7,1.5,1.1,3,1.1,4.3
				c0,2.5-1.5,4.3-4.3,5.6c-2.8,1.1-6.8,1.7-11.7,1.7c-2,0-3.8-0.1-5-0.8C1104.6,209.3,1102.7,207.2,1100.1,203.8z M1096.8,177.1
				c-3.9-0.8-7.8-1.3-11.7-1.3c-4.5,0-7.7,0.8-9.7,2.3c-1.9,1.5-2.8,4.4-2.8,8.5c0,3.6,1,6.3,2.8,8.3c1.9,1.8,4.6,2.7,8.3,2.7
				c3,0,5.4-0.7,7.7-1.8c2.2-1.3,3.6-3.1,4.4-5.3c0.7-2.4,1.1-5.3,1.1-8.8V177.1z"/>
			<path class="st1" d="M1130,134.5c0-2,0.6-3.2,2-3.8c1.5-0.6,10.2-1.1,26.5-1.6c0.4,2.2,0.4,5.3,0,9.3c6.8-4,12.9-6.7,18.3-8
				c5.4-1.5,10.3-2.1,14.5-2.1c1.9,0,3.2,0.3,3.8,0.6c0.7,0.6,1,1.6,1,3.2c0,3-0.4,6-1.4,9.2c-0.8,3.2-1.9,5.2-3.2,6.1
				c-1.4,1-3.4,1.6-6.3,2c-2.8,0.4-4.4,0.6-4.9,0.4c-0.5-0.3-2-2-4.6-5.5c-3.9,0-7,1.5-9.1,4.3c-2.1,2.8-3.2,10.1-3.2,22.1
				c0,10.9,0.1,20.2,0.5,28.1h12.5c0.9,1.7,1.6,3.7,1.6,5.9c0,1.9-0.4,3.3-1.2,4c-0.8,0.8-2.2,1.1-4.5,1.1h-41
				c-0.9-2.2-1.3-4.3-1.3-6.2c0-1.7,0.3-3,1.1-3.7c0.8-0.6,1.9-1,3.6-1h5.9c0.2-7.8,0.4-17,0.4-27.4c0-14.9-0.8-23.8-2.2-26.5
				c-1.4-2.8-3.8-4.2-7.5-4.2C1130.4,138.7,1130,136.6,1130,134.5z"/>
			<path class="st1" d="M1252.3,203.8c-5.7,2.8-10.7,4.9-14.8,5.9c-4.3,1.2-8.5,1.8-12.7,1.8c-9,0-16.1-2.8-21-8.3
				c-4.9-5.3-7.4-14.9-7.4-28.1c0-16,3.7-27.8,11.2-35.4c7.3-7.6,17.6-11.6,30.3-11.6c2.3,0,4.3,0.1,5.7,0.1
				c1.4,0.2,2.9,0.2,4.5,0.5c0-2.2-0.1-4.8-0.3-8c-0.3-3.1-0.5-5.9-1.2-8.1c-0.6-2.4-1.7-3.7-3.1-4.4c-1.5-0.7-3.5-1-5.8-1
				c-1-2.2-1.4-4.4-1.4-6.6c0-2.3,0.8-3.8,2.6-4.4c1.6-0.6,7-0.8,16-0.8c5.7,0,9.7,0.1,11.6,0.7c2.2,0.4,3.2,1.4,3.6,2.5
				c0.3,1.4,0.5,3,0.5,5.3v56.9c0,18.8,0.5,29.8,1.5,33.4c1,3.6,2.7,5.1,5.1,4.6c1,1.6,1.5,3.2,1.5,4.7c0,1.9-2.3,3.7-7,5.4
				c-4.6,1.6-8.3,2.6-11,2.6c-1.6,0-3-0.6-4-1.4C1255.9,209.3,1254.3,207.1,1252.3,203.8z M1235.8,141.9c-4.5,0-8,1.9-10.3,5.2
				c-2.5,3.5-3.7,11-3.7,22.5c0,9.3,1.1,16.5,3.2,21c2.1,4.6,5.6,6.9,10.4,6.9c3.1,0,5.5-0.6,7.6-1.8c2-1.1,3.4-2.9,4.2-4.7
				c0.6-2,1.1-6.3,1.1-13.2v-32.3c-1.8-1-3.7-1.9-5.8-2.6C1240.3,142.4,1238.1,141.9,1235.8,141.9z"/>
		</g>
	</g>
	<g>
		<path class="st2" d="M177.2,344.2l71.5-71.4l-46.2-46.3c-13.8-13.8-36.4-13.8-50.4,0l-46.3,46.3L177.2,344.2z"/>
		<path class="st3" d="M326.1,195.2l-71.4,71.4l-46.1-46.2c-13.8-13.9-13.8-36.5,0-50.3l46.1-46.3L326.1,195.2z"/>
		<path class="st4" d="M177.2,46.2l71.5,71.4l-46.2,46.2c-13.8,13.8-36.4,13.8-50.4,0l-46.3-46.2L177.2,46.2z"/>
		<path class="st5" d="M28.2,195.2l71.4,71.4l46.1-46.2c13.9-13.9,13.9-36.4,0-50.3l-46.1-46.3L28.2,195.2z"/>
	</g>
</g>
</svg>
