<svg width="62" height="36" viewBox="0 0 62 36" fill="none" xmlns="http://www.w3.org/2000/svg">
<rect width="62" height="36" rx="5" fill="#FAFAFA"/>
<path d="M42.9999 10.6667V20.6667H40.3333V12L33.6666 7.33333L26.9999 12V14H24.3333V10.6667L33.6666 4L42.9999 10.6667ZM35.6666 11.3333H34.3333V12.6667H35.6666V11.3333ZM32.9999 11.3333H31.6666V12.6667H32.9999V11.3333ZM35.6666 14H34.3333V15.3333H35.6666V14ZM32.9999 14H31.6666V15.3333H32.9999V14ZM40.3333 23.3333H37.6666C37.6666 21.7333 36.6666 20.2933 35.1733 19.7333L26.9599 16.6667H16.3333V31.3333H24.3333V29.4133L33.6666 32L44.3333 28.6667V27.3333C44.3333 25.12 42.5466 23.3333 40.3333 23.3333ZM18.9999 28.6667V19.3333H21.6666V28.6667H18.9999ZM33.6266 29.2133L24.3333 26.64V19.3333H26.4799L34.2399 22.2267C34.6933 22.4 34.9999 22.84 34.9999 23.3333C34.9999 23.3333 32.3466 23.2667 31.9333 23.1333L28.7599 22.08L27.9199 24.6133L31.0933 25.6667C31.7733 25.8933 32.4799 26.0133 33.1999 26.0133H40.3333C40.8533 26.0133 41.3199 26.32 41.5333 26.76L33.6266 29.2133Z" fill="#D9D9D9"/>
</svg>
