<?xml version="1.0" encoding="utf-8"?>
<!-- Generator: Adobe Illustrator 23.0.3, SVG Export Plug-In . SVG Version: 6.00 Build 0)  -->
<svg version="1.1" id="Capa_1" xmlns="http://www.w3.org/2000/svg" xmlns:xlink="http://www.w3.org/1999/xlink" x="0px" y="0px"
	 viewBox="0 0 1066 377" style="enable-background:new 0 0 1066 377;" xml:space="preserve">
<style type="text/css">
	.st0{fill-rule:evenodd;clip-rule:evenodd;fill:#70A63B;}
	.st1{fill:#191C16;}
</style>
<g>
	<g>
		<path class="st0" d="M28.2,182.2"/>
	</g>
</g>
<g>
	<g>
		<g>
			<path class="st1" d="M105.3,203.4c0,11.8-4.2,21-12.7,27.8c-8.3,6.7-20.1,10.1-35.1,10.1c-13.9,0-26-2.6-36.7-7.9v-25.5
				c8.8,3.9,16.1,6.7,22.2,8.3c6.1,1.6,11.6,2.4,16.7,2.4c6.1,0,10.6-1.1,13.8-3.5c3.3-2.3,4.9-5.7,4.9-10.2c0-2.6-0.7-4.8-2.1-6.8
				c-1.5-1.9-3.6-3.9-6.3-5.8c-2.7-1.8-8.3-4.7-16.8-8.7c-7.9-3.7-13.9-7.3-17.8-10.8c-4-3.4-7.2-7.4-9.5-11.9
				c-2.4-4.6-3.5-10-3.5-16c0-11.5,3.8-20.5,11.6-27.1c7.8-6.5,18.6-9.8,32.3-9.8c6.7,0,13.3,0.7,19.3,2.4
				c6.1,1.7,12.6,3.8,19.2,6.7l-8.8,21.5c-6.9-2.9-12.6-4.9-17.2-6c-4.5-1.2-8.9-1.7-13.3-1.7c-5.2,0-9.2,1.2-12,3.6
				c-2.7,2.4-4.2,5.5-4.2,9.5c0,2.5,0.6,4.5,1.8,6.3c1.1,1.9,2.9,3.6,5.3,5.2c2.5,1.8,8.4,4.7,17.5,9.2
				c12.1,5.7,20.4,11.6,24.8,17.4C103.2,187.8,105.3,194.9,105.3,203.4z"/>
			<path class="st1" d="M179.6,239.4l-6.6-21.6h-33.1l-6.5,21.6h-20.8l32-91.1h23.6l32.1,91.1H179.6z M168.4,201.7
				c-6.1-19.6-9.5-30.7-10.3-33.2c-0.8-2.6-1.3-4.6-1.6-6.1c-1.4,5.3-5.3,18.4-11.8,39.3H168.4z"/>
			<path class="st1" d="M292.3,239.4h-24.4l-39.5-68.6h-0.6c0.9,12.1,1.2,20.8,1.2,25.9v42.7h-17.2v-90.7H236l39.5,68h0.4
				c-0.6-11.8-0.9-20.1-0.9-25.1v-43h17.3V239.4z"/>
			<path class="st1" d="M446.7,239.4l-9.4-30.8H390l-9.4,30.8H351l45.8-130.1h33.6l45.9,130.1H446.7z M430.7,185.5
				c-8.7-28-13.6-43.8-14.7-47.5c-1.1-3.6-2-6.5-2.4-8.6c-2,7.5-7.5,26.2-16.7,56.1H430.7z"/>
			<path class="st1" d="M568.3,239.4h-24.5l-39.5-68.6h-0.5c0.7,12.1,1.1,20.8,1.1,25.9v42.7h-17.1v-90.7h24.3l39.4,68h0.5
				c-0.6-11.8-1-20.1-1-25.1v-43h17.4V239.4z"/>
			<path class="st1" d="M626.3,239.4H607v-74.7h-24.7v-16.1h68.7v16.1h-24.6V239.4z"/>
			<path class="st1" d="M747.3,194c0,14.9-3.8,26.5-11.1,34.6c-7.5,8.2-18.2,12.1-32.1,12.1c-13.9,0-24.6-4-32-12.1
				c-7.4-8-11.2-19.7-11.2-34.7c0-15.1,3.8-26.6,11.2-34.7c7.5-8,18.2-11.9,32.1-11.9c14,0,24.7,3.9,32.1,12
				C743.7,167.3,747.3,178.8,747.3,194z M681,194c0,10.1,1.9,17.7,5.7,22.9c3.8,5.1,9.6,7.6,17.3,7.6c15.3,0,23.1-10.2,23.1-30.5
				c0-20.6-7.7-30.7-23-30.7c-7.6,0-13.4,2.5-17.2,7.7C682.9,176.1,681,183.8,681,194z"/>
			<path class="st1" d="M846.7,239.4h-24.5l-39.5-68.6h-0.5c0.8,12.1,1.2,20.8,1.2,25.9v42.7h-17.3v-90.7h24.3l39.5,68h0.4
				c-0.6-11.8-1-20.1-1-25.1v-43h17.3V239.4z"/>
			<path class="st1" d="M869.6,239.4v-90.7h19.2v90.7H869.6z"/>
			<path class="st1" d="M994,194c0,14.9-3.7,26.5-11.2,34.6c-7.4,8.2-18,12.1-32,12.1c-14,0-24.6-4-32-12.1
				c-7.6-8-11.3-19.7-11.3-34.7c0-15.1,3.7-26.6,11.3-34.7c7.5-8,18.2-11.9,32.1-11.9c14,0,24.7,3.9,32,12
				C990.4,167.3,994,178.8,994,194z M927.8,194c0,10.1,1.9,17.7,5.8,22.9c3.8,5.1,9.6,7.6,17.2,7.6c15.3,0,23-10.2,23-30.5
				c0-20.6-7.6-30.7-22.9-30.7c-7.6,0-13.4,2.5-17.2,7.7C929.8,176.1,927.8,183.8,927.8,194z"/>
		</g>
		<g>
			<path class="st1" d="M51.4,25v30.2c0,5.4-1.6,9.4-4.8,12.5c-3.3,3-7.6,4.5-13.2,4.5c-5.6,0-10-1.5-13-4.5
				c-3-3.1-4.7-7.2-4.7-12.7V25h5.5v30.5c0,3.9,1,6.9,3.1,9c2.2,2.1,5.3,3.1,9.5,3.1c3.9,0,6.9-1.1,9.1-3.2c2.2-2,3.2-5.1,3.2-9V25
				H51.4z"/>
			<path class="st1" d="M68.8,52.3v19.3h-5.4V25h12.8c5.7,0,10,1.1,12.7,3.3c2.7,2.2,4.1,5.4,4.1,9.9c0,6.1-3.1,10.3-9.4,12.4
				l12.7,21h-6.5L78.6,52.3H68.8z M68.8,47.6h7.5c3.9,0,6.6-0.7,8.4-2.3c1.8-1.6,2.6-3.9,2.6-6.8c0-3.1-0.9-5.4-2.6-6.6
				c-1.9-1.4-4.8-2.2-8.8-2.2h-7.1V47.6z"/>
			<path class="st1" d="M103.5,25h13.1c6.2,0,10.7,1,13.5,2.7c2.8,2,4.1,4.8,4.1,8.9c0,2.7-0.8,4.9-2.2,6.7c-1.6,1.9-3.9,3-6.8,3.6
				v0.3c7,1.2,10.6,5,10.6,11.2c0,4.2-1.4,7.4-4.2,9.7c-2.8,2.4-6.8,3.5-11.8,3.5h-16.3V25z M109,45.1h8.9c3.9,0,6.6-0.7,8.3-1.9
				c1.7-1.2,2.6-3.2,2.6-6.1c0-2.6-1-4.6-2.8-5.7c-1.9-1.1-4.9-1.7-9-1.7H109V45.1z M109,49.6v17.5h9.7c3.8,0,6.6-0.9,8.5-2.2
				c2-1.5,2.8-3.8,2.8-6.9c0-2.7-1-5-2.9-6.3c-1.9-1.5-5-2.1-9-2.1H109z"/>
			<path class="st1" d="M174.8,71.7L169,56.8h-18.7l-5.7,14.8h-5.5l18.4-46.8h4.6l18.3,46.8H174.8z M167.4,52L162,37.5
				c-0.7-1.8-1.4-4-2.1-6.7c-0.5,2.1-1.2,4.2-2.1,6.7L152.2,52H167.4z"/>
			<path class="st1" d="M223,71.7h-6.2l-25.5-39.1h-0.2c0.3,4.6,0.5,8.7,0.5,12.6v26.5h-5V25h6.2l25.4,39h0.3c0-0.6-0.2-2.4-0.3-5.5
				c-0.1-3.1-0.2-5.4-0.2-6.7V25h5.1V71.7z"/>
			<path class="st1" d="M235.5,71.7V25h5.4v46.6H235.5z"/>
			<path class="st1" d="M281.6,71.7h-32v-4.2l24.8-37.6h-24V25H281v4.3l-24.7,37.4h25.4V71.7z"/>
			<path class="st1" d="M319.7,71.7l-5.9-14.8h-18.7l-5.8,14.8H284l18.4-46.8h4.6l18.3,46.8H319.7z M312.2,52l-5.4-14.5
				c-0.7-1.8-1.5-4-2.2-6.7c-0.4,2.1-1.2,4.2-2.1,6.7L297.2,52H312.2z"/>
			<path class="st1" d="M351.4,29.3c-5.1,0-9.2,1.7-12.1,5.1c-3,3.4-4.5,8-4.5,14c0,6.1,1.4,10.8,4.4,14.2c2.7,3.3,6.9,5,12.1,5
				c3.3,0,7-0.6,11.2-1.8v4.8c-3.3,1.1-7.1,1.8-11.9,1.8c-6.9,0-12.2-2-16-6.3c-3.7-4.1-5.5-10.1-5.5-17.8c0-4.8,0.8-9,2.6-12.6
				c1.9-3.6,4.5-6.3,7.8-8.3c3.4-2,7.4-2.9,11.9-2.9c5,0,9.3,0.9,12.9,2.7l-2.3,4.7C358.4,30.1,355,29.3,351.4,29.3z"/>
			<path class="st1" d="M372.3,71.7V25h5.4v46.6H372.3z"/>
			<path class="st1" d="M430.7,48.3c0,7.6-1.9,13.4-5.7,17.7c-3.8,4.2-9,6.3-15.7,6.3c-6.9,0-12.2-2-15.9-6.3
				c-3.7-4.1-5.5-10.1-5.5-17.8c0-7.5,1.8-13.5,5.5-17.6c3.8-4.1,9.1-6.3,16-6.3c6.6,0,12,2.2,15.7,6.5
				C428.8,34.9,430.7,40.9,430.7,48.3z M393.6,48.3c0,6.3,1.3,11.2,4,14.4c2.7,3.3,6.5,4.9,11.7,4.9s9.1-1.6,11.7-4.9
				c2.6-3.2,3.9-8.1,3.9-14.4c0-6.2-1.3-11-3.9-14.1c-2.6-3.3-6.5-5-11.6-5c-5.2,0-9.1,1.7-11.8,5C394.9,37.3,393.6,42.1,393.6,48.3
				z M404.9,20.5c1-1.3,2.1-2.9,3.3-4.7c1.1-2,2.2-3.6,2.8-4.9h6.4v0.6c-0.9,1.4-2.3,3.1-4.1,5c-1.9,2.1-3.5,3.6-4.8,4.8h-3.5V20.5z
				"/>
			<path class="st1" d="M477.4,71.7h-6.3l-25.5-39.1h-0.3c0.4,4.6,0.5,8.7,0.5,12.6v26.5h-5V25h6.1l25.5,39h0.3
				c-0.1-0.6-0.3-2.4-0.3-5.5c-0.2-3.1-0.3-5.4-0.2-6.7V25h5.2V71.7z"/>
		</g>
	</g>
	<g>
		<path class="st1" d="M455.3,337.4c-6.3,0-11.2-2.5-14.8-7.2c-3.5-4.8-5.3-11.5-5.3-20.3c0-8.7,1.9-15.5,5.4-20.3
			c3.6-4.9,8.5-7.3,14.9-7.3c6.6,0,11.7,2.6,15.2,7.8h0.5c-0.5-3.9-0.8-6.9-0.8-9v-19.5h10.7v74.9h-8.3l-1.9-6.9h-0.5
			C466.9,334.7,461.8,337.4,455.3,337.4z M458.1,328.2c4.4,0,7.6-1.3,9.6-3.9c2.1-2.7,3.1-6.9,3.1-12.7V310c0-6.8-1-11.5-3.1-14.3
			c-2-2.7-5.3-4.2-9.7-4.2c-3.8,0-6.7,1.5-8.7,4.8c-2.1,3.2-3.1,7.9-3.1,13.8c0,5.9,1,10.4,3,13.5
			C451.2,326.6,454.2,328.2,458.1,328.2z"/>
		<path class="st1" d="M518.6,337.4c-7.9,0-14-2.5-18.5-7.2c-4.4-4.8-6.6-11.5-6.6-20c0-8.7,2.1-15.5,6.2-20.5
			c4.1-4.9,9.8-7.4,17-7.4c6.6,0,11.8,2.1,15.7,6.4c3.9,4.3,5.8,10.1,5.8,17.6v6.1h-33.7c0.1,5.2,1.5,9.2,4,12
			c2.5,2.8,6,4.1,10.6,4.1c3,0,5.8-0.2,8.4-0.9c2.6-0.6,5.4-1.5,8.3-2.9v9.2c-2.7,1.3-5.4,2.2-8,2.7
			C525.1,337.1,522,337.4,518.6,337.4z M516.7,290.7c-3.4,0-6.1,1.2-8.2,3.6c-2,2.1-3.3,5.4-3.7,9.8h23c-0.1-4.4-1.1-7.7-3-9.9
			C522.8,291.9,520.1,290.7,516.7,290.7z"/>
		<path class="st1" d="M604.3,274.9c-6.2,0-11.2,2.3-14.8,7.1c-3.6,4.6-5.5,11.1-5.5,19.4c0,8.6,1.8,15.2,5.2,19.6
			c3.5,4.5,8.5,6.6,15,6.6c2.8,0,5.6-0.3,8.3-0.8c2.6-0.6,5.4-1.3,8.2-2.3v9.9c-5.2,2-11.2,3.1-17.8,3.1c-9.7,0-17.2-3.1-22.6-9.3
			c-5.3-6.3-7.8-15.3-7.8-26.9c0-7.3,1.2-13.7,3.7-19.2c2.6-5.5,6.3-9.7,11-12.6c4.9-2.9,10.5-4.5,17-4.5c6.8,0,13.1,1.5,18.9,4.6
			l-4,9.6c-2.3-1.1-4.5-2.1-7.1-2.9C609.8,275.2,607.2,274.9,604.3,274.9z"/>
		<path class="st1" d="M665.8,336.3l-2.2-7.3h-0.4c-2.5,3.2-4.9,5.4-7.4,6.6c-2.4,1.3-5.6,1.8-9.5,1.8c-4.9,0-8.8-1.5-11.6-4.3
			c-2.8-2.7-4.3-6.8-4.3-11.9c0-5.5,2.1-9.6,5.9-12.4c3.9-2.8,9.7-4.3,17.7-4.6l8.8-0.3V301c0-3.4-0.8-6-2.3-7.6
			c-1.5-1.8-3.8-2.6-7-2.6c-2.5,0-5.1,0.4-7.4,1.2c-2.4,0.9-4.7,1.8-6.9,2.8l-3.5-8.1c2.7-1.5,5.7-2.7,9.1-3.4
			c3.3-0.8,6.3-1.2,9.2-1.2c6.4,0,11.2,1.5,14.5,4.4c3.4,3,5,7.7,5,13.9v35.8H665.8z M649.7,328.7c3.9,0,7-1.2,9.4-3.4
			c2.4-2.4,3.5-5.6,3.5-9.7V311l-6.5,0.3c-5.1,0.2-8.7,1.1-11,2.7c-2.4,1.6-3.5,3.9-3.5,7.2c0,2.3,0.7,4.2,2,5.5
			C645.1,328.1,647.1,328.7,649.7,328.7z"/>
		<path class="st1" d="M714.1,282.2c2.2,0,3.9,0.1,5.3,0.5l-1,10.5c-1.6-0.3-3.2-0.6-4.8-0.6c-4.4,0-7.8,1.5-10.6,4.5
			c-2.6,2.9-4,6.8-4,11.5v27.7h-10.7v-53.1h8.4l1.4,9.3h0.6c1.6-3.1,3.8-5.7,6.5-7.5C708,283.1,711,282.2,714.1,282.2z"/>
		<path class="st1" d="M760.5,336.3l-2.2-7.3H758c-2.4,3.2-4.9,5.4-7.4,6.6c-2.5,1.3-5.6,1.8-9.5,1.8c-5,0-8.8-1.5-11.6-4.3
			c-2.9-2.7-4.3-6.8-4.3-11.9c0-5.5,2-9.6,5.9-12.4c3.9-2.8,9.8-4.3,17.7-4.6l8.8-0.3V301c0-3.4-0.9-6-2.3-7.6
			c-1.5-1.8-3.9-2.6-7.1-2.6c-2.6,0-5.1,0.4-7.5,1.2c-2.4,0.9-4.7,1.8-6.8,2.8l-3.5-8.1c2.8-1.5,5.7-2.7,9-3.4
			c3.3-0.8,6.4-1.2,9.2-1.2c6.5,0,11.3,1.5,14.6,4.4c3.3,3,4.9,7.7,4.9,13.9v35.8H760.5z M744.5,328.7c3.9,0,6.9-1.2,9.3-3.4
			c2.4-2.4,3.6-5.6,3.6-9.7V311l-6.5,0.3c-5.1,0.2-8.8,1.1-11.1,2.7c-2.2,1.6-3.4,3.9-3.4,7.2c0,2.3,0.7,4.2,2,5.5
			C739.7,328.1,741.7,328.7,744.5,328.7z"/>
		<path class="st1" d="M808.8,337.4c-6.4,0-11.3-2.5-14.9-7.3h-0.7c0.4,4.5,0.7,7.2,0.7,8.2V360h-10.7v-76.8h8.7
			c0.3,0.9,0.8,3.3,1.5,7.1h0.6c3.4-5.4,8.4-8.1,15.1-8.1c6.4,0,11.3,2.4,14.9,7.2c3.4,4.9,5.2,11.6,5.2,20.3
			c0,8.6-1.9,15.4-5.4,20.3C820,334.9,815.1,337.4,808.8,337.4z M806.2,291.4c-4.3,0-7.4,1.3-9.4,3.9c-1.9,2.7-3,6.9-3,12.7v1.7
			c0,6.4,1,11,3,13.9c1.9,2.9,5.2,4.5,9.5,4.5c3.7,0,6.6-1.7,8.6-4.8c2-3.3,3.1-7.8,3.1-13.8c0-5.9-1.1-10.5-3.1-13.5
			C813,292.9,810,291.4,806.2,291.4z"/>
		<path class="st1" d="M886.3,309.7c0,8.6-2.1,15.4-6.4,20.3c-4.2,4.9-10.1,7.3-17.7,7.3c-4.7,0-8.8-1.1-12.5-3.4
			c-3.6-2.3-6.4-5.5-8.4-9.7c-2-4.3-3-9.1-3-14.5c0-8.7,2.1-15.4,6.3-20.2c4.2-4.9,10.2-7.3,17.8-7.3c7.4,0,13.1,2.5,17.4,7.4
			C884.2,294.6,886.3,301.3,886.3,309.7z M849.6,309.7c0,12.3,4.3,18.4,12.9,18.4c8.6,0,12.9-6.1,12.9-18.4c0-12.2-4.3-18.3-13-18.3
			c-4.5,0-7.7,1.5-9.8,4.7C850.6,299.3,849.6,303.7,849.6,309.7z"/>
		<path class="st1" d="M943.2,336.3h-10.8v-32.6c0-4.2-0.8-7.2-2.4-9.2c-1.6-2-4-3-7.5-3c-4.5,0-7.8,1.5-9.9,4.2
			c-2.1,2.8-3.2,7.6-3.2,14.2v26.5h-10.7v-53.1h8.4l1.6,6.9h0.5c1.5-2.6,3.6-4.5,6.4-5.9c2.8-1.4,5.9-2.1,9.4-2.1
			c12,0,18.2,6.5,18.2,19.5V336.3z"/>
		<path class="st1" d="M1000.8,283.2v6.2l-8.6,1.6c0.8,1.2,1.5,2.6,1.9,4.2c0.6,1.7,0.8,3.4,0.8,5.2c0,5.6-1.7,9.8-5.4,13
			c-3.6,3.2-8.5,4.7-14.8,4.7c-1.6,0-3.1-0.1-4.4-0.3c-2.3,1.6-3.5,3.2-3.5,5.3c0,1.2,0.5,2.2,1.7,2.8c1,0.5,3,0.9,5.9,0.9h8.9
			c5.6,0,9.8,1.2,12.8,3.7c2.9,2.5,4.2,6.1,4.2,10.9c0,6-2.3,10.6-6.9,13.9c-4.8,3.3-11.6,4.9-20.5,4.9c-6.9,0-12.2-1.2-15.8-3.8
			c-3.6-2.6-5.4-6.3-5.4-11c0-3.2,1-6,2.9-8.3c2-2.1,4.7-3.7,8.2-4.5c-1.4-0.7-2.6-1.7-3.6-3.1c-0.8-1.5-1.3-3-1.3-4.6
			c0-2,0.6-3.6,1.6-5.1c1-1.4,2.6-2.7,4.8-4c-2.6-1.2-4.8-3.1-6.4-5.8c-1.7-2.7-2.5-5.9-2.5-9.4c0-5.8,1.7-10.2,5.2-13.4
			c3.5-3.2,8.3-4.8,14.8-4.8c1.5,0,2.9,0.1,4.5,0.3c1.5,0.2,2.7,0.5,3.5,0.7H1000.8z M961,344.5c0,2.5,1.1,4.4,3.2,5.8
			c2.1,1.3,5,2,8.9,2c5.8,0,10.1-0.9,13-2.7c2.8-1.7,4.3-4.1,4.3-7c0-2.3-0.8-3.9-2.3-4.9c-1.6-0.9-4.5-1.5-8.8-1.5h-8.1
			c-3.1,0-5.5,0.7-7.3,2.2C962,339.9,961,342,961,344.5z M965.8,300.3c0,3.4,0.7,5.9,2.5,7.8c1.6,1.7,3.9,2.6,6.9,2.6
			c6.2,0,9.3-3.4,9.3-10.5c0-3.5-0.8-6.1-2.3-8c-1.5-2-3.8-2.8-7-2.8c-3.1,0-5.5,0.9-6.9,2.8C966.4,294.1,965.8,296.8,965.8,300.3z"
			/>
		<path class="st1" d="M1055.1,309.7c0,8.6-2.1,15.4-6.4,20.3c-4.3,4.9-10.1,7.3-17.7,7.3c-4.8,0-8.9-1.1-12.6-3.4
			c-3.6-2.3-6.3-5.5-8.4-9.7c-1.9-4.3-2.9-9.1-2.9-14.5c0-8.7,2.1-15.4,6.3-20.2c4.2-4.9,10.2-7.3,17.9-7.3c7.3,0,13,2.5,17.3,7.4
			C1052.9,294.6,1055.1,301.3,1055.1,309.7z M1018.2,309.7c0,12.3,4.3,18.4,13,18.4c8.4,0,12.8-6.1,12.8-18.4
			c0-12.2-4.4-18.3-13-18.3c-4.5,0-7.8,1.5-9.8,4.7C1019.3,299.3,1018.2,303.7,1018.2,309.7z"/>
	</g>
</g>
</svg>
