<?xml version="1.0" encoding="utf-8"?>
<!-- Generator: Adobe Illustrator 24.3.0, SVG Export Plug-In . SVG Version: 6.00 Build 0)  -->
<svg version="1.1" id="Capa_1" xmlns="http://www.w3.org/2000/svg" xmlns:xlink="http://www.w3.org/1999/xlink" x="0px" y="0px"
	 viewBox="0 0 335 241.7" style="enable-background:new 0 0 335 241.7;" xml:space="preserve">
<style type="text/css">
	.st0{fill:#A37F5C;}
	.st1{fill:#06893A;}
	.st2{fill:#FDC90F;}
	.st3{fill:#047734;}
</style>
<g>
	<g>
		<path class="st0" d="M76.8,203.2c-1.5,0-2.6,0.5-3.4,1.7c-0.8,1.1-1.2,2.6-1.2,4.6c0,4.1,1.5,6.1,4.6,6.1c1.3,0,2.8-0.3,4.7-1v3.3
			c-1.5,0.6-3.2,0.9-5,0.9c-2.7,0-4.7-0.8-6.1-2.4c-1.4-1.6-2.1-3.9-2.1-7c0-1.9,0.3-3.6,1-5c0.7-1.4,1.7-2.5,3-3.3
			c1.3-0.8,2.8-1.1,4.6-1.1c1.8,0,3.6,0.4,5.4,1.3l-1.3,3.2c-0.7-0.3-1.4-0.6-2.1-0.9C78.1,203.3,77.4,203.2,76.8,203.2z"/>
		<path class="st0" d="M110.7,218.5h-3.9v-7.9h-7.3v7.9h-3.9v-18.3h3.9v7.2h7.3v-7.2h3.9V218.5z"/>
		<path class="st0" d="M125.6,218.5v-18.3h3.9v18.3H125.6z"/>
		<path class="st0" d="M152.2,203.2c-1.5,0-2.6,0.5-3.4,1.7c-0.8,1.1-1.2,2.6-1.2,4.6c0,4.1,1.5,6.1,4.6,6.1c1.3,0,2.8-0.3,4.7-1
			v3.3c-1.5,0.6-3.2,0.9-5,0.9c-2.7,0-4.7-0.8-6.1-2.4c-1.4-1.6-2.1-3.9-2.1-7c0-1.9,0.3-3.6,1-5c0.7-1.4,1.7-2.5,3-3.3
			c1.3-0.8,2.8-1.1,4.6-1.1c1.8,0,3.6,0.4,5.4,1.3l-1.3,3.2c-0.7-0.3-1.4-0.6-2.1-0.9C153.5,203.3,152.8,203.2,152.2,203.2z"/>
		<path class="st0" d="M171,218.5v-18.3h3.9v15.1h7.4v3.2H171z"/>
		<path class="st0" d="M207.1,218.5l-1.3-4.4H199l-1.3,4.4h-4.2l6.5-18.4h4.8l6.5,18.4H207.1z M204.8,210.9c-1.2-4-1.9-6.2-2.1-6.7
			c-0.2-0.5-0.3-0.9-0.3-1.2c-0.3,1.1-1.1,3.7-2.4,7.9H204.8z"/>
		<path class="st0" d="M229.5,207.8l3.8-7.6h4.2l-6.1,11.2v7.1h-3.9v-7l-6.1-11.3h4.2L229.5,207.8z"/>
		<path class="st0" d="M266.8,209.3c0,3-0.8,5.4-2.3,7c-1.5,1.6-3.7,2.4-6.5,2.4c-2.8,0-5-0.8-6.5-2.4c-1.5-1.6-2.3-4-2.3-7
			s0.8-5.4,2.3-7c1.5-1.6,3.7-2.4,6.5-2.4c2.8,0,5,0.8,6.5,2.4S266.8,206.3,266.8,209.3z M253.4,209.3c0,2,0.4,3.6,1.2,4.6
			c0.8,1,1.9,1.6,3.5,1.6c3.1,0,4.7-2.1,4.7-6.2c0-4.1-1.5-6.2-4.6-6.2c-1.5,0-2.7,0.5-3.5,1.6C253.8,205.8,253.4,207.3,253.4,209.3
			z"/>
	</g>
	<g>
		<path class="st1" d="M37.8,154.4c2.9,0,5.3,1,7.3,2.9c2,1.9,3,4.3,3,7.1c0,2.8-1,5.2-3,7.1c-2,1.9-4.4,2.9-7.3,2.9h-5.3v9.8h-5.9
			v-29.9H37.8z M37.8,168.9c1.3,0,2.3-0.4,3.1-1.3c0.8-0.9,1.2-1.9,1.2-3.2c0-1.3-0.4-2.4-1.2-3.2c-0.8-0.9-1.9-1.3-3.1-1.3h-5.3
			v9.1H37.8z"/>
		<path class="st1" d="M68.4,181.6c-2.2,2.2-4.9,3.3-8,3.3s-5.8-1.1-8-3.3s-3.3-4.9-3.3-8s1.1-5.8,3.3-8c2.2-2.2,4.9-3.3,8-3.3
			s5.8,1.1,8,3.3c2.2,2.2,3.3,4.9,3.3,8S70.6,179.4,68.4,181.6z M56.2,177.8c1.1,1.1,2.5,1.7,4.1,1.7s3-0.6,4.1-1.7
			c1.1-1.1,1.7-2.5,1.7-4.2c0-1.7-0.6-3.1-1.7-4.2c-1.1-1.1-2.5-1.7-4.1-1.7s-3,0.6-4.1,1.7c-1.1,1.1-1.6,2.5-1.6,4.2
			C54.6,175.3,55.1,176.7,56.2,177.8z"/>
		<path class="st1" d="M80.2,169c0,0.6,0.4,1,1.1,1.4c0.8,0.4,1.7,0.7,2.8,0.9c1.1,0.3,2.2,0.6,3.2,1c1.1,0.4,2,1.1,2.8,2.1
			c0.8,1,1.1,2.2,1.1,3.6c0,2.2-0.8,3.9-2.5,5.1c-1.6,1.2-3.7,1.8-6.1,1.8c-4.4,0-7.4-1.7-9-5.1l4.8-2.7c0.6,1.9,2,2.8,4.2,2.8
			c2,0,3-0.6,3-1.8c0-0.6-0.4-1-1.1-1.4c-0.8-0.4-1.7-0.7-2.8-1c-1.1-0.3-2.2-0.6-3.2-1.1c-1.1-0.4-2-1.1-2.8-2
			c-0.8-0.9-1.1-2.1-1.1-3.5c0-2.1,0.8-3.8,2.3-5c1.6-1.2,3.5-1.8,5.8-1.8c1.7,0,3.3,0.4,4.7,1.2c1.4,0.8,2.6,1.9,3.4,3.4l-4.7,2.6
			c-0.7-1.5-1.8-2.2-3.4-2.2c-0.7,0-1.3,0.2-1.8,0.5C80.4,168,80.2,168.4,80.2,169z"/>
		<path class="st1" d="M110.7,162.9h5.5v21.4h-5.5v-2.5c-1.7,2.1-4,3.1-7,3.1c-2.9,0-5.3-1.1-7.3-3.3s-3.1-4.9-3.1-8s1-5.8,3.1-8
			c2-2.2,4.5-3.3,7.3-3.3c3,0,5.3,1,7,3.1V162.9z M100.6,177.9c1.1,1.1,2.5,1.7,4.2,1.7c1.7,0,3.1-0.6,4.3-1.7
			c1.1-1.1,1.7-2.6,1.7-4.3c0-1.8-0.6-3.2-1.7-4.3c-1.1-1.1-2.5-1.7-4.3-1.7c-1.7,0-3.1,0.6-4.2,1.7c-1.1,1.1-1.7,2.6-1.7,4.3
			C98.9,175.4,99.4,176.8,100.6,177.9z"/>
		<path class="st1" d="M137.4,154.4h5.5v29.9h-5.5v-2.5c-1.6,2.1-3.9,3.1-6.9,3.1c-2.9,0-5.3-1.1-7.4-3.3c-2-2.2-3.1-4.9-3.1-8
			s1-5.8,3.1-8c2-2.2,4.5-3.3,7.4-3.3c3,0,5.3,1,6.9,3.1V154.4z M127.3,177.9c1.1,1.1,2.5,1.7,4.3,1.7s3.1-0.6,4.2-1.7
			c1.1-1.1,1.7-2.6,1.7-4.3c0-1.8-0.6-3.2-1.7-4.3c-1.1-1.1-2.5-1.7-4.2-1.7s-3.1,0.6-4.3,1.7c-1.1,1.1-1.7,2.6-1.7,4.3
			C125.6,175.4,126.2,176.8,127.3,177.9z"/>
		<path class="st1" d="M164.3,162.9h5.5v21.4h-5.5v-2.5c-1.7,2.1-4,3.1-7,3.1c-2.9,0-5.3-1.1-7.3-3.3s-3.1-4.9-3.1-8s1-5.8,3.1-8
			c2-2.2,4.5-3.3,7.3-3.3c3,0,5.3,1,7,3.1V162.9z M154.1,177.9c1.1,1.1,2.5,1.7,4.2,1.7c1.7,0,3.1-0.6,4.3-1.7
			c1.1-1.1,1.7-2.6,1.7-4.3c0-1.8-0.6-3.2-1.7-4.3c-1.1-1.1-2.5-1.7-4.3-1.7c-1.7,0-3.1,0.6-4.2,1.7c-1.1,1.1-1.7,2.6-1.7,4.3
			C152.4,175.4,153,176.8,154.1,177.9z"/>
		<path class="st1" d="M201.7,154.4h5.5v29.9h-5.5v-2.5c-1.6,2.1-3.9,3.1-6.9,3.1c-2.9,0-5.3-1.1-7.4-3.3s-3.1-4.9-3.1-8
			s1-5.8,3.1-8c2-2.2,4.5-3.3,7.4-3.3c3,0,5.3,1,6.9,3.1V154.4z M191.5,177.9c1.1,1.1,2.5,1.7,4.3,1.7c1.7,0,3.1-0.6,4.2-1.7
			s1.7-2.6,1.7-4.3c0-1.8-0.6-3.2-1.7-4.3c-1.1-1.1-2.5-1.7-4.2-1.7c-1.7,0-3.1,0.6-4.3,1.7c-1.1,1.1-1.7,2.6-1.7,4.3
			C189.8,175.4,190.4,176.8,191.5,177.9z"/>
		<path class="st1" d="M216.9,175.9c0.7,2.7,2.8,4,6,4c2.1,0,3.7-0.7,4.8-2.1l4.4,2.6c-2.1,3.1-5.2,4.6-9.3,4.6
			c-3.5,0-6.4-1.1-8.5-3.2c-2.1-2.1-3.2-4.8-3.2-8.1c0-3.2,1.1-5.9,3.2-8.1c2.1-2.2,4.8-3.2,8.1-3.2c3.1,0,5.7,1.1,7.8,3.2
			c2,2.2,3.1,4.8,3.1,8c0,0.7-0.1,1.5-0.2,2.3H216.9z M216.8,171.6h10.9c-0.3-1.5-1-2.5-1.9-3.2c-1-0.7-2.1-1.1-3.4-1.1
			c-1.5,0-2.7,0.4-3.7,1.1C217.8,169.2,217.1,170.2,216.8,171.6z"/>
		<path class="st1" d="M237.1,184.3v-31.2h5.5v31.2H237.1z"/>
		<path class="st1" d="M263.4,169c0,0.6,0.4,1,1.1,1.4s1.7,0.7,2.8,0.9c1.1,0.3,2.2,0.6,3.2,1c1.1,0.4,2,1.1,2.8,2.1
			c0.8,1,1.1,2.2,1.1,3.6c0,2.2-0.8,3.9-2.5,5.1s-3.7,1.8-6.1,1.8c-4.4,0-7.4-1.7-9-5.1l4.8-2.7c0.6,1.9,2,2.8,4.2,2.8
			c2,0,3-0.6,3-1.8c0-0.6-0.4-1-1.1-1.4s-1.7-0.7-2.8-1c-1.1-0.3-2.2-0.6-3.2-1.1c-1.1-0.4-2-1.1-2.8-2c-0.8-0.9-1.1-2.1-1.1-3.5
			c0-2.1,0.8-3.8,2.3-5c1.6-1.2,3.5-1.8,5.8-1.8c1.7,0,3.3,0.4,4.7,1.2c1.4,0.8,2.6,1.9,3.4,3.4l-4.7,2.6c-0.7-1.5-1.8-2.2-3.4-2.2
			c-0.7,0-1.3,0.2-1.8,0.5C263.6,168,263.4,168.4,263.4,169z"/>
		<path class="st1" d="M295.9,181.6c-2.2,2.2-4.9,3.3-8,3.3c-3.2,0-5.8-1.1-8-3.3c-2.2-2.2-3.3-4.9-3.3-8s1.1-5.8,3.3-8
			c2.2-2.2,4.9-3.3,8-3.3c3.2,0,5.8,1.1,8,3.3c2.2,2.2,3.3,4.9,3.3,8S298.1,179.4,295.9,181.6z M283.7,177.8
			c1.1,1.1,2.5,1.7,4.1,1.7c1.7,0,3-0.6,4.1-1.7c1.1-1.1,1.7-2.5,1.7-4.2c0-1.7-0.6-3.1-1.7-4.2c-1.1-1.1-2.5-1.7-4.1-1.7
			c-1.7,0-3,0.6-4.1,1.7c-1.1,1.1-1.6,2.5-1.6,4.2C282.1,175.3,282.6,176.7,283.7,177.8z"/>
		<path class="st1" d="M303.1,184.3v-31.2h5.5v31.2H303.1z"/>
	</g>
	<g>
		<path class="st1" d="M30.5,147.2l-6.6-19.6h4.2l4.8,15.1l4.8-15.1h4.2l-6.6,19.6H30.5z"/>
		<path class="st1" d="M44.8,131.5c-0.6,0-1.1-0.2-1.6-0.7s-0.7-1-0.7-1.6c0-0.6,0.2-1.1,0.7-1.6c0.4-0.4,1-0.7,1.6-0.7
			c0.6,0,1.1,0.2,1.6,0.7c0.4,0.4,0.7,1,0.7,1.6c0,0.6-0.2,1.1-0.7,1.6C46,131.3,45.5,131.5,44.8,131.5z M43.1,147.2v-14h3.6v14
			H43.1z"/>
		<path class="st1" d="M50,147.2v-20.4h3.6v20.4H50z"/>
		<path class="st1" d="M56.9,147.2v-20.4h3.6v20.4H56.9z"/>
		<path class="st1" d="M74.4,133.2h3.6v14h-3.6v-1.7c-1.1,1.4-2.6,2-4.6,2c-1.9,0-3.5-0.7-4.8-2.1c-1.3-1.4-2-3.2-2-5.2
			s0.7-3.8,2-5.2c1.3-1.4,2.9-2.1,4.8-2.1c2,0,3.5,0.7,4.6,2V133.2z M67.8,143c0.7,0.7,1.7,1.1,2.8,1.1c1.1,0,2-0.4,2.8-1.1
			c0.7-0.7,1.1-1.7,1.1-2.8c0-1.2-0.4-2.1-1.1-2.8s-1.7-1.1-2.8-1.1c-1.1,0-2,0.4-2.8,1.1c-0.7,0.7-1.1,1.7-1.1,2.8
			C66.7,141.3,67,142.3,67.8,143z"/>
	</g>
	<path class="st2" d="M160,38c3.6,12.9,11.9,24.5,24.2,32c14.5,8.9,31.6,10.2,46.5,4.9c5-17.2-1.8-36.3-17.9-46.1
		C195.2,18.1,172.6,22.4,160,38z"/>
	
		<ellipse transform="matrix(0.1602 -0.9871 0.9871 0.1602 18.6503 241.384)" class="st1" cx="151.2" cy="109.7" rx="18.4" ry="18.4"/>
	
		<ellipse transform="matrix(0.7071 -0.7071 0.7071 0.7071 -17.5891 169.7628)" class="st1" cx="196.1" cy="106.1" rx="18.4" ry="18.4"/>
	
		<ellipse transform="matrix(0.7071 -0.7071 0.7071 0.7071 -9.751336e-02 121.4251)" class="st1" cx="146.5" cy="60.8" rx="18.4" ry="18.4"/>
	
		<ellipse transform="matrix(0.7071 -0.7071 0.7071 0.7071 -33.741 103.852)" class="st1" cx="108.5" cy="92.7" rx="18.4" ry="18.4"/>
	
		<ellipse transform="matrix(0.7071 -0.7071 0.7071 0.7071 -7.6916 190.8032)" class="st1" cx="226.5" cy="104.7" rx="18.4" ry="18.4"/>
	
		<ellipse transform="matrix(0.1602 -0.9871 0.9871 0.1602 40.2194 265.9593)" class="st3" cx="176.4" cy="109.3" rx="18.4" ry="18.4"/>
	
		<ellipse transform="matrix(0.7071 -0.7071 0.7071 0.7071 4.3134 175.5421)" class="st3" cx="214.1" cy="82.6" rx="18.4" ry="18.4"/>
	<circle class="st1" cx="193.5" cy="60.1" r="18.4"/>
	
		<ellipse transform="matrix(0.1602 -0.9871 0.9871 0.1602 82.8279 206.5936)" class="st3" cx="162.8" cy="54.6" rx="18.4" ry="18.4"/>
	<circle class="st3" cx="126.3" cy="105.1" r="18.4"/>
	<circle class="st3" cx="143.8" cy="81.9" r="24.5"/>
	<circle class="st1" cx="175.2" cy="82.3" r="24.5"/>
	<g>
		<g>
			<path class="st0" d="M169.5,126.3c-0.4-4.2-3.6-7.8-7.4-9.7c-3.8-1.9-8.1-2.3-12.4-2.5c-7.2-0.2-14.5,0.5-21.5-0.9
				c-7.1-1.3-14.2-5.1-17.2-11.6c18.3,11,42.2,6.1,61.8,14.5c-4.7-2.8-8.5-6.9-11-11.7c-1.5-2.9-2.5-6.1-3.8-9.1
				c-3.2-7.2-8.1-13.4-13-19.6c7.7,7.2,15.5,14.5,20.3,23.9c2.8-5.4,6.7-10.1,11.5-13.8c-4.9,8.1-9.8,18.3-4.9,26.5
				c1.6,2.7,4.7,5,7.8,4.4c1.9-0.3,3.4-1.6,5-2.7c7.1-5.2,15.2-8.9,23.8-10.9c2.9-0.7,6.6-1.8,7-4.7c1,0-6.4,8.2-11.6,10.7
				c9-0.4,14.6,1.3,23.3,3.9c1.5,0.5-19.2-4.8-32-0.5c-3.2,4.1-10.2,9.1-15.3,10.2c0.4,3.7,1.1,7.4,1.5,11.1l2.2,2.2
				c-0.8,0.7,1.1,1.8,0.8,2.8c-0.2,0.5-0.8,0.6-1.3,0.7c-3.7,0.4-13.8,3.3-16.6-0.1C163.5,136.1,169.9,131,169.5,126.3z"/>
			<path class="st0" d="M197,107.2c0,0,7.8-3.8,12.2-5.3s6.4-4,7.8-7.5c0,0,1.5,8.9-7,12l-10.6,5.4L197,107.2z"/>
			<path class="st0" d="M187.2,119.9c0,0,7.4-7.2,24-5.6l-2.1-3.6l-14.6,0.4L187.2,119.9z"/>
			<path class="st0" d="M161.8,104.5c0,0,3.6,8.8,11.6,14.2l3.6-0.2l-8-7.7L161.8,104.5z"/>
			<path class="st0" d="M219.7,111c0,0,9.9,3.7,14.6,1.9c0,0-9.9,3.6-15,2.7c-5.1-0.9-4-3.1-4-3.1L219.7,111z"/>
			<path class="st0" d="M197.8,113.2l1.9,1.5c0,0,10-1.6,19.5,0.9l1.5-3.7l-4.6-1.1l-9.9-0.5l-7.8,2.1L197.8,113.2z"/>
			<path class="st0" d="M167.8,117.5l-2.1,1.3c0,0,3.5,15.2-4.8,21.2c0,0,13.2,4.5,27.5-1c0,0-8.4-12.5-6.5-19.7L167.8,117.5z"/>
		</g>
	</g>
</g>
</svg>
