<svg width="127" height="188" viewBox="0 0 127 188" fill="none" xmlns="http://www.w3.org/2000/svg">
<path d="M127 188H0V124.192L127 95V188Z" fill="#598773"/>
<path d="M16.6113 148.766C15.5943 148.766 14.6196 148.597 13.7721 148.216C12.8822 147.834 12.1619 147.326 11.5262 146.69C10.8906 146.055 10.3821 145.292 10.0431 144.402C9.66169 143.513 9.49219 142.58 9.49219 141.564V141.521C9.49219 140.504 9.66169 139.572 10.0431 138.683C10.3821 137.793 10.8906 137.03 11.5262 136.352C12.1619 135.674 12.9246 135.166 13.8145 134.785C14.7044 134.403 15.679 134.191 16.7384 134.191C17.3741 134.191 17.9673 134.234 18.5182 134.361C19.0267 134.446 19.5352 134.615 19.959 134.827C20.3827 135.039 20.8065 135.251 21.1879 135.505C21.5693 135.759 21.9083 136.056 22.2473 136.395L20.6794 138.216C20.1285 137.708 19.5352 137.284 18.8996 136.945C18.264 136.606 17.5436 136.479 16.7384 136.479C16.0604 136.479 15.4672 136.606 14.8739 136.861C14.2806 137.115 13.8145 137.496 13.3908 137.92C12.967 138.386 12.6704 138.894 12.4161 139.488C12.1619 140.081 12.0771 140.716 12.0771 141.437V141.479C12.0771 142.157 12.2042 142.792 12.4161 143.428C12.628 144.021 12.967 144.572 13.3908 145.038C13.8145 145.504 14.2806 145.843 14.8739 146.097C15.4672 146.351 16.0604 146.478 16.7384 146.478C17.5859 146.478 18.3487 146.309 18.942 146.012C19.5776 145.673 20.1709 145.25 20.7641 144.699L22.332 146.309C21.9506 146.69 21.6116 147.029 21.1879 147.326C20.8065 147.622 20.3827 147.877 19.9166 148.131C19.4505 148.343 18.942 148.512 18.4335 148.639C17.925 148.766 17.2893 148.766 16.6113 148.766Z" fill="white"/>
<path d="M31.6549 148.766C30.5531 148.766 29.5785 148.555 28.6886 148.173C27.7987 147.792 27.0359 147.283 26.3579 146.606C25.6799 145.928 25.2138 145.165 24.8324 144.318C24.451 143.428 24.2815 142.496 24.2815 141.521V141.479C24.2815 140.504 24.451 139.572 24.8324 138.683C25.2138 137.793 25.7223 137.03 26.3579 136.352C26.9935 135.674 27.7987 135.166 28.6886 134.785C29.5785 134.403 30.5955 134.191 31.6549 134.191C32.7566 134.191 33.7313 134.403 34.6212 134.785C35.5111 135.166 36.2738 135.674 36.9518 136.352C37.6298 137.03 38.096 137.793 38.4774 138.64C38.8587 139.53 39.0282 140.462 39.0282 141.437V141.479C39.0282 142.453 38.8587 143.385 38.4774 144.275C38.096 145.165 37.5875 145.928 36.9518 146.606C36.2738 147.283 35.5111 147.792 34.6212 148.173C33.7313 148.597 32.7143 148.766 31.6549 148.766ZM31.6972 146.478C32.3753 146.478 33.0533 146.351 33.6041 146.097C34.1974 145.843 34.7059 145.462 35.0873 145.038C35.5111 144.614 35.8077 144.063 36.0619 143.47C36.3162 142.877 36.4009 142.242 36.4009 141.521V141.479C36.4009 140.801 36.2738 140.165 36.0619 139.53C35.8077 138.937 35.5111 138.386 35.0873 137.92C34.6635 137.454 34.155 137.115 33.5618 136.861C32.9685 136.606 32.3329 136.437 31.6125 136.437C30.9345 136.437 30.2565 136.564 29.7056 136.818C29.1123 137.072 28.6038 137.454 28.2224 137.878C27.7987 138.344 27.502 138.852 27.2478 139.445C26.9935 140.038 26.9088 140.674 26.9088 141.394V141.437C26.9088 142.114 27.0359 142.75 27.2478 143.385C27.502 143.979 27.7987 144.529 28.2224 144.996C28.6462 145.462 29.1547 145.801 29.748 146.055C30.3412 146.351 30.9769 146.478 31.6972 146.478Z" fill="white"/>
<path d="M41.9944 134.488H44.4522V146.309H51.8679V148.555H41.9944V134.488Z" fill="white"/>
<path d="M60.3856 148.766C59.2838 148.766 58.3092 148.555 57.4193 148.173C56.5294 147.792 55.7666 147.283 55.0886 146.606C54.4106 145.928 53.9445 145.165 53.5631 144.318C53.1817 143.428 53.0122 142.496 53.0122 141.521V141.479C53.0122 140.504 53.1817 139.572 53.5631 138.683C53.9445 137.793 54.453 137.03 55.0886 136.352C55.7243 135.674 56.5294 135.166 57.4193 134.785C58.3092 134.403 59.3262 134.191 60.3856 134.191C61.4874 134.191 62.462 134.403 63.3519 134.785C64.2418 135.166 65.0045 135.674 65.6825 136.352C66.3182 136.988 66.8267 137.793 67.2081 138.64C67.5895 139.53 67.759 140.462 67.759 141.437V141.479C67.759 142.453 67.5895 143.385 67.2081 144.275C66.8267 145.165 66.3182 145.928 65.6825 146.606C65.0469 147.283 64.2418 147.792 63.3519 148.173C62.462 148.597 61.445 148.766 60.3856 148.766ZM60.3856 146.478C61.0636 146.478 61.7416 146.351 62.2925 146.097C62.8857 145.843 63.3943 145.462 63.7756 145.038C64.157 144.614 64.496 144.063 64.7503 143.47C65.0045 142.877 65.0893 142.242 65.0893 141.521V141.479C65.0893 140.801 64.9622 140.165 64.7503 139.53C64.496 138.937 64.1994 138.386 63.7756 137.92C63.3519 137.454 62.8434 137.115 62.2501 136.861C61.6569 136.606 61.0212 136.437 60.3008 136.437C59.6228 136.437 58.9448 136.564 58.3939 136.818C57.8007 137.072 57.2922 137.454 56.9108 137.878C56.487 138.344 56.1904 138.852 55.9361 139.445C55.6819 140.038 55.5971 140.674 55.5971 141.394V141.437C55.5971 142.114 55.7243 142.75 55.9361 143.385C56.1904 143.979 56.487 144.529 56.9108 144.996C57.3345 145.462 57.843 145.801 58.4363 146.055C59.0719 146.351 59.7076 146.478 60.3856 146.478Z" fill="white"/>
<path d="M70.7251 134.488H73.0134L80.5563 144.233V134.488H82.9717V148.555H80.9376L73.1829 138.555V148.555H70.7675V134.488H70.7251Z" fill="white"/>
<path d="M86.7432 134.488H89.201V148.555H86.7432V134.488Z" fill="white"/>
<path d="M97.9727 134.361H100.261L106.448 148.512H103.821L102.38 145.123H95.7692L94.3284 148.512H91.7859L97.9727 134.361ZM101.532 142.962L99.1169 137.327L96.7015 142.962H101.532Z" fill="white"/>
<path d="M108.863 134.488H111.321V146.309H118.737V148.555H108.863V134.488Z" fill="white"/>
<path d="M11.5687 159.952L9.19562 160.503L8.43286 157.494L12.5433 156.308H15.3825V170.459H11.5687V159.952Z" fill="white"/>
<path d="M24.0696 170.756C23.0525 170.756 22.1627 170.544 21.3575 170.163C20.5524 169.781 19.8744 169.273 19.3235 168.595C18.7726 167.917 18.3488 167.155 18.0098 166.265C17.7132 165.375 17.5437 164.443 17.5437 163.468V163.426C17.5437 162.452 17.7132 161.477 18.0098 160.587C18.3065 159.698 18.7726 158.935 19.3235 158.257C19.8744 157.579 20.5524 157.071 21.3575 156.689C22.1627 156.308 23.0525 156.096 24.0696 156.096C25.0866 156.096 25.9765 156.308 26.7816 156.689C27.5867 157.071 28.2648 157.579 28.8156 158.257C29.3665 158.935 29.7903 159.698 30.1293 160.587C30.4259 161.477 30.5954 162.409 30.5954 163.384V163.426C30.5954 164.401 30.4259 165.375 30.1293 166.265C29.8327 167.155 29.4089 167.917 28.8156 168.595C28.2648 169.273 27.5444 169.781 26.7392 170.163C25.9765 170.586 25.0866 170.756 24.0696 170.756ZM24.1119 167.324C24.4933 167.324 24.8747 167.239 25.1713 167.027C25.5103 166.858 25.7646 166.561 25.9765 166.222C26.1883 165.883 26.3578 165.46 26.485 165.036C26.6121 164.57 26.6545 164.062 26.6545 163.511V163.468C26.6545 162.918 26.5697 162.367 26.4426 161.901C26.3155 161.435 26.146 161.011 25.8917 160.672C25.6798 160.333 25.3832 160.079 25.0866 159.867C24.7476 159.655 24.4086 159.57 24.0272 159.57C23.6458 159.57 23.3068 159.655 22.9678 159.867C22.6712 160.037 22.3745 160.333 22.1627 160.672C21.9508 161.011 21.7813 161.435 21.6541 161.901C21.527 162.367 21.4846 162.875 21.4846 163.468V163.511C21.4846 164.062 21.527 164.612 21.6965 165.078C21.8236 165.544 21.9931 165.968 22.2474 166.307C22.4593 166.646 22.7559 166.9 23.0525 167.112C23.3915 167.239 23.7306 167.324 24.1119 167.324Z" fill="white"/>
<path d="M37.545 170.756C36.3161 170.756 35.2144 170.544 34.3245 170.163C33.4346 169.781 32.5871 169.231 31.8667 168.553L34.1126 165.926C34.6635 166.392 35.2144 166.773 35.8076 167.07C36.3585 167.324 36.9518 167.451 37.545 167.451C38.1807 167.451 38.6892 167.324 39.0706 167.027C39.4519 166.731 39.6215 166.349 39.6215 165.841V165.756C39.6215 165.248 39.4096 164.866 39.0282 164.57C38.6468 164.273 38.1383 164.146 37.545 164.146C37.1213 164.146 36.6975 164.231 36.3585 164.358C35.9771 164.485 35.6381 164.655 35.2991 164.866L32.9685 163.553L33.3498 156.435H42.7573V159.655H36.4009L36.2738 161.774C36.6128 161.646 36.9518 161.519 37.2908 161.392C37.6298 161.307 38.0536 161.265 38.5197 161.265C39.1553 161.265 39.7486 161.35 40.3418 161.519C40.9351 161.689 41.4436 161.985 41.8674 162.324C42.2911 162.706 42.6725 163.129 42.9268 163.723C43.181 164.273 43.3505 164.951 43.3505 165.714V165.756C43.3505 166.519 43.2234 167.239 42.9268 167.832C42.6301 168.468 42.2487 168.976 41.7402 169.4C41.2317 169.824 40.5961 170.163 39.9181 170.374C39.1553 170.671 38.3926 170.756 37.545 170.756Z" fill="white"/>
<path d="M51.4018 170.756C50.3848 170.756 49.4949 170.544 48.6898 170.163C47.8847 169.781 47.2066 169.273 46.6558 168.595C46.1049 167.917 45.6811 167.155 45.3421 166.265C45.0455 165.375 44.876 164.443 44.876 163.468V163.426C44.876 162.452 45.0455 161.477 45.3421 160.587C45.6387 159.698 46.1049 158.935 46.6558 158.257C47.2066 157.579 47.8847 157.071 48.6898 156.689C49.4949 156.308 50.3848 156.096 51.4018 156.096C52.4189 156.096 53.3087 156.308 54.1139 156.689C54.919 157.071 55.597 157.579 56.1479 158.257C56.6988 158.935 57.1226 159.698 57.4616 160.587C57.7582 161.477 57.9277 162.409 57.9277 163.384V163.426C57.9277 164.401 57.7582 165.375 57.4616 166.265C57.1649 167.155 56.7412 167.917 56.1479 168.595C55.597 169.273 54.8766 169.781 54.0715 170.163C53.3087 170.586 52.4189 170.756 51.4018 170.756ZM51.4442 167.324C51.8256 167.324 52.207 167.239 52.5036 167.027C52.8426 166.858 53.0969 166.561 53.3087 166.222C53.5206 165.883 53.6901 165.46 53.8172 165.036C53.9444 164.57 53.9868 164.062 53.9868 163.511V163.468C53.9868 162.918 53.902 162.367 53.7749 161.901C53.6477 161.435 53.4782 161.011 53.224 160.672C53.0121 160.333 52.7155 160.079 52.4188 159.867C52.0798 159.655 51.7408 159.57 51.3595 159.57C50.9781 159.57 50.6391 159.655 50.3001 159.867C50.0034 160.037 49.7068 160.333 49.4949 160.672C49.283 161.011 49.1135 161.435 48.9864 161.901C48.8593 162.367 48.8169 162.875 48.8169 163.468V163.511C48.8169 164.062 48.8593 164.612 49.0288 165.078C49.1559 165.544 49.3254 165.968 49.5797 166.307C49.7916 166.646 50.0882 166.9 50.3848 167.112C50.7238 167.239 51.0628 167.324 51.4442 167.324Z" fill="white"/>
<path d="M0 0H127V89.7831L0 119V0Z" fill="#595A5B"/>
<path fill-rule="evenodd" clip-rule="evenodd" d="M38.4809 32.8464L26.2432 45.2319L34.2203 53.3074C35.3534 54.4416 36.8945 55.0767 38.4355 55.0767C40.0219 55.0767 41.5629 54.4869 42.7867 53.3074L50.7639 45.2319L38.4809 32.8464Z" fill="white"/>
<path fill-rule="evenodd" clip-rule="evenodd" d="M63.5001 32.801L51.2625 45.1865L59.2396 53.2619C60.3727 54.3961 61.8684 55.0313 63.4548 55.0313C65.0412 55.0313 66.5822 54.4415 67.806 53.2619L75.7831 45.1865L63.5001 32.801Z" fill="white"/>
<path fill-rule="evenodd" clip-rule="evenodd" d="M88.5194 32.801L76.2817 45.1865L84.2589 53.2619C85.392 54.3961 86.8877 55.0313 88.4741 55.0313C90.0605 55.0313 91.6015 54.4415 92.8253 53.2619L100.802 45.1865L88.5194 32.801Z" fill="white"/>
<path fill-rule="evenodd" clip-rule="evenodd" d="M76.0097 45.0503L63.772 32.6649L71.7491 24.5894C72.8823 23.4552 74.378 22.8201 75.9643 22.8201C77.5507 22.8201 79.0917 23.4099 80.3155 24.5894L88.2927 32.6649L76.0097 45.0503Z" fill="white"/>
<path fill-rule="evenodd" clip-rule="evenodd" d="M50.9904 45.0503L38.7527 32.6649L46.7298 24.5894C47.8176 23.4552 49.3587 22.8201 50.945 22.8201C52.4861 22.8201 54.0725 23.4099 55.2962 24.5894L63.2734 32.6649L50.9904 45.0503Z" fill="white"/>
<path d="M70.4347 62.6531C74.0154 62.6531 75.8284 65.1483 75.8284 67.6435C75.8284 70.1388 74.0607 72.634 70.4347 72.634C66.7634 72.634 64.9504 70.0934 64.9504 67.5982C64.9958 65.1029 66.8541 62.6531 70.4347 62.6531ZM68.2591 67.5982C68.2591 68.8231 69.211 69.8666 70.4801 69.8666C71.7038 69.8666 72.6556 68.8685 72.6556 67.6435C72.6556 66.4186 71.7038 65.4205 70.4801 65.4205C69.211 65.3751 68.2591 66.3732 68.2591 67.5982Z" fill="white"/>
<path d="M54.0271 62.8345H56.6106L57.1998 64.0141H57.2452C58.061 63.0614 58.8768 62.6531 60.2366 62.6531C62.4122 62.6531 63.6813 64.0595 63.6813 66.2371V72.3618H60.4632V67.4167C60.4632 66.2825 60.2819 65.239 58.9675 65.239C57.8344 65.239 57.2452 66.0557 57.2452 67.1445V72.3618H54.0271V62.8345Z" fill="white"/>
<path d="M24.8833 72.4072L27.1495 59.5227H30.7755L33.1777 65.5566L33.3137 66.2372L33.4497 65.5566L35.8066 59.5227H39.4326L41.7441 72.4072H38.2541L37.121 64.5585L36.8944 65.2844L33.9936 72.4072H32.5885L29.6877 65.2844L29.5064 64.5585L28.328 72.4072H24.8833Z" fill="white"/>
<path d="M99.8958 72.4073L99.3066 71.1824H99.2613C98.4001 72.2712 97.3123 72.5888 95.9979 72.5888C94.1849 72.5888 93.1877 71.3185 93.1877 69.5491C93.1877 67.0993 95.454 66.5548 97.4483 66.4641C97.9468 66.4187 98.4907 66.4641 98.9893 66.4187C98.9893 65.6475 98.7174 65.1031 97.8562 65.1031C97.1763 65.1031 96.3152 65.3299 95.2727 65.7836L94.3662 63.6513C95.454 63.1069 96.8137 62.7893 98.4454 62.7893C100.576 62.7893 102.207 63.9235 102.207 66.1919V72.3619H99.8958V72.4073ZM98.944 68.9593V68.2334L98.2188 68.2788C97.1763 68.3242 96.4511 68.7325 96.4511 69.4584C96.4511 70.0935 96.9497 70.3204 97.4483 70.3204C98.2188 70.275 98.944 69.8213 98.944 68.9593Z" fill="white"/>
<path d="M88.8818 72.5887C85.8451 72.5887 84.2134 70.7286 84.2134 67.6889C84.2134 64.5586 86.117 62.6985 89.1538 62.6985C90.2416 62.6985 91.284 62.9253 92.2358 63.4244L91.284 65.8742C90.8761 65.6928 90.5588 65.5567 90.1962 65.4659C89.879 65.3752 89.5164 65.2845 89.1538 65.2845C86.9782 65.2845 86.7969 69.9573 89.1991 69.9573C90.1509 69.9573 91.0574 69.6851 91.9186 69.1407V71.7721C91.0574 72.3165 90.0603 72.5887 88.8818 72.5887Z" fill="white"/>
<path d="M82.8536 62.6985C83.1709 62.6985 83.5335 62.7439 83.8507 62.7892L83.5788 65.8742C83.3068 65.8289 82.9442 65.7835 82.491 65.7835C81.8111 65.7835 81.2672 65.965 80.9499 66.2826C80.6327 66.6001 80.4514 67.0992 80.4514 67.689V72.3618H77.188V62.8346H79.5902L80.0888 64.3771H80.2247C80.7686 63.4697 81.7658 62.6985 82.8536 62.6985Z" fill="white"/>
<path d="M52.6673 68.188H45.8233C45.8686 69.5036 46.5031 70.3202 47.8176 70.3202C48.5428 70.3202 49.0867 70.048 49.4493 69.4129H52.486C51.8515 71.6359 50.0385 72.634 47.8176 72.634C44.8261 72.634 42.4692 70.8647 42.4692 67.6889C42.4692 64.4224 44.7355 62.6531 47.8176 62.6531C51.1263 62.6531 52.6673 65.1029 52.6673 68.188ZM49.6306 66.2825C49.4039 65.3751 48.6787 64.7854 47.7722 64.7854C46.8204 64.7854 46.0952 65.2844 45.8686 66.2825H49.6306Z" fill="white"/>
<path d="M41.4722 82.7964C41.7895 82.7964 42.0614 82.751 42.2881 82.7057C42.5147 82.6603 42.7413 82.5696 42.9226 82.4788L43.1492 83.2047C42.9226 83.3408 42.6507 83.3862 42.3787 83.4769C42.1068 83.5223 41.7442 83.5676 41.3816 83.5676C40.9737 83.5676 40.5657 83.4769 40.2031 83.3408C39.8405 83.2047 39.5233 82.9779 39.2513 82.7057C38.9794 82.4334 38.7527 82.0705 38.6168 81.7076C38.4808 81.2993 38.3901 80.8456 38.3901 80.3012C38.3901 79.8021 38.4808 79.3484 38.6168 78.9401C38.7527 78.5318 38.9794 78.2142 39.2513 77.8967C39.5233 77.6244 39.8405 77.3976 40.2031 77.2615C40.5657 77.1254 40.9737 77.0347 41.4269 77.0347C41.8348 77.0347 42.1974 77.08 42.4694 77.1254C42.7413 77.1708 42.9679 77.2615 43.1946 77.3976L42.9679 78.1235C42.832 78.0781 42.7413 78.0328 42.6053 77.9874C42.5147 77.942 42.3787 77.8967 42.2881 77.8967C42.1974 77.8513 42.0614 77.8513 41.9255 77.8513C41.7895 77.8513 41.6988 77.8513 41.5175 77.8513C41.2456 77.8513 40.9283 77.8967 40.7017 77.9874C40.4298 78.0781 40.2031 78.2142 40.0218 78.4411C39.8405 78.6225 39.6592 78.8948 39.5686 79.2123C39.4326 79.5299 39.3873 79.8928 39.3873 80.3465C39.3873 80.8002 39.4326 81.2085 39.5686 81.4807C39.7046 81.7983 39.8405 82.0705 40.0218 82.252C40.2031 82.4334 40.4298 82.5695 40.7017 82.6603C40.883 82.751 41.1549 82.7964 41.4722 82.7964Z" fill="white"/>
<path d="M47.4096 77.0801C47.8176 77.0801 48.2255 77.1708 48.5881 77.3069C48.9507 77.443 49.268 77.6699 49.5399 77.8967C49.8119 78.1689 49.9932 78.4865 50.1745 78.8948C50.3104 79.3031 50.4011 79.7568 50.4011 80.3012C50.4011 80.8456 50.3104 81.2993 50.1745 81.7076C50.0385 82.1159 49.8119 82.4335 49.5399 82.7057C49.268 82.9779 48.9507 83.2047 48.5881 83.3408C48.2255 83.477 47.8176 83.5677 47.4096 83.5677C47.0017 83.5677 46.5938 83.477 46.2312 83.3408C45.8686 83.2047 45.5513 82.9779 45.2794 82.7511C45.0074 82.4789 44.8261 82.1613 44.6448 81.753C44.5089 81.3447 44.4182 80.891 44.4182 80.3466C44.4182 79.8022 44.5089 79.3485 44.6448 78.9402C44.7808 78.5319 45.0074 78.2143 45.2794 77.9421C45.5513 77.6699 45.8686 77.443 46.2312 77.3069C46.5938 77.1254 46.9564 77.0801 47.4096 77.0801ZM45.4154 80.3012C45.4154 80.7095 45.4607 81.1178 45.5513 81.4354C45.642 81.753 45.778 82.0252 45.9593 82.2067C46.1406 82.4335 46.3672 82.5696 46.5938 82.6603C46.8204 82.7511 47.0924 82.7964 47.3643 82.7964C47.6363 82.7964 47.9082 82.7511 48.1348 82.6603C48.3615 82.5696 48.5881 82.3881 48.7694 82.2067C48.9507 81.9798 49.0867 81.753 49.1773 81.4354C49.268 81.1178 49.3133 80.7549 49.3133 80.3012C49.3133 79.8475 49.268 79.4846 49.1773 79.167C49.0867 78.8494 48.9507 78.5772 48.7694 78.3958C48.5881 78.2143 48.3615 78.0328 48.1348 77.9421C47.9082 77.8513 47.6363 77.806 47.3643 77.806C47.0924 77.806 46.8204 77.8513 46.5938 77.9421C46.3672 78.0328 46.1406 78.2143 45.9593 78.3958C45.778 78.6226 45.642 78.8494 45.5513 79.167C45.4607 79.5299 45.4154 79.8929 45.4154 80.3012Z" fill="white"/>
<path d="M52.6674 77.1709H53.8912L55.2056 81.2086C55.2509 81.3901 55.3416 81.5715 55.3869 81.753C55.4322 81.9345 55.5229 82.1159 55.5682 82.2974C55.6135 82.1159 55.6589 81.9345 55.7495 81.753C55.7948 81.5715 55.8855 81.3901 55.9308 81.1632L57.2452 77.1255H58.469L59.0129 83.4316H58.1064L57.8345 80.0744C57.7891 79.7568 57.7891 79.4392 57.7891 79.0763C57.7891 78.7587 57.7438 78.4412 57.7438 78.0782C57.6532 78.3958 57.5625 78.7134 57.4719 79.0763C57.3812 79.3939 57.2906 79.7115 57.1546 80.0744L56.0215 83.4316H55.1603L54.0272 80.0744C53.8912 79.7115 53.8006 79.3939 53.7099 79.0763C53.6193 78.7587 53.5286 78.4412 53.438 78.0782C53.438 78.3958 53.3926 78.7134 53.3926 79.0763C53.3473 79.3939 53.3473 79.7115 53.302 80.0744L53.03 83.477H52.1235L52.6674 77.1709Z" fill="white"/>
<path d="M61.0978 77.1707H64.9051V77.9419H62.0043V79.8474H64.6332V80.6186H62.0043V82.7509H64.9051V83.5222H61.0525V77.1707H61.0978Z" fill="white"/>
<path d="M66.8088 77.1707H68.8485C69.1657 77.1707 69.483 77.216 69.7096 77.3068C69.9816 77.3975 70.1629 77.5336 70.3442 77.7151C70.5255 77.8965 70.6161 78.078 70.7068 78.3049C70.7974 78.5317 70.8428 78.8039 70.8428 79.0761C70.8428 79.3029 70.7974 79.5298 70.7521 79.7113C70.6615 79.8927 70.5708 80.0742 70.4802 80.2103C70.3442 80.3464 70.2082 80.4825 70.0722 80.5732C69.9363 80.664 69.755 80.7547 69.5737 80.8455L71.2507 83.4768H70.2082L68.7125 80.9816H67.67V83.4768H66.8088V77.1707ZM67.67 80.2557H68.4405C68.6672 80.2557 68.8485 80.2557 69.0298 80.2103C69.2111 80.1649 69.347 80.1196 69.483 80.0288C69.619 79.9381 69.7096 79.802 69.8003 79.6659C69.8909 79.5298 69.9363 79.3483 69.9363 79.1215C69.9363 78.7132 69.8456 78.3956 69.619 78.2141C69.3924 78.0326 69.0751 77.9419 68.6218 77.9419H67.7153V80.2557H67.67Z" fill="white"/>
<path d="M75.6019 82.7964C75.9191 82.7964 76.1911 82.751 76.4177 82.7056C76.6443 82.6603 76.871 82.5695 77.0523 82.4788L77.2789 83.2047C77.0523 83.3408 76.7803 83.3862 76.5084 83.4769C76.2364 83.5223 75.8738 83.5676 75.5112 83.5676C75.1033 83.5676 74.6954 83.4769 74.3328 83.3408C73.9702 83.2047 73.6529 82.9778 73.3809 82.7056C73.109 82.4334 72.8824 82.0705 72.7464 81.7076C72.6104 81.2992 72.5198 80.8456 72.5198 80.3011C72.5198 79.8021 72.6104 79.3484 72.7464 78.9401C72.8824 78.5318 73.109 78.2142 73.3809 77.8967C73.6529 77.6244 73.9702 77.3976 74.3328 77.2615C74.6954 77.1254 75.1033 77.0347 75.5565 77.0347C75.9645 77.0347 76.3271 77.08 76.599 77.1254C76.871 77.1708 77.0976 77.2615 77.3242 77.3976L77.0976 78.1235C76.9616 78.0781 76.871 78.0328 76.735 77.9874C76.6443 77.942 76.5084 77.8967 76.4177 77.8967C76.3271 77.8513 76.1911 77.8513 76.0551 77.8513C75.9191 77.8513 75.8285 77.8513 75.6472 77.8513C75.3752 77.8513 75.058 77.8967 74.8313 77.9874C74.5594 78.0781 74.3328 78.2142 74.1515 78.4411C73.9702 78.6225 73.7889 78.8947 73.6982 79.2123C73.5622 79.5299 73.5169 79.8928 73.5169 80.3465C73.5169 80.8002 73.5622 81.2085 73.6982 81.4807C73.8342 81.7983 73.9702 82.0705 74.1515 82.252C74.3328 82.4334 74.5594 82.5695 74.8313 82.6603C75.058 82.751 75.3299 82.7964 75.6019 82.7964Z" fill="white"/>
<path d="M80.0889 77.1707V83.4768H79.1824V77.1707H80.0889Z" fill="white"/>
<path d="M84.9841 77.0801C85.392 77.0801 85.8 77.1708 86.1626 77.3069C86.5252 77.443 86.8424 77.6699 87.1144 77.8967C87.3863 78.1689 87.5676 78.4865 87.7489 78.8948C87.8849 79.3031 87.9755 79.7568 87.9755 80.3012C87.9755 80.8456 87.8849 81.2993 87.7489 81.7076C87.6129 82.1159 87.3863 82.4335 87.1144 82.7057C86.8424 82.9779 86.5252 83.2047 86.1626 83.3408C85.8 83.477 85.392 83.5677 84.9841 83.5677C84.5762 83.5677 84.1683 83.477 83.8057 83.3408C83.4431 83.2047 83.1258 82.9779 82.8539 82.7511C82.5819 82.4789 82.4006 82.1613 82.2193 81.753C82.0833 81.3447 81.9927 80.891 81.9927 80.3466C81.9927 79.8022 82.0833 79.3485 82.2193 78.9402C82.3553 78.5319 82.5819 78.2143 82.8539 77.9421C83.1258 77.6699 83.4431 77.443 83.8057 77.3069C84.1683 77.1254 84.5762 77.0801 84.9841 77.0801ZM82.9898 80.3012C82.9898 80.7095 83.0351 81.1178 83.1258 81.4354C83.2164 81.753 83.3524 82.0252 83.5337 82.2067C83.715 82.4335 83.9416 82.5696 84.1683 82.6603C84.3949 82.7511 84.6668 82.7964 84.9388 82.7964C85.2107 82.7964 85.4827 82.7511 85.7093 82.6603C85.9359 82.5696 86.1626 82.3881 86.3439 82.2067C86.5252 81.9798 86.6611 81.753 86.7518 81.4354C86.8424 81.1178 86.8877 80.7549 86.8877 80.3012C86.8877 79.8475 86.8424 79.4846 86.7518 79.167C86.6611 78.8494 86.5252 78.5772 86.3439 78.3958C86.1626 78.2143 85.9359 78.0328 85.7093 77.9421C85.4827 77.8513 85.2107 77.806 84.9388 77.806C84.6668 77.806 84.3949 77.8513 84.1683 77.9421C83.9416 78.0328 83.715 78.2143 83.5337 78.3958C83.3524 78.6226 83.2164 78.8494 83.1258 79.167C83.0805 79.5299 82.9898 79.8929 82.9898 80.3012Z" fill="white"/>
</svg>
