<?xml version="1.0" encoding="utf-8"?>
<!-- Generator: Adobe Illustrator 23.0.0, SVG Export Plug-In . SVG Version: 6.00 Build 0)  -->
<svg version="1.1" id="Capa_1" xmlns="http://www.w3.org/2000/svg" xmlns:xlink="http://www.w3.org/1999/xlink" x="0px" y="0px"
	 viewBox="0 0 1080 588" style="enable-background:new 0 0 1080 588;" xml:space="preserve">
<style type="text/css">
	.st0{fill:#59743E;}
	.st1{fill:#FFFFFF;}
	.st2{fill:#275E35;}
	.st3{fill:#EAC018;}
	.st4{fill-rule:evenodd;clip-rule:evenodd;fill:#275E35;}
	.st5{fill-rule:evenodd;clip-rule:evenodd;fill:#428742;}
	.st6{fill:#9A774B;}
</style>
<g>
	<rect x="37.26" y="426.45" class="st0" width="1004.49" height="114.13"/>
	<g>
		<path class="st1" d="M178.39,484.84c0,9.35-2.53,16.5-7.6,21.45c-5.09,4.94-12.39,7.42-21.93,7.42h-15.68v-56.66h17.36
			c8.81,0,15.65,2.44,20.54,7.33C175.94,469.26,178.39,476.09,178.39,484.84z M171.41,485.08c0-7.38-1.85-12.95-5.55-16.7
			c-3.72-3.75-9.22-5.62-16.53-5.62h-9.57v45.25h8.03c7.84,0,13.75-1.92,17.7-5.79C169.44,498.37,171.41,492.65,171.41,485.08z"/>
		<path class="st1" d="M236.1,513.72h-31.59v-56.66h31.59v5.86h-25v18.25h23.47v5.82H211.1v20.84h25V513.72z"/>
		<path class="st1" d="M298.05,473.57c0,5.74-1.95,10.15-5.87,13.22c-3.9,3.09-9.51,4.63-16.79,4.63h-6.67v22.29h-6.59v-56.66h14.68
			C290.97,457.06,298.05,462.56,298.05,473.57z M268.72,485.78h5.92c5.84,0,10.07-0.95,12.68-2.83c2.61-1.88,3.9-4.91,3.9-9.06
			c0-3.75-1.22-6.53-3.67-8.37c-2.46-1.83-6.28-2.75-11.47-2.75h-7.37V485.78z"/>
		<path class="st1" d="M359.02,513.72l-7.06-18.03h-22.69l-6.98,18.03h-6.67l22.41-56.88h5.53l22.29,56.88H359.02z M349.91,489.77
			l-6.59-17.55c-0.85-2.22-1.73-4.96-2.63-8.18c-0.56,2.48-1.37,5.21-2.44,8.18l-6.65,17.55H349.91z"/>
		<path class="st1" d="M393.7,490.16v23.56h-6.59v-56.66h15.53c6.96,0,12.09,1.34,15.41,3.99c3.31,2.66,4.97,6.67,4.97,12.02
			c0,7.5-3.8,12.56-11.39,15.19l15.38,25.46h-7.79l-13.71-23.56H393.7z M393.7,484.5h9.03c4.65,0,8.06-0.93,10.24-2.78
			c2.16-1.83,3.24-4.62,3.24-8.3c0-3.75-1.1-6.45-3.31-8.1c-2.21-1.66-5.75-2.5-10.63-2.5h-8.57V484.5z"/>
		<path class="st1" d="M467.09,513.72h-6.59v-50.8h-17.94v-5.86h42.47v5.86h-17.94V513.72z"/>
		<path class="st1" d="M542.67,513.72l-7.06-18.03h-22.69l-6.98,18.03h-6.67l22.4-56.88h5.53l22.29,56.88H542.67z M533.56,489.77
			l-6.59-17.55c-0.85-2.22-1.73-4.96-2.63-8.18c-0.56,2.48-1.37,5.21-2.44,8.18l-6.65,17.55H533.56z"/>
		<path class="st1" d="M595.85,513.72l-19.21-50.22h-0.32c0.37,3.99,0.54,8.71,0.54,14.19v36.03h-6.08v-56.66h9.91l17.94,46.75h0.32
			l18.09-46.75h9.84v56.66h-6.59v-36.51c0-4.18,0.17-8.72,0.53-13.63h-0.31l-19.37,50.14H595.85z"/>
		<path class="st1" d="M687.51,513.72h-31.59v-56.66h31.59v5.86h-25v18.25h23.47v5.82h-23.47v20.84h25V513.72z"/>
		<path class="st1" d="M757.8,513.72h-7.52l-30.96-47.54h-0.31c0.41,5.58,0.61,10.69,0.61,15.34v32.2h-6.08v-56.66h7.43l30.89,47.36
			h0.31c-0.05-0.7-0.17-2.94-0.36-6.72c-0.17-3.79-0.24-6.48-0.19-8.11v-32.52h6.16V513.72z"/>
		<path class="st1" d="M804.29,513.72h-6.59v-50.8h-17.94v-5.86h42.47v5.86h-17.94V513.72z"/>
		<path class="st1" d="M893.43,485.32c0,9.06-2.29,16.19-6.87,21.39c-4.58,5.19-10.96,7.79-19.13,7.79
			c-8.35,0-14.78-2.56-19.32-7.66c-4.53-5.11-6.81-12.31-6.81-21.61c0-9.22,2.27-16.38,6.82-21.45s11.02-7.6,19.38-7.6
			c8.13,0,14.48,2.58,19.06,7.74C891.14,469.09,893.43,476.22,893.43,485.32z M848.28,485.32c0,7.67,1.65,13.48,4.91,17.45
			c3.28,3.97,8.01,5.94,14.24,5.94c6.28,0,11.02-1.97,14.22-5.92c3.21-3.95,4.8-9.78,4.8-17.47c0-7.62-1.6-13.41-4.79-17.35
			c-3.19-3.94-7.91-5.91-14.16-5.91c-6.28,0-11.05,1.99-14.33,5.94C849.93,471.98,848.28,477.75,848.28,485.32z"/>
		<path class="st1" d="M951.52,498.64c0,4.99-1.8,8.88-5.41,11.66c-3.62,2.78-8.54,4.19-14.73,4.19c-6.72,0-11.88-0.87-15.5-2.6
			v-6.37c2.33,0.98,4.85,1.77,7.59,2.33c2.75,0.58,5.47,0.85,8.15,0.85c4.4,0,7.69-0.83,9.91-2.5c2.22-1.66,3.34-3.99,3.34-6.96
			c0-1.95-0.41-3.56-1.19-4.82s-2.1-2.41-3.95-3.46c-1.85-1.05-4.65-2.26-8.42-3.6c-5.28-1.9-9.05-4.12-11.3-6.7
			c-2.26-2.6-3.39-5.96-3.39-10.12c0-4.36,1.65-7.84,4.92-10.42c3.29-2.6,7.62-3.89,13.02-3.89c5.64,0,10.81,1.04,15.55,3.11
			l-2.05,5.74c-4.68-1.97-9.22-2.95-13.65-2.95c-3.48,0-6.21,0.76-8.16,2.26c-1.97,1.49-2.95,3.58-2.95,6.23
			c0,1.97,0.36,3.58,1.09,4.84c0.73,1.24,1.93,2.39,3.67,3.45c1.71,1.04,4.35,2.21,7.88,3.46c5.94,2.12,10.03,4.4,12.27,6.82
			C950.4,491.62,951.52,494.77,951.52,498.64z"/>
	</g>
	<g>
		<path class="st2" d="M623.9,180.73c2.19,0,4.35-0.3,6.49-0.89c2.13-0.59,4.03-1.47,5.69-2.66c1.67-1.18,3.01-2.63,4.02-4.33
			c1.02-1.71,1.52-3.68,1.52-5.92c0-2.7-0.7-5.09-2.09-7.18c-1.39-2.09-3.22-4.02-5.47-5.79c-2.26-1.77-4.84-3.43-7.76-4.97
			c-2.91-1.54-5.87-3.09-8.9-4.65c-3.01-1.56-5.98-3.2-8.89-4.91c-2.91-1.71-5.5-3.61-7.76-5.69c-2.26-2.09-4.08-4.43-5.47-7.03
			c-1.39-2.59-2.09-5.58-2.09-8.95c0-3.38,0.63-6.51,1.9-9.4c1.27-2.89,3.12-5.39,5.57-7.5c2.45-2.11,5.45-3.77,9.02-4.97
			c3.56-1.2,7.67-1.8,12.31-1.8c8.36,0,14.95,1.75,19.78,5.25c4.83,3.5,8.33,8.57,10.48,15.19l-7.59,3.48
			c-0.89-2.7-2.02-5.17-3.39-7.41c-1.37-2.24-3.02-4.15-4.93-5.76c-1.92-1.6-4.13-2.84-6.62-3.7c-2.49-0.86-5.29-1.3-8.42-1.3
			c-2.78,0-5.22,0.39-7.31,1.17c-2.09,0.78-3.82,1.8-5.19,3.04c-1.37,1.24-2.41,2.66-3.1,4.24c-0.7,1.58-1.04,3.19-1.04,4.84
			c0,2.32,0.71,4.44,2.15,6.36c1.43,1.92,3.31,3.75,5.63,5.48c2.32,1.73,4.98,3.39,7.98,4.97c2.99,1.58,6.04,3.2,9.14,4.84
			c3.11,1.65,6.15,3.35,9.15,5.13c2.99,1.77,5.65,3.71,7.98,5.82c2.32,2.11,4.2,4.42,5.63,6.93c1.44,2.51,2.15,5.3,2.15,8.38
			c0,3.5-0.66,6.78-1.99,9.84c-1.33,3.06-3.32,5.74-5.98,8.04c-2.66,2.3-5.96,4.11-9.91,5.44c-3.95,1.33-8.54,1.99-13.77,1.99
			c-4.22,0-8-0.47-11.33-1.39c-3.33-0.93-6.27-2.28-8.83-4.05c-2.55-1.77-4.74-3.95-6.55-6.52c-1.82-2.57-3.32-5.49-4.49-8.73
			l7.97-3.29c0.93,2.87,2.18,5.44,3.74,7.72c1.56,2.28,3.39,4.21,5.48,5.79c2.09,1.58,4.41,2.79,6.96,3.61
			C618.32,180.32,621.03,180.73,623.9,180.73z"/>
		<path class="st2" d="M718.08,184.27h-13.54v-9.3c-1.61,1.22-3.18,2.47-4.71,3.73c-1.54,1.27-3.21,2.43-5,3.48
			c-1.8,1.05-3.78,1.91-5.95,2.56c-2.17,0.65-4.69,0.98-7.56,0.98c-2.66,0-5.06-0.43-7.21-1.3c-2.16-0.87-3.99-2.06-5.51-3.58
			s-2.68-3.31-3.48-5.38c-0.8-2.07-1.2-4.3-1.2-6.71c0-2.91,0.58-5.54,1.74-7.88c1.16-2.34,2.75-4.44,4.75-6.3
			c2-1.86,4.34-3.5,7.02-4.94c2.68-1.44,5.51-2.72,8.51-3.86c2.99-1.14,6.08-2.15,9.27-3.04c3.19-0.89,6.3-1.71,9.34-2.47v-4.24
			c0-3.08-0.31-5.68-0.92-7.82c-0.61-2.13-1.49-3.85-2.63-5.16c-1.14-1.31-2.52-2.25-4.14-2.82c-1.62-0.57-3.45-0.85-5.48-0.85
			c-2.28,0-4.13,0.3-5.57,0.89c-1.43,0.59-2.56,1.37-3.39,2.34c-0.82,0.97-1.38,2.08-1.68,3.32c-0.3,1.24-0.44,2.5-0.44,3.77
			c0,1.18-0.1,2.32-0.28,3.42c-0.19,1.1-0.54,2.06-1.05,2.88c-0.51,0.82-1.19,1.49-2.05,1.99c-0.87,0.51-1.98,0.76-3.33,0.76
			c-1.05,0-2.02-0.2-2.88-0.6c-0.87-0.4-1.61-0.96-2.25-1.68c-0.63-0.72-1.12-1.56-1.45-2.53c-0.34-0.97-0.51-2.03-0.51-3.17
			c0-2.24,0.74-4.32,2.22-6.26c1.47-1.94,3.46-3.62,5.95-5.03c2.49-1.41,5.4-2.53,8.73-3.35c3.33-0.82,6.83-1.23,10.5-1.23
			c4.48,0,8.25,0.43,11.33,1.3c3.08,0.87,5.57,2.08,7.47,3.64c1.9,1.56,3.27,3.46,4.11,5.7c0.84,2.24,1.27,4.7,1.27,7.4V184.27z
			 M704.53,144.65c-1.94,0.63-3.96,1.35-6.05,2.15c-2.09,0.8-4.13,1.7-6.14,2.69c-2,0.99-3.91,2.07-5.73,3.23
			c-1.81,1.16-3.41,2.4-4.78,3.7c-1.37,1.31-2.46,2.7-3.26,4.18c-0.81,1.48-1.2,3.02-1.2,4.62c0,1.64,0.31,3.22,0.92,4.71
			c0.61,1.5,1.42,2.81,2.43,3.93c1.01,1.12,2.18,2,3.52,2.66c1.33,0.65,2.71,0.98,4.14,0.98c1.52,0,2.96-0.2,4.34-0.6
			c1.37-0.4,2.7-0.94,3.98-1.61c1.29-0.67,2.57-1.47,3.86-2.38c1.28-0.91,2.6-1.87,3.96-2.88V144.65z"/>
		<path class="st2" d="M736.12,116.3h13.48v12.4c4.1-4.6,8.36-8.05,12.79-10.35c4.43-2.3,8.94-3.45,13.54-3.45
			c2.37,0,4.59,0.54,6.68,1.61c2.09,1.08,3.9,2.54,5.44,4.4c1.54,1.86,2.76,4.04,3.67,6.55c0.91,2.51,1.37,5.18,1.37,8.01v48.8
			h-13.55v-46.52c0-4.47-1.01-7.87-3.04-10.19c-2.03-2.32-4.62-3.48-7.78-3.48c-1.43,0-2.96,0.23-4.56,0.7
			c-1.61,0.46-3.23,1.13-4.87,1.99c-1.65,0.87-3.29,1.9-4.93,3.1c-1.65,1.2-3.23,2.54-4.75,4.02v50.38h-13.48V116.3z"/>
		<path class="st2" d="M627.73,201.85l40.92,88.88H653.8l-13.28-29h-37.24l-13.72,29h-7.3l41.85-88.88H627.73z M605.84,256.12h32
			l-15.78-34.37L605.84,256.12z"/>
		<path class="st2" d="M676.75,223.74h13.28v12.22c4.04-4.53,8.24-7.93,12.6-10.2c4.36-2.26,8.81-3.4,13.35-3.4
			c2.33,0,4.52,0.53,6.58,1.59c2.06,1.06,3.85,2.51,5.36,4.34c1.52,1.83,2.72,3.98,3.62,6.46c0.9,2.47,1.35,5.1,1.35,7.89v48.09
			h-13.35v-45.85c0-4.41-1-7.75-2.99-10.04c-2-2.29-4.55-3.43-7.67-3.43c-1.41,0-2.91,0.23-4.49,0.69c-1.58,0.46-3.18,1.11-4.8,1.96
			c-1.62,0.85-3.24,1.87-4.86,3.06c-1.63,1.18-3.18,2.51-4.68,3.96v49.65h-13.28V223.74z"/>
		<path class="st2" d="M783.85,282.19c-1.79,3.08-4.16,5.51-7.11,7.3c-2.95,1.79-6.59,2.68-10.91,2.68c-2.25,0-4.19-0.38-5.83-1.12
			c-1.65-0.75-3.01-1.81-4.09-3.18c-1.08-1.37-1.88-3.02-2.4-4.93c-0.52-1.91-0.78-4.03-0.78-6.36v-47.22h-11.6v-3.31
			c3.74,0,6.82-0.68,9.23-2.03c2.41-1.35,4.39-3.18,5.93-5.49c1.54-2.31,2.74-4.98,3.62-8.01c0.87-3.04,1.64-6.26,2.31-9.67h3.8
			v22.89h15.03v5.61h-15.03v47.22c0,1,0.19,1.93,0.56,2.8c0.38,0.87,0.88,1.63,1.53,2.28c0.65,0.65,1.41,1.15,2.31,1.53
			c0.89,0.37,1.84,0.56,2.84,0.56c1.5,0,2.86-0.36,4.08-1.09c1.23-0.73,2.3-1.63,3.21-2.71L783.85,282.19z"/>
		<path class="st2" d="M824.52,292.17c-5.12,0-9.85-0.9-14.19-2.68c-4.35-1.79-8.09-4.22-11.23-7.3c-3.14-3.07-5.59-6.68-7.36-10.82
			c-1.77-4.14-2.65-8.55-2.65-13.25c0-4.95,0.88-9.6,2.65-13.94c1.76-4.34,4.22-8.13,7.36-11.35c3.14-3.22,6.88-5.77,11.23-7.64
			c4.34-1.87,9.07-2.81,14.19-2.81c5.12,0,9.83,0.85,14.13,2.56c4.31,1.71,8.04,4.05,11.2,7.02c3.16,2.97,5.62,6.47,7.39,10.48
			c1.77,4.01,2.65,8.3,2.65,12.88c0,5.07-0.88,9.85-2.65,14.32c-1.76,4.47-4.23,8.38-7.39,11.72c-3.16,3.35-6.89,5.99-11.2,7.92
			C834.34,291.2,829.64,292.17,824.52,292.17z M827.01,287.24c2.62,0,5.02-0.68,7.2-2.03c2.18-1.35,4.07-3.16,5.68-5.43
			c1.6-2.27,2.84-4.92,3.71-7.95c0.87-3.03,1.31-6.24,1.31-9.61c0-4.86-0.42-9.41-1.25-13.63c-0.83-4.22-2.18-7.91-4.05-11.07
			c-1.88-3.16-4.31-5.65-7.3-7.46c-2.99-1.81-6.67-2.71-11.04-2.71c-2.25,0-4.41,0.65-6.49,1.93c-2.08,1.29-3.92,3.06-5.52,5.3
			c-1.6,2.25-2.88,4.87-3.84,7.86c-0.95,2.99-1.43,6.17-1.43,9.54c0,4.87,0.52,9.44,1.56,13.72c1.04,4.28,2.54,8.01,4.49,11.19
			c1.95,3.18,4.36,5.7,7.24,7.55C820.16,286.32,823.4,287.24,827.01,287.24z"/>
		<path class="st2" d="M872.67,223.74h13.28v12.22c4.04-4.53,8.24-7.93,12.6-10.2c4.36-2.26,8.81-3.4,13.35-3.4
			c2.33,0,4.52,0.53,6.58,1.59c2.06,1.06,3.85,2.51,5.36,4.34c1.52,1.83,2.72,3.98,3.62,6.46c0.9,2.47,1.35,5.1,1.35,7.89v48.09
			h-13.35v-45.85c0-4.41-1-7.75-2.99-10.04c-2-2.29-4.55-3.43-7.67-3.43c-1.41,0-2.91,0.23-4.49,0.69c-1.58,0.46-3.18,1.11-4.8,1.96
			c-1.62,0.85-3.24,1.87-4.86,3.06c-1.63,1.18-3.18,2.51-4.68,3.96v49.65h-13.28V223.74z"/>
		<path class="st2" d="M951.2,189.44c1.04,0,2.03,0.18,2.97,0.53c0.93,0.35,1.75,0.83,2.43,1.44c0.69,0.6,1.24,1.31,1.65,2.12
			c0.42,0.81,0.62,1.67,0.62,2.59c0,0.92-0.21,1.78-0.62,2.59c-0.41,0.81-0.96,1.52-1.65,2.12c-0.68,0.6-1.5,1.08-2.43,1.44
			c-0.94,0.36-1.92,0.53-2.97,0.53c-1.04,0-2.01-0.17-2.93-0.53c-0.92-0.35-1.72-0.83-2.4-1.44c-0.69-0.6-1.24-1.31-1.65-2.12
			c-0.42-0.81-0.63-1.67-0.63-2.59c0-0.91,0.21-1.78,0.63-2.59c0.41-0.81,0.96-1.52,1.65-2.12c0.68-0.6,1.48-1.08,2.4-1.44
			C949.19,189.62,950.16,189.44,951.2,189.44z M944.72,226.18l9.35-3.8h3.87v68.36h-13.22V226.18z"/>
		<path class="st2" d="M1006.78,292.17c-5.12,0-9.85-0.9-14.19-2.68c-4.35-1.79-8.09-4.22-11.23-7.3
			c-3.14-3.07-5.59-6.68-7.36-10.82c-1.77-4.14-2.65-8.55-2.65-13.25c0-4.95,0.88-9.6,2.65-13.94c1.76-4.34,4.22-8.13,7.36-11.35
			c3.14-3.22,6.88-5.77,11.23-7.64c4.34-1.87,9.07-2.81,14.19-2.81c5.12,0,9.83,0.85,14.13,2.56c4.31,1.71,8.03,4.05,11.2,7.02
			c3.16,2.97,5.63,6.47,7.39,10.48c1.77,4.01,2.65,8.3,2.65,12.88c0,5.07-0.88,9.85-2.65,14.32c-1.76,4.47-4.23,8.38-7.39,11.72
			c-3.16,3.35-6.89,5.99-11.2,7.92C1016.6,291.2,1011.89,292.17,1006.78,292.17z M1009.27,287.24c2.62,0,5.02-0.68,7.2-2.03
			c2.18-1.35,4.07-3.16,5.68-5.43c1.6-2.27,2.84-4.92,3.71-7.95c0.87-3.03,1.31-6.24,1.31-9.61c0-4.86-0.42-9.41-1.25-13.63
			c-0.83-4.22-2.18-7.91-4.05-11.07c-1.88-3.16-4.31-5.65-7.3-7.46c-2.99-1.81-6.67-2.71-11.04-2.71c-2.25,0-4.41,0.65-6.49,1.93
			c-2.08,1.29-3.92,3.06-5.52,5.3c-1.6,2.25-2.88,4.87-3.84,7.86c-0.95,2.99-1.43,6.17-1.43,9.54c0,4.87,0.52,9.44,1.56,13.72
			c1.04,4.28,2.54,8.01,4.49,11.19c1.95,3.18,4.36,5.7,7.24,7.55C1002.41,286.32,1005.65,287.24,1009.27,287.24z"/>
		<path class="st3" d="M206.37,284.65H65.34c0,0-30.04-1.95-26.7-36.44c0,0,29.1-180.81,222.07-188.6c0,0,125.65-1.11,194.64,110.16
			l6.12,87.35l-115.72,31.71L206.37,284.65z"/>
		<g>
			<path class="st4" d="M391.76,223.16l-86.73,87.93l56.42,57.24c7.9,7.99,18.69,12.54,29.89,12.64
				c11.16,0.13,22.32-4.08,30.78-12.68l56.37-57.2L391.76,223.16z"/>
			<path class="st4" d="M478.5,311.07l-86.74-87.88l56.43-57.21c7.89-8.01,18.7-12.59,29.9-12.67c11.15-0.08,22.27,4.12,30.73,12.69
				l56.39,57.19L478.5,311.07z"/>
			<path class="st5" d="M218.26,223.17l-86.69,87.93l56.4,57.21c7.93,8.02,18.67,12.54,29.9,12.64
				c11.11,0.13,22.28-4.12,30.71-12.66l56.41-57.2L218.26,223.17z"/>
			<path class="st5" d="M305.01,311.07l-86.72-87.88l56.36-57.21c7.96-8.02,18.76-12.58,29.95-12.66
				c11.12-0.08,22.3,4.12,30.77,12.68l56.38,57.19L305.01,311.07z"/>
		</g>
		<g>
			<path class="st6" d="M625.18,337.37c0,6.34-2.08,11.19-6.24,14.54c-4.16,3.35-10.15,5.03-17.98,5.03h-12.7v-38.41h14.03
				c7.22,0,12.84,1.65,16.86,4.94S625.18,331.4,625.18,337.37z M617.35,337.58c0-9.19-5.08-13.79-15.25-13.79h-6.43v27.87h5.28
				C611.89,351.66,617.35,346.97,617.35,337.58z"/>
			<path class="st6" d="M666.97,356.94h-25.68v-38.41h25.68v5.31h-18.26v10.45h17.11v5.25h-17.11v12.06h18.26V356.94z"/>
			<path class="st6" d="M725.64,356.94l-13.17-32.08h-0.25c0.35,4.76,0.53,9.23,0.53,13.4v18.68h-6.74v-38.41h10.46l12.61,30.55
				h0.19l12.98-30.55h10.49v38.41h-7.14v-18.99c0-1.91,0.06-4.4,0.17-7.46c0.11-3.06,0.21-4.92,0.3-5.57h-0.25l-13.63,32.02H725.64z
				"/>
			<path class="st6" d="M799.22,356.94l-4.53-10.67h-17.36l-4.44,10.67h-7.82l16.98-38.56h8.07l16.98,38.56H799.22z M792.73,340.87
				l-4.25-10.46c-0.31-0.7-0.74-1.8-1.29-3.31c-0.55-1.51-0.93-2.61-1.13-3.31c-0.56,2.15-1.38,4.51-2.45,7.07l-4.1,10.01H792.73z"
				/>
			<path class="st6" d="M819.46,356.94v-38.41h7.42v33.02h19.22v5.39H819.46z"/>
			<path class="st6" d="M888.45,356.94l-4.53-10.67h-17.36l-4.44,10.67h-7.82l16.98-38.56h8.07l16.98,38.56H888.45z M881.96,340.87
				l-4.25-10.46c-0.31-0.7-0.74-1.8-1.29-3.31c-0.55-1.51-0.93-2.61-1.13-3.31c-0.56,2.15-1.38,4.51-2.45,7.07l-4.1,10.01H881.96z"
				/>
		</g>
	</g>
</g>
</svg>
