<?xml version="1.0" encoding="utf-8"?>
<!-- Generator: Adobe Illustrator 24.1.0, SVG Export Plug-In . SVG Version: 6.00 Build 0)  -->
<svg version="1.1" id="Capa_1" xmlns="http://www.w3.org/2000/svg" xmlns:xlink="http://www.w3.org/1999/xlink" x="0px" y="0px"
	 viewBox="0 0 434 188.6" style="enable-background:new 0 0 434 188.6;" xml:space="preserve">
<style type="text/css">
	.st0{fill:#9E8678;}
	.st1{fill:#99C34F;}
	.st2{fill:#71B65B;}
	.st3{fill:#8FC16C;}
	.st4{fill:#2F8235;}
	.st5{fill:#2B6F30;}
</style>
<g>
	<g>
		<g>
			<polygon class="st0" points="87.1,146.3 81,146.3 81,181.2 103.1,181.2 103.1,175.6 87.1,175.6 			"/>
			<path class="st0" d="M124.7,157.3c-2.1-1.2-4.5-1.9-7.1-1.9c-2.7,0-5.1,0.6-7.1,1.9c-2.1,1.2-3.7,2.9-4.8,4.9
				c-1.1,2-1.6,4.1-1.6,6.4c0,1.7,0.3,3.4,1,5c0.6,1.6,1.5,3,2.7,4.2c1.2,1.2,2.6,2.2,4.3,2.9c1.7,0.7,3.6,1.1,5.6,1.1
				c2,0,3.9-0.4,5.6-1.1c1.7-0.7,3.2-1.7,4.3-2.9c1.1-1.2,2-2.6,2.7-4.2c0.6-1.6,1-3.2,1-5c0-2.3-0.5-4.4-1.6-6.4
				C128.4,160.2,126.8,158.6,124.7,157.3z M117.5,160.8c1.6,0,2.9,0.4,4.1,1.1c1.2,0.8,2.1,1.7,2.7,2.9c0.6,1.2,0.9,2.5,0.9,3.9
				c0,1.4-0.3,2.7-0.9,3.9c-0.6,1.2-1.5,2.1-2.7,2.9c-1.2,0.7-2.5,1.1-4.1,1.1c-1.6,0-2.9-0.4-4.1-1.1c-1.2-0.8-2.1-1.7-2.7-2.9
				c-0.6-1.2-0.9-2.5-0.9-3.9c0-1.4,0.3-2.7,0.9-3.9c0.6-1.2,1.5-2.1,2.7-2.9C114.6,161.1,116,160.8,117.5,160.8z"/>
			<path class="st0" d="M146.3,166.3l-4.1-1.2c-1.4-0.4-2-0.8-2.3-1c-0.3-0.2-0.4-0.6-0.4-1.3c0-0.7,0.2-1.3,0.7-1.7
				c0.5-0.4,1.3-0.7,2.4-0.7c1.1,0,1.8,0.2,2.4,0.7c0.6,0.5,0.9,1.1,1,1.9l0.1,1h5.5l-0.2-1.3c-0.3-2.2-1.2-4-2.7-5.4
				c-1.5-1.3-3.5-2-6-2c-2.5,0-4.6,0.7-6.2,2c-1.7,1.4-2.6,3.2-2.6,5.4c0,2.5,1.2,5.8,6.7,7.3l3.7,1.1c1,0.3,1.7,0.7,2.2,1.1
				c0.4,0.4,0.5,0.8,0.5,1.5c0,0.8-0.3,1.5-1,2c-0.8,0.6-1.8,0.9-3.1,0.9c-1.3,0-2.4-0.3-3.1-0.9c-0.8-0.6-1.2-1.4-1.4-2.5l-0.2-0.9
				h-5.5l0.2,1.3c0.4,2.6,1.5,4.7,3.3,6.1c1.8,1.3,4,2,6.6,2c2.6,0,4.9-0.7,6.8-2.2c2-1.5,3-3.5,3-6c0-1.9-0.6-3.5-1.7-4.7
				C149.8,167.8,148.3,166.9,146.3,166.3z"/>
			<path class="st0" d="M189.6,150c-1.1-1.1-2.5-2-4.1-2.7c-1.6-0.7-3.3-1-5.2-1h-13v34.9h6v-10.1h7c2.4,0,4.7-0.6,6.6-1.7
				c2-1.2,3.5-2.7,4.6-4.6c1.1-1.9,1.6-3.9,1.6-6.1c0-1.6-0.3-3.2-0.9-4.7C191.6,152.5,190.7,151.1,189.6,150z M173.4,151.8h6.6
				c1.5,0,2.8,0.3,3.9,1c1.1,0.7,1.9,1.5,2.4,2.5c0.5,1,0.8,2.1,0.8,3.3c0,1.2-0.3,2.3-0.8,3.4c-0.5,1-1.3,1.8-2.4,2.5
				c-1.1,0.7-2.4,1-3.9,1h-6.6V151.8z"/>
			<path class="st0" d="M213.3,173.3c-0.6,1-1.5,1.8-2.6,2.4c-1.2,0.6-2.5,1-4.1,1c-2.1,0-3.8-0.6-5.1-1.8c-1-0.9-1.7-2.1-2.1-3.7
				h19.9v-2.9c0-2.4-0.5-4.6-1.6-6.5c-1-2-2.6-3.5-4.6-4.7c-2-1.2-4.3-1.7-6.8-1.7c-2.5,0-4.8,0.6-6.8,1.8c-2,1.2-3.6,2.8-4.7,4.8
				c-1.1,2-1.7,4.2-1.7,6.6c0,2.4,0.5,4.6,1.6,6.6c1.1,2,2.6,3.6,4.7,4.8c2,1.2,4.4,1.8,7.1,1.8c2.7,0,5.2-0.7,7.3-2.1
				c2.2-1.4,3.8-3.2,4.8-5.3l0.8-1.6h-5.9L213.3,173.3z M213.5,166.2h-14.1c0.4-1.5,1.1-2.8,2.1-3.8c1.3-1.3,3-1.9,5-1.9
				c2.1,0,3.7,0.6,5,1.9C212.6,163.4,213.2,164.6,213.5,166.2z"/>
			<path class="st0" d="M230.6,161.9c1.2-0.7,2.5-1.1,4-1.1c1.7,0,3.2,0.4,4.3,1.1c1.2,0.8,2,1.8,2.6,3.1l0.3,0.7h5.9l-0.5-1.5
				c-0.8-2.5-2.4-4.6-4.6-6.3c-2.2-1.6-4.9-2.4-7.9-2.4c-2.6,0-5,0.6-7,1.8c-2.1,1.2-3.6,2.8-4.7,4.8c-1.1,2-1.6,4.2-1.6,6.6
				c0,2.4,0.5,4.6,1.6,6.6c1.1,2,2.7,3.6,4.7,4.8c2,1.2,4.4,1.8,7,1.8c3,0,5.7-0.8,7.9-2.4c2.2-1.6,3.8-3.7,4.6-6.3l0.5-1.5h-5.9
				l-0.3,0.7c-1.3,2.8-3.6,4.2-7,4.2c-1.5,0-2.9-0.4-4-1.1c-1.2-0.7-2-1.7-2.6-2.8c-0.6-1.2-0.9-2.5-0.9-3.9c0-1.4,0.3-2.7,0.9-3.9
				C228.6,163.6,229.4,162.6,230.6,161.9z"/>
			<path class="st0" d="M270.3,158.5c-0.6-0.5-1.2-0.9-1.9-1.3c-1.9-1.1-4.1-1.7-6.5-1.7c-2.5,0-4.8,0.6-6.7,1.9
				c-2,1.2-3.5,2.9-4.6,4.8c-1,2-1.6,4.1-1.6,6.4c0,2.3,0.5,4.5,1.6,6.4c1,2,2.6,3.6,4.6,4.9c2,1.2,4.3,1.9,6.8,1.9
				c2.4,0,4.5-0.6,6.5-1.7c0.7-0.4,1.4-0.9,2-1.4v2.5h5.8V156h-5.8V158.5z M266.2,175.6c-1.2,0.6-2.4,0.9-3.7,0.9
				c-2.3,0-4.1-0.7-5.5-2.2c-1.4-1.5-2.1-3.4-2.1-5.6c0-2.3,0.7-4.1,2.1-5.6c1.4-1.5,3.2-2.2,5.5-2.2c1,0,1.9,0.2,2.8,0.5
				c0.9,0.4,1.8,0.9,2.5,1.5c0.7,0.6,1.3,1.4,1.7,2.4c0.4,1,0.7,2.1,0.7,3.4c0,1.6-0.4,3.1-1.1,4.3
				C268.3,174.1,267.4,175,266.2,175.6z"/>
			<path class="st0" d="M294.5,155.5c-2.3,0-4.3,0.5-5.9,1.4c-0.5,0.3-1,0.7-1.5,1.1v-2h-5.8v25.2h5.9v-13.7c0-1.9,0.6-3.4,1.7-4.7
				c1.2-1.2,2.6-1.8,4.4-1.8c1.9,0,3.2,0.5,4.1,1.7c0.9,1.2,1.4,2.9,1.4,5v13.6h5.9v-14.3c0-3.3-0.9-6-2.8-8.2
				C300.1,156.6,297.5,155.5,294.5,155.5z"/>
			<path class="st0" d="M328.7,157.3c-2.1-1.2-4.5-1.9-7.1-1.9c-2.7,0-5.1,0.6-7.1,1.9c-2.1,1.2-3.7,2.9-4.8,4.9
				c-1.1,2-1.6,4.1-1.6,6.4c0,1.7,0.3,3.4,1,5c0.6,1.6,1.5,3,2.7,4.2c1.2,1.2,2.6,2.2,4.3,2.9c1.7,0.7,3.6,1.1,5.6,1.1
				c2,0,3.9-0.4,5.6-1.1c1.7-0.7,3.2-1.7,4.3-2.9c1.1-1.2,2-2.6,2.7-4.2c0.6-1.6,1-3.2,1-5c0-2.3-0.5-4.4-1.6-6.4
				C332.4,160.2,330.8,158.6,328.7,157.3z M321.5,160.8c1.6,0,2.9,0.4,4.1,1.1c1.2,0.8,2.1,1.7,2.7,2.9c0.6,1.2,0.9,2.5,0.9,3.9
				c0,1.4-0.3,2.7-0.9,3.9c-0.6,1.2-1.5,2.1-2.7,2.9c-1.2,0.7-2.5,1.1-4.1,1.1c-1.6,0-2.9-0.4-4.1-1.1c-1.2-0.8-2.1-1.7-2.7-2.9
				c-0.6-1.2-0.9-2.5-0.9-3.9c0-1.4,0.3-2.7,0.9-3.9c0.6-1.2,1.5-2.1,2.7-2.9C318.6,161.1,320,160.8,321.5,160.8z"/>
			<path class="st0" d="M354.9,168.9c-1-1.2-2.6-2-4.6-2.6l-4.1-1.2c-1.4-0.4-2-0.8-2.3-1c-0.3-0.2-0.4-0.6-0.4-1.3
				c0-0.7,0.2-1.3,0.7-1.7c0.5-0.4,1.3-0.7,2.4-0.7c1.1,0,1.8,0.2,2.4,0.7c0.6,0.5,0.9,1.1,1,1.9l0.1,1h5.5l-0.2-1.3
				c-0.3-2.2-1.2-4-2.7-5.4c-1.5-1.3-3.5-2-6-2c-2.5,0-4.6,0.7-6.2,2c-1.7,1.4-2.6,3.2-2.6,5.4c0,2.5,1.2,5.8,6.7,7.3l3.7,1.1
				c1,0.3,1.7,0.7,2.2,1.1c0.4,0.4,0.5,0.8,0.5,1.5c0,0.8-0.3,1.5-1,2c-0.8,0.6-1.8,0.9-3.1,0.9c-1.3,0-2.4-0.3-3.1-0.9
				c-0.8-0.6-1.2-1.4-1.4-2.5l-0.2-0.9h-5.5l0.2,1.3c0.4,2.6,1.5,4.7,3.3,6.1c1.8,1.3,4,2,6.6,2c2.6,0,4.9-0.7,6.8-2.2
				c2-1.5,3-3.5,3-6C356.5,171.7,356,170.1,354.9,168.9z"/>
		</g>
		<g>
			<polygon class="st1" points="93.5,128 83.5,101.9 77.4,101.9 91,136.8 95.9,136.8 109.5,101.9 103.5,101.9 			"/>
			<rect x="111.4" y="111.6" class="st1" width="5.9" height="25.2"/>
			<path class="st1" d="M114.3,101.4c-1,0-1.9,0.3-2.5,1c-0.7,0.7-1,1.5-1,2.5c0,1,0.3,1.8,1,2.5c0.7,0.7,1.5,1,2.5,1
				c1,0,1.9-0.4,2.5-1c0.6-0.7,1-1.5,1-2.5c0-1-0.3-1.8-1-2.5C116.2,101.8,115.3,101.4,114.3,101.4z"/>
			<rect x="122.6" y="100.5" class="st1" width="5.9" height="36.3"/>
			<rect x="133.6" y="100.5" class="st1" width="5.9" height="36.3"/>
			<path class="st1" d="M164.3,111.6v2.5c-0.6-0.5-1.2-0.9-1.9-1.3c-1.9-1.1-4.1-1.7-6.5-1.7c-2.5,0-4.8,0.6-6.7,1.9
				c-2,1.2-3.5,2.9-4.6,4.8c-1,2-1.6,4.1-1.6,6.4c0,2.3,0.5,4.5,1.6,6.4c1,2,2.6,3.6,4.6,4.9c2,1.2,4.3,1.9,6.8,1.9
				c2.4,0,4.5-0.6,6.5-1.7c0.7-0.4,1.4-0.9,2-1.4v2.5h5.8v-25.2H164.3z M160.3,131.2c-1.2,0.6-2.4,0.9-3.7,0.9
				c-2.3,0-4.1-0.7-5.5-2.2c-1.4-1.5-2.1-3.4-2.1-5.6c0-2.3,0.7-4.1,2.1-5.6c1.4-1.5,3.2-2.2,5.5-2.2c1,0,1.9,0.2,2.8,0.5
				c0.9,0.4,1.8,0.9,2.5,1.5c0.7,0.6,1.3,1.4,1.7,2.4c0.4,1,0.7,2.1,0.7,3.4c0,1.6-0.4,3.1-1.1,4.3
				C162.3,129.7,161.4,130.6,160.3,131.2z"/>
		</g>
	</g>
	<g>
		<path class="st2" d="M287.2,78.2c-17.9,13.1-43.5,8.7-43.5,8.7s3.5-25.7,21.4-38.8c17.9-13.1,43.5-8.7,43.5-8.7
			S305.1,65.1,287.2,78.2z"/>
		<path class="st3" d="M221,57.9c-2.7-15.4,8.1-30.1,8.1-30.1s15.1,10.2,17.8,25.6s-8.1,30.1-8.1,30.1S223.6,73.3,221,57.9z"/>
		<path class="st3" d="M248.8,26.4c3.8-12.6,17.5-19.6,17.5-19.6s7.5,13.4,3.6,26c-3.8,12.6-17.5,19.6-17.5,19.6
			S245,38.9,248.8,26.4z"/>
		<path class="st4" d="M216.2,40.5c3.4,9.5-1.8,20.1-1.8,20.1s-10.8-4.8-14.2-14.3c-3.4-9.5,1.8-20.1,1.8-20.1S212.7,31,216.2,40.5z
			"/>
		<path class="st4" d="M182.6,75.2c10-1.4,19.3,6,19.3,6s-7,9.5-17,10.9c-10,1.4-19.3-6-19.3-6S172.6,76.5,182.6,75.2z"/>
		<path class="st4" d="M285.6,90.5c14.1,2.8,23.1,16.9,23.1,16.9s-13.8,9.5-27.9,6.7c-14.1-2.8-23.1-16.9-23.1-16.9
			S271.5,87.7,285.6,90.5z"/>
		<path class="st5" d="M181.3,68.8c-11.9-6.8-15.9-22.3-15.9-22.3s15.4-4.5,27.3,2.2c11.9,6.8,15.9,22.3,15.9,22.3
			S193.2,75.6,181.3,68.8z"/>
		<path class="st0" d="M265.5,138c-0.4-0.3-0.8-0.6-1.1-0.9c-0.4-0.3-0.8-0.6-1.2-0.8c-0.4-0.3-0.8-0.6-1.2-0.8
			c-0.4-0.3-0.8-0.6-1.2-0.8c-0.8-0.5-1.7-1-2.5-1.5c-0.9-0.5-1.7-0.9-2.6-1.3l-1.3-0.6c-0.4-0.2-0.9-0.4-1.4-0.6
			c-0.9-0.4-1.8-0.7-2.7-1.1c-0.9-0.3-1.8-0.6-2.8-0.9c-2.6-0.8-5.2-1.5-7.9-2c9.9-36.1,39.5-66.4,39.5-66.4s-41,17.9-60.5,65.1
			c-1.9,0.1-3.8,0.3-5.7,0.5c-3.8,0.5-7.6,1.1-11.3,2c-3.7,0.9-7.4,2.1-11,3.5c-1.8,0.7-3.5,1.5-5.3,2.3c-1.7,0.9-3.4,1.8-5,2.9
			c1.9,0.1,3.9,0.1,5.7,0.1l5.6,0l11-0.1c3.6,0,7.3-0.1,10.8-0.1c3.6,0,7.2,0.1,10.7,0.2c7.1,0.2,14.2,0.6,21.2,1.4
			c0.9,0.1,1.8,0.2,2.7,0.3l2.7,0.4c0.4,0.1,0.9,0.1,1.3,0.2l1.3,0.2l1.3,0.2c0.4,0.1,0.9,0.1,1.3,0.2c3.6,0.6,7.2,1.3,11,2l0,0
			c0.3,0,0.5,0,0.7-0.2c0.3-0.3,0.3-0.8,0-1.1C267,139.3,266.3,138.7,265.5,138z"/>
		<path class="st2" d="M230,91.2c-2.9-4.3-6.7-9.1-11.3-13.7c-14.4-14.4-30.2-17.2-30.2-17.2c17.3,10.1,26.3,30.1,31,47.4
			C222.8,101.6,226.3,96.1,230,91.2z"/>
	</g>
</g>
</svg>
