<svg width="20" height="20" viewBox="0 0 20 20" fill="none" xmlns="http://www.w3.org/2000/svg">
<path d="M9.99102 1.66602C5.39102 1.66602 1.66602 5.39935 1.66602 9.99935C1.66602 14.5993 5.39102 18.3327 9.99102 18.3327C14.5993 18.3327 18.3327 14.5993 18.3327 9.99935C18.3327 5.39935 14.5993 1.66602 9.99102 1.66602ZM9.99935 16.666C6.31602 16.666 3.33268 13.6827 3.33268 9.99935C3.33268 6.31602 6.31602 3.33268 9.99935 3.33268C13.6827 3.33268 16.666 6.31602 16.666 9.99935C16.666 13.6827 13.6827 16.666 9.99935 16.666ZM10.416 5.83268H9.16602V10.8327L13.541 13.4577L14.166 12.4327L10.416 10.2077V5.83268Z" fill="#158A2F"/>
</svg>
