<svg width="20" height="20" viewBox="0 0 20 20" fill="none" xmlns="http://www.w3.org/2000/svg">
<path d="M9.99935 1.66602C6.77435 1.66602 4.16602 4.27435 4.16602 7.49935C4.16602 11.8743 9.99935 18.3327 9.99935 18.3327C9.99935 18.3327 15.8327 11.8743 15.8327 7.49935C15.8327 4.27435 13.2243 1.66602 9.99935 1.66602ZM5.83268 7.49935C5.83268 5.19935 7.69935 3.33268 9.99935 3.33268C12.2993 3.33268 14.166 5.19935 14.166 7.49935C14.166 9.89935 11.766 13.491 9.99935 15.7327C8.26602 13.5077 5.83268 9.87435 5.83268 7.49935Z" fill="#158A2F"/>
<path d="M9.99935 9.58268C11.1499 9.58268 12.0827 8.64994 12.0827 7.49935C12.0827 6.34876 11.1499 5.41602 9.99935 5.41602C8.84876 5.41602 7.91602 6.34876 7.91602 7.49935C7.91602 8.64994 8.84876 9.58268 9.99935 9.58268Z" fill="#158A2F"/>
</svg>
