<svg width="25" height="26" viewBox="0 0 25 26" fill="none" xmlns="http://www.w3.org/2000/svg">
<path fill-rule="evenodd" clip-rule="evenodd" d="M9.48185 22.7791C10.0476 22.4801 10.7723 22.6556 11.1005 23.1711C11.2046 23.3346 11.3541 23.4703 11.5338 23.5646C11.7136 23.659 11.9175 23.7086 12.1249 23.7086C12.3324 23.7086 12.5362 23.659 12.716 23.5646C12.8958 23.4703 13.0452 23.3346 13.1494 23.1711C13.4775 22.6556 14.2023 22.4801 14.768 22.7791C15.3338 23.0782 15.5264 23.7384 15.1982 24.2539C14.8859 24.7444 14.4376 25.1516 13.8982 25.4346C13.3589 25.7177 12.7474 25.8666 12.1249 25.8666C11.5025 25.8666 10.891 25.7177 10.3516 25.4346C9.81228 25.1516 9.364 24.7444 9.05168 24.2539C8.72348 23.7384 8.91608 23.0782 9.48185 22.7791Z" fill="#007532"/>
<path fill-rule="evenodd" clip-rule="evenodd" d="M6.12348 2.43719C7.71518 0.876682 9.87399 0 12.125 0C14.376 0 16.5348 0.876682 18.1265 2.43719C19.7182 3.99769 20.6124 6.11419 20.6124 8.32108C20.6124 12.3065 21.4819 14.7814 22.2831 16.2215C22.6854 16.9446 23.0772 17.419 23.3493 17.7006C23.4856 17.8417 23.5928 17.9353 23.6573 17.988C23.6896 18.0144 23.7113 18.0305 23.7206 18.0374C23.7221 18.0384 23.7232 18.0393 23.7241 18.0399C24.1587 18.3326 24.3511 18.868 24.1979 19.3641C24.043 19.8654 23.5717 20.2083 23.0374 20.2083H1.21258C0.67828 20.2083 0.206953 19.8654 0.0521198 19.3641C-0.101069 18.868 0.0912792 18.3326 0.525939 18.0399C0.52679 18.0393 0.527947 18.0384 0.529404 18.0374C0.538739 18.0305 0.560387 18.0144 0.592665 17.988C0.657189 17.9353 0.764354 17.8417 0.900729 17.7006C1.17285 17.419 1.56458 16.9446 1.96688 16.2215C2.76813 14.7814 3.63757 12.3065 3.63757 8.32108C3.63757 6.11419 4.53178 3.99769 6.12348 2.43719ZM0.538195 18.0317C0.53829 18.0317 0.538386 18.0316 0.538481 18.0315C0.538476 18.0315 0.538471 18.0315 0.538466 18.0315L0.538195 18.0317ZM3.81862 17.8309H20.4314C20.3391 17.6827 20.2465 17.5258 20.1542 17.36C19.1368 15.5311 18.1875 12.6568 18.1875 8.32108C18.1875 6.74473 17.5487 5.23295 16.4118 4.1183C15.2749 3.00365 13.7329 2.37745 12.125 2.37745C10.5171 2.37745 8.97513 3.00365 7.8382 4.1183C6.70127 5.23295 6.06255 6.74473 6.06255 8.32108C6.06255 12.6568 5.11325 15.5311 4.09576 17.36C4.00349 17.5258 3.91087 17.6827 3.81862 17.8309Z" fill="#007532"/>
</svg>
