<svg width="80" height="80" viewBox="0 0 80 80" fill="none" xmlns="http://www.w3.org/2000/svg">
<path d="M44.75 14.25H23.75C20.8625 14.25 18.5 16.6125 18.5 19.5V61.5C18.5 64.3875 20.8625 66.75 23.75 66.75H55.25C58.1375 66.75 60.5 64.3875 60.5 61.5V30L44.75 14.25ZM23.75 61.5V19.5H42.125V30H55.25V61.5H23.75ZM36.875 58.875H42.125V56.25H44.75C46.1938 56.25 47.375 55.0687 47.375 53.625V45.75C47.375 44.3062 46.1938 43.125 44.75 43.125H36.875V40.5H47.375V35.25H42.125V32.625H36.875V35.25H34.25C32.8062 35.25 31.625 36.4312 31.625 37.875V45.75C31.625 47.1937 32.8062 48.375 34.25 48.375H42.125V51H31.625V56.25H36.875V58.875Z" fill="url(#paint0_linear_1604_30833)"/>
<defs>
<linearGradient id="paint0_linear_1604_30833" x1="44.7162" y1="14.25" x2="49.3103" y2="69.875" gradientUnits="userSpaceOnUse">
<stop stop-color="#FBB919"/>
<stop offset="1" stop-color="#F4851F"/>
</linearGradient>
</defs>
</svg>
