<svg width="215" height="25" viewBox="0 0 215 25" fill="none" xmlns="http://www.w3.org/2000/svg">
<path d="M73.1487 6.07617L68.9811 18.0742H66.2135L62.0459 6.07617H64.4879L67.6136 15.6162L70.723 6.07617H73.1487Z" fill="#9C9C9C"/>
<path d="M83.876 13.1066C83.876 13.4503 83.8543 13.7598 83.8109 14.0348H77.2176C77.2719 14.7223 77.4998 15.2609 77.9014 15.6506C78.3029 16.0402 78.7967 16.235 79.3828 16.235C80.2294 16.235 80.8317 15.8511 81.1899 15.0833H83.6481C83.3876 16.0001 82.8884 16.7564 82.1504 17.3523C81.4124 17.9367 80.5061 18.229 79.4317 18.229C78.5634 18.229 77.782 18.0284 77.0874 17.6273C76.4036 17.2148 75.8664 16.6361 75.4757 15.8912C75.0958 15.1464 74.9059 14.2869 74.9059 13.3128C74.9059 12.3273 75.0958 11.4621 75.4757 10.7173C75.8555 9.97239 76.3873 9.39942 77.0711 8.99834C77.7548 8.59726 78.5417 8.39672 79.4317 8.39672C80.2891 8.39672 81.0542 8.59153 81.7271 8.98115C82.4108 9.37077 82.9372 9.92656 83.3062 10.6485C83.6861 11.359 83.876 12.1783 83.876 13.1066ZM81.5155 12.419C81.5046 11.8002 81.293 11.3074 80.8805 10.9407C80.4681 10.5626 79.9635 10.3735 79.3665 10.3735C78.8022 10.3735 78.3246 10.5568 77.9339 10.9235C77.5541 11.2788 77.3207 11.7773 77.2339 12.419H81.5155Z" fill="#9C9C9C"/>
<path d="M91.5143 8.41391C92.5887 8.41391 93.457 8.77488 94.119 9.49683C94.7811 10.2073 95.1121 11.2043 95.1121 12.4878V18.0742H92.8329V12.8143C92.8329 12.058 92.6539 11.4793 92.2957 11.0782C91.9376 10.6657 91.4492 10.4594 90.8305 10.4594C90.201 10.4594 89.7018 10.6657 89.3328 11.0782C88.9746 11.4793 88.7956 12.058 88.7956 12.8143V18.0742H86.5164V8.55142H88.7956V9.73748C89.0994 9.32493 89.4847 9.00407 89.9514 8.77488C90.429 8.53423 90.9499 8.41391 91.5143 8.41391Z" fill="#9C9C9C"/>
<path d="M100.91 10.5282V15.1349C100.91 15.4558 100.98 15.6907 101.121 15.8396C101.273 15.9772 101.523 16.0459 101.87 16.0459H102.929V18.0742H101.496C99.5749 18.0742 98.6144 17.0887 98.6144 15.1177V10.5282H97.5399V8.55142H98.6144V6.1965H100.91V8.55142H102.929V10.5282H100.91Z" fill="#9C9C9C"/>
<path d="M104.959 13.2785C104.959 12.3159 105.138 11.4621 105.496 10.7173C105.865 9.97239 106.359 9.39942 106.977 8.99834C107.607 8.59726 108.307 8.39672 109.077 8.39672C109.75 8.39672 110.336 8.53996 110.836 8.82645C111.346 9.11293 111.753 9.47391 112.057 9.90937V8.55142H114.352V18.0742H112.057V16.6819C111.763 17.1288 111.356 17.5013 110.836 17.7992C110.325 18.0857 109.734 18.229 109.061 18.229C108.301 18.229 107.607 18.0227 106.977 17.6101C106.359 17.1976 105.865 16.6189 105.496 15.874C105.138 15.1177 104.959 14.2525 104.959 13.2785ZM112.057 13.3128C112.057 12.7284 111.948 12.2299 111.731 11.8174C111.514 11.3934 111.221 11.0725 110.852 10.8548C110.483 10.6256 110.087 10.511 109.663 10.511C109.24 10.511 108.849 10.6199 108.491 10.8376C108.133 11.0553 107.84 11.3762 107.612 11.8002C107.395 12.2127 107.287 12.7055 107.287 13.2785C107.287 13.8514 107.395 14.3556 107.612 14.7911C107.84 15.2151 108.133 15.5417 108.491 15.7709C108.86 16.0001 109.251 16.1147 109.663 16.1147C110.087 16.1147 110.483 16.0058 110.852 15.7881C111.221 15.5589 111.514 15.238 111.731 14.8255C111.948 14.4015 112.057 13.8973 112.057 13.3128Z" fill="#9C9C9C"/>
<path d="M122.553 8.41391C123.627 8.41391 124.495 8.77488 125.157 9.49683C125.819 10.2073 126.15 11.2043 126.15 12.4878V18.0742H123.871V12.8143C123.871 12.058 123.692 11.4793 123.334 11.0782C122.976 10.6657 122.488 10.4594 121.869 10.4594C121.239 10.4594 120.74 10.6657 120.371 11.0782C120.013 11.4793 119.834 12.058 119.834 12.8143V18.0742H117.555V8.55142H119.834V9.73748C120.138 9.32493 120.523 9.00407 120.99 8.77488C121.467 8.53423 121.988 8.41391 122.553 8.41391Z" fill="#9C9C9C"/>
<path d="M128.709 13.2785C128.709 12.3159 128.888 11.4621 129.246 10.7173C129.615 9.97239 130.109 9.39942 130.727 8.99834C131.357 8.59726 132.057 8.39672 132.827 8.39672C133.5 8.39672 134.086 8.53996 134.586 8.82645C135.096 9.11293 135.503 9.47391 135.807 9.90937V8.55142H138.102V18.0742H135.807V16.6819C135.513 17.1288 135.106 17.5013 134.586 17.7992C134.075 18.0857 133.484 18.229 132.811 18.229C132.051 18.229 131.357 18.0227 130.727 17.6101C130.109 17.1976 129.615 16.6189 129.246 15.874C128.888 15.1177 128.709 14.2525 128.709 13.2785ZM135.807 13.3128C135.807 12.7284 135.698 12.2299 135.481 11.8174C135.264 11.3934 134.971 11.0725 134.602 10.8548C134.233 10.6256 133.837 10.511 133.413 10.511C132.99 10.511 132.599 10.6199 132.241 10.8376C131.883 11.0553 131.59 11.3762 131.362 11.8002C131.145 12.2127 131.037 12.7055 131.037 13.2785C131.037 13.8514 131.145 14.3556 131.362 14.7911C131.59 15.2151 131.883 15.5417 132.241 15.7709C132.61 16.0001 133.001 16.1147 133.413 16.1147C133.837 16.1147 134.233 16.0058 134.602 15.7881C134.971 15.5589 135.264 15.238 135.481 14.8255C135.698 14.4015 135.807 13.8973 135.807 13.3128Z" fill="#9C9C9C"/>
<g clip-path="url(#clip0_2662_12899)">
<path fill-rule="evenodd" clip-rule="evenodd" d="M10.4555 7.7168L1.26074 17.4282L7.24269 23.7463C7.66308 24.1889 8.1636 24.5403 8.71529 24.7801C9.26698 25.0199 9.85887 25.1434 10.4567 25.1434C11.0545 25.1434 11.6464 25.0199 12.1981 24.7801C12.7498 24.5403 13.2503 24.1889 13.6707 23.7463L19.6539 17.4301L10.4555 7.7168Z" fill="#005F27"/>
<path fill-rule="evenodd" clip-rule="evenodd" d="M28.8571 7.71484L19.6587 17.4262L25.6425 23.7476C26.0635 24.1904 26.5648 24.5418 27.1172 24.7816C27.6697 25.0213 28.2623 25.1445 28.8607 25.1441C29.4592 25.1436 30.0517 25.0196 30.6038 24.7791C31.1559 24.5387 31.6567 24.1865 32.0772 23.7431L38.0555 17.4262L28.8571 7.71484Z" fill="#005F27"/>
<path fill-rule="evenodd" clip-rule="evenodd" d="M47.2571 7.71484L38.0532 17.4262L44.0394 23.7469C44.8781 24.6289 46.0168 25.1311 47.2087 25.1448C47.8152 25.1536 48.4171 25.034 48.9778 24.7931C49.5385 24.5523 50.0464 24.1952 50.4705 23.7437L56.4506 17.4262L47.2571 7.71484Z" fill="#005F27"/>
<path fill-rule="evenodd" clip-rule="evenodd" d="M38.0571 17.4244L28.8574 7.71876L34.8424 1.39997C35.2626 0.956519 35.7632 0.604414 36.3152 0.364084C36.8671 0.123754 37.4594 0 38.0577 0C38.6559 0 39.2482 0.123754 39.8002 0.364084C40.3521 0.604414 40.8527 0.956519 41.2729 1.39997L47.2543 7.71621L38.0571 17.4244Z" fill="#158C30"/>
<path fill-rule="evenodd" clip-rule="evenodd" d="M19.6557 17.4235L10.4585 7.71786L16.4368 1.39909C16.858 0.955253 17.3596 0.602882 17.9126 0.362384C18.4656 0.121887 19.0589 -0.00195313 19.6581 -0.00195312C20.2574 -0.00195313 20.8507 0.121887 21.4037 0.362384C21.9567 0.602882 22.4583 0.955253 22.8795 1.39909L28.8596 7.71531L19.6557 17.4235Z" fill="#158C30"/>
</g>
<path d="M185.326 9.11328C188.687 9.11328 190.368 11.5419 190.368 13.9673C190.368 16.3927 188.697 18.8237 185.326 18.8237C181.896 18.8237 180.183 16.3639 180.21 13.9152C180.233 11.5058 181.941 9.11409 185.326 9.11409V9.11328ZM183.266 13.9257C183.255 14.2125 183.3 14.4986 183.398 14.7669C183.496 15.0353 183.645 15.2804 183.835 15.4877C184.026 15.695 184.255 15.8602 184.508 15.9736C184.761 16.087 185.034 16.1461 185.309 16.1476C185.585 16.149 185.858 16.0927 186.112 15.982C186.367 15.8713 186.597 15.7085 186.79 15.5032C186.982 15.2979 187.133 15.0544 187.234 14.7871C187.334 14.5198 187.382 14.2342 187.374 13.9473C187.38 13.6629 187.33 13.3803 187.23 13.1159C187.129 12.8516 186.978 12.6108 186.787 12.4078C186.596 12.2047 186.367 12.0434 186.116 11.9333C185.864 11.8231 185.593 11.7664 185.32 11.7664C185.047 11.7664 184.776 11.8231 184.525 11.9333C184.273 12.0434 184.044 12.2047 183.853 12.4078C183.662 12.6108 183.511 12.8516 183.411 13.1159C183.31 13.3803 183.26 13.6629 183.266 13.9473V13.9257Z" fill="#005F27"/>
<path d="M169.933 9.29874H172.369L172.907 10.4402L172.96 10.4345C173.286 9.99623 173.709 9.64733 174.194 9.41813C174.678 9.18892 175.209 9.08633 175.74 9.11932C177.79 9.11932 178.971 10.4746 178.971 12.6157V18.5903H175.947V13.7691C175.947 12.683 175.779 11.6537 174.543 11.6537C174.316 11.6498 174.091 11.6969 173.883 11.7918C173.675 11.8866 173.49 12.0271 173.339 12.2034C173.188 12.3798 173.075 12.588 173.008 12.8138C172.941 13.0396 172.922 13.2777 172.952 13.512V18.5903H169.929L169.933 9.29874Z" fill="#005F27"/>
<path d="M142.645 18.5905L144.774 6.07812H148.197L150.413 11.9518L150.536 12.6102L150.666 11.9518L152.882 6.07812H156.299L158.43 18.5905H155.18L154.103 10.9466L153.92 11.6547L151.203 18.5905H149.872L147.156 11.6547L146.975 10.9466L145.898 18.5905H142.645Z" fill="#005F27"/>
<path d="M212.907 18.5928L212.346 17.4073H212.282C211.92 17.8772 211.454 18.2482 210.924 18.4884C210.393 18.7286 209.815 18.8307 209.238 18.7858C207.546 18.7858 206.597 17.5507 206.597 15.8221C206.597 13.436 208.7 12.8865 210.575 12.8128C211.058 12.7912 211.54 12.796 212 12.784C212 12.019 211.741 11.5208 210.939 11.5208C210.099 11.5739 209.278 11.8059 208.527 12.2025L207.66 10.1118C208.855 9.51844 210.17 9.23327 211.493 9.28042C213.477 9.28042 215.001 10.3826 215.001 12.6053V18.5928H212.907ZM212.015 15.2286V14.5205L211.323 14.551C210.337 14.595 209.661 14.9739 209.661 15.6996C209.661 16.306 210.109 16.5438 210.599 16.5438C210.776 16.5614 210.955 16.5406 211.124 16.4829C211.294 16.4251 211.45 16.3316 211.583 16.2081C211.716 16.0846 211.823 15.9339 211.897 15.7653C211.971 15.5968 212.012 15.4141 212.015 15.2286V15.2286Z" fill="#005F27"/>
<path d="M202.592 18.784C199.751 18.784 198.2 16.9625 198.2 14.0116C198.2 10.9799 199.969 9.15439 202.825 9.15439C203.827 9.1488 204.817 9.39065 205.712 9.86008L204.815 12.2318C204.484 12.0779 204.145 11.9426 203.8 11.8265C203.485 11.7228 203.156 11.6703 202.825 11.6711C200.774 11.6711 200.634 16.2256 202.848 16.2256C203.76 16.2193 204.651 15.9359 205.411 15.4102V17.9589C204.573 18.5245 203.59 18.8122 202.592 18.784V18.784Z" fill="#005F27"/>
<path d="M196.939 9.1543C197.249 9.15677 197.558 9.19005 197.862 9.25364L197.593 12.2798C197.251 12.204 196.902 12.1709 196.554 12.1813C196.294 12.1567 196.033 12.1866 195.785 12.2691C195.537 12.3517 195.308 12.4852 195.11 12.6619C194.791 13.0433 194.629 13.5409 194.661 14.046V18.5868H191.623V9.31771H193.879L194.355 10.806H194.503C194.736 10.334 195.083 9.93356 195.511 9.64394C195.938 9.35433 196.43 9.18558 196.939 9.1543V9.1543Z" fill="#005F27"/>
<path d="M168.689 14.5016H162.272C162.295 15.8008 162.892 16.5722 164.155 16.5722C164.463 16.5875 164.769 16.515 165.04 16.3625C165.311 16.2101 165.537 15.9834 165.694 15.7071H168.553C167.956 17.8778 166.245 18.8245 164.193 18.8245C161.395 18.8245 159.186 17.1064 159.186 13.9994C159.186 10.8242 161.289 9.11328 164.173 9.11328C167.216 9.11328 168.69 11.4938 168.69 14.5008L168.689 14.5016ZM165.852 12.6345C165.77 12.2204 165.552 11.8491 165.236 11.584C164.92 11.3189 164.525 11.1766 164.119 11.1815C163.703 11.1498 163.292 11.2809 162.964 11.5489C162.637 11.817 162.418 12.2027 162.349 12.6305L165.852 12.6345Z" fill="#005F27"/>
<defs>
<clipPath id="clip0_2662_12899">
<rect width="57.7154" height="25" fill="white"/>
</clipPath>
</defs>
</svg>
