<svg width="110" height="28" viewBox="0 0 110 28" fill="none" xmlns="http://www.w3.org/2000/svg">
<path d="M23.0003 11.4995C24.9206 12.7018 23.4649 15.8721 21.4996 16.9995L8.99975 24.5821C6.97743 25.7422 2.43975 26.9131 2.48468 24.5821L4.5 9.49951C4.54493 7.1685 12.5241 4.76234 14.5002 5.99952L23.0003 11.4995Z" fill="#FFCC00"/>
<path fill-rule="evenodd" clip-rule="evenodd" d="M2.53165 27.6178C-1.09008 23.6655 -0.728334 2.18785 2.99263 0.25564C6.12551 -1.37113 19.4351 5.07053 25.0861 10.9489C26.5953 12.5187 27.1205 13.3554 27.1205 14.1897C27.1205 17.7694 9.97136 28 3.97099 28C3.05872 28 2.82509 27.938 2.53165 27.6178ZM70.8406 10.9273C70.9836 10.0461 71.4196 9.25228 71.9365 8.93189C72.253 8.73551 72.7727 8.64139 73.5549 8.63834C74.8313 8.63324 75.0145 8.78239 74.742 9.60495C74.6091 10.0057 74.4709 10.0906 73.8338 10.1627C73.1533 10.2396 73.0642 10.3037 72.8889 10.8422L72.6955 11.4368L73.4836 11.5217C74.2411 11.6032 74.2699 11.6265 74.2234 12.1163C74.1412 12.9799 74.0682 13.0506 73.2608 13.0506C72.9996 13.0506 72.8284 13.0129 72.6974 13.069C72.3764 13.2065 72.2967 13.9075 71.7258 17.1073C71.4028 18.9181 71.0205 20.5797 70.8762 20.7998C70.4054 21.5183 69.7884 21.7936 68.6429 21.7967C67.4022 21.7999 67.1763 21.6496 67.3641 20.9459C67.4803 20.5109 67.5986 20.4269 68.2127 20.3435C68.6052 20.2904 68.9958 20.1757 69.0809 20.0887C69.2982 19.8669 70.4715 13.1743 70.3189 13.0273C70.2501 12.9611 69.9645 12.8819 69.6841 12.8513C69.2253 12.8014 69.1744 12.7363 69.1744 12.2012C69.1744 11.6146 69.1851 11.606 69.9606 11.5557C70.7099 11.5073 70.7512 11.4777 70.8406 10.9273ZM94.0409 9.82342C94.0733 9.49657 94.1715 9.09531 94.2592 8.93155C94.3785 8.70867 94.6325 8.63375 95.2677 8.63375C96.2411 8.63375 96.3481 8.76931 96.1454 9.74527L96.0056 10.4175H94.9937H93.9819L94.0409 9.82342ZM32.0698 9.22833C32.1605 9.1349 32.7088 9.00817 33.2882 8.94684C35.6317 8.69865 37.6301 9.09701 38.4022 9.96645C38.8156 10.4319 38.9513 11.8083 38.6795 12.779C38.4135 13.7284 37.6482 14.6577 36.7467 15.1255C36.2215 15.3982 35.6412 15.5106 34.4785 15.5652C33.6543 15.6039 33.2626 15.5714 33.0411 15.75C32.7859 15.9556 32.7563 16.4411 32.5515 17.6374C32.2402 19.4551 32.2011 19.506 31.1171 19.506C30.5091 19.506 30.179 19.4354 30.179 19.3054C30.179 18.7083 31.931 9.37154 32.0698 9.22833ZM63.4892 9.5883C63.9921 9.1653 64.1915 9.08495 65.1814 8.9076C65.6755 8.81892 68.5193 8.96094 68.8588 9.09124C69.1319 9.19605 69.1618 9.87998 68.9136 10.3438C68.7562 10.6375 68.543 10.6723 66.9009 10.6723C64.7545 10.6723 64.605 10.7608 64.3332 12.1937C64.239 12.6905 64.1619 13.1249 64.1619 13.1587C64.1619 13.1926 65.0436 13.2205 66.1212 13.2205C68.2733 13.2205 68.3153 13.2421 68.0998 14.2398L67.9715 14.8343L65.9113 14.8819L63.8511 14.9295L63.6406 16.1073C63.3458 17.7563 63.4049 17.8072 65.6169 17.8072C66.5823 17.8072 67.4166 17.8823 67.4734 17.9742C67.5303 18.0661 67.526 18.4108 67.4642 18.7402C67.324 19.4877 67.045 19.5743 64.7566 19.5813C62.833 19.5872 62.1396 19.3401 61.701 18.4924C61.336 17.7867 61.375 17.0849 61.9586 13.8385C62.5168 10.7345 62.6864 10.2637 63.4892 9.5883ZM89.5758 10.9241C89.7048 10.2371 89.8999 10.0483 90.5836 9.94828C91.2298 9.85379 91.5161 9.80167 91.6237 9.91671C91.7162 10.0155 91.6768 10.2377 91.6204 10.6623L91.5091 11.5017L92.2357 11.5541C92.9335 11.6046 92.96 11.6269 92.9035 12.1163C92.819 12.8457 92.5852 13.0506 91.8372 13.0506C91.4748 13.0506 91.1775 13.108 91.1763 13.178C91.1752 13.248 90.9866 14.3335 90.7571 15.5901C90.5277 16.8469 90.3694 17.9044 90.4052 17.9403C90.4412 17.9763 90.7901 18.0485 91.1807 18.101C91.869 18.1932 91.8874 18.2121 91.7861 18.7183C91.7287 19.0056 91.6192 19.303 91.5428 19.3795C91.2818 19.6404 90.2324 19.7089 89.5026 19.5123C88.9174 19.3548 88.7264 19.203 88.5338 18.7419C88.3207 18.2319 88.3338 17.9431 88.6505 16.1613C88.8466 15.0577 89.0179 13.8873 89.0308 13.5603C89.0522 13.0192 89.0085 12.9604 88.5446 12.9083C87.8222 12.8267 87.6213 12.6096 87.7656 12.0668C87.8733 11.661 87.981 11.6005 88.6775 11.5552C89.4277 11.5061 89.4725 11.4746 89.5758 10.9241ZM35.7049 13.6321C36.7263 13.1474 37.1784 11.4622 36.4279 10.9368C36.1778 10.7615 35.6677 10.6723 34.9164 10.6723H33.7825L33.5096 12.1587C33.3596 12.9764 33.2369 13.7026 33.2371 13.7726C33.2378 14.0099 35.1364 13.9017 35.7049 13.6321ZM39.5268 12.8605C39.5307 12.0188 39.7248 11.8294 40.8258 11.5932C43.4247 11.0357 44.9126 11.617 45.0725 13.2524C45.1119 13.6552 44.9292 15.1315 44.6664 16.5328C44.2039 19.0003 44.1728 19.0883 43.6831 19.3246C43.3536 19.4834 42.5855 19.5723 41.4783 19.5798C40.057 19.5891 39.682 19.5339 39.1848 19.2419C38.3826 18.7708 38.1305 18.2426 38.2346 17.2517C38.4188 15.4982 39.2164 14.8838 41.4783 14.753L43.0075 14.6645L43.0616 14.1013C43.1659 13.0153 42.6339 12.8719 40.1614 13.3195C39.5277 13.4342 39.5243 13.4317 39.5268 12.8605ZM45.8344 15.9243C46.2111 13.0873 47.0416 11.8796 48.8696 11.5108C49.1967 11.4449 49.6714 11.3821 49.9246 11.3714C50.7213 11.3376 52.9322 11.723 53.0936 11.924C53.3032 12.1849 51.8813 19.9938 51.4759 20.8093C51.0509 21.6638 50.5004 22.0238 49.2932 22.2362C48.4842 22.3785 48.0101 22.361 47.0073 22.1521C45.4908 21.8359 45.1947 21.6059 45.4263 20.9242C45.5528 20.5518 45.6845 20.4499 45.9982 20.4815C48.7391 20.7577 49.1593 20.7453 49.5266 20.378C50.1623 19.7425 50.0007 19.5764 48.7421 19.5721C46.4143 19.5645 45.5029 18.421 45.8344 15.9243ZM53.5103 16.4443C53.7291 13.8017 54.7908 12.0415 56.4308 11.6022C57.4938 11.3175 57.9551 11.3051 58.7962 11.5387C59.6721 11.7818 60.3488 12.4815 60.5961 13.3992C60.76 14.0079 60.7442 14.4017 60.508 15.5907C60.0812 17.7391 59.5922 18.5415 58.2998 19.2125C57.3566 19.7024 55.6339 19.7196 54.8166 19.2473C53.9296 18.7348 53.4126 17.6251 53.5103 16.4443ZM73.7352 16.0198C73.9559 13.4099 74.9465 11.9617 76.8205 11.5096C78.4232 11.123 79.8059 11.6462 80.444 12.8807C80.778 13.527 80.8247 13.8125 80.7459 14.7265C80.6947 15.3212 80.5649 15.9136 80.4574 16.043C80.3082 16.2228 79.7057 16.2783 77.9042 16.2783C75.5637 16.2783 75.5462 16.2812 75.5462 16.6651C75.5462 17.2646 76.0075 17.7828 76.6479 17.9029C76.9719 17.9637 77.8135 17.8932 78.5448 17.744C79.2678 17.5968 79.8914 17.5082 79.9306 17.5475C79.9699 17.5867 79.9334 17.9097 79.8494 18.2652C79.6698 19.0256 79.2703 19.2658 77.7353 19.5361C76.2476 19.7982 75.0565 19.5123 74.3678 18.7282C73.7082 17.9771 73.6066 17.5419 73.7352 16.0198ZM82.0719 13.2562C82.4546 12.5238 83.2594 11.857 84.0635 11.6063C85.0478 11.2993 85.5069 11.3007 86.5597 11.6133C87.3843 11.8581 87.44 11.9092 87.4376 12.4202C87.4332 13.3511 87.2844 13.4435 86.1477 13.221C84.9929 12.9947 84.3766 13.1508 83.9693 13.7723C83.6231 14.3008 83.1347 16.7054 83.2669 17.2317C83.4198 17.8407 84.0944 18.0444 85.2172 17.8207C86.009 17.6629 86.28 17.6076 86.372 17.7112C86.4209 17.7663 86.4193 17.8663 86.4183 18.0196C86.4129 18.9211 86.2318 19.1588 85.3508 19.4204C84.2256 19.7544 83.6006 19.7381 82.7514 19.3525C81.8024 18.9216 81.299 18.0756 81.299 16.912C81.299 15.8939 81.7103 13.9481 82.0719 13.2562ZM103.148 15.008C103.623 12.9779 104.333 12.0833 105.872 11.5786C106.737 11.2951 108.196 11.4062 108.88 11.8074C109.784 12.3385 110.076 13.095 109.984 14.6645C109.789 17.9504 108.48 19.5492 105.961 19.5782C103.45 19.6071 102.452 17.9861 103.148 15.008ZM92.4775 19.3762C92.3885 19.2324 93.6581 11.9406 93.8169 11.6838C93.9347 11.4932 95.5404 11.4629 95.6534 11.6491C95.7407 11.7928 94.4735 19.0907 94.3173 19.3431C94.1984 19.5358 92.5939 19.5646 92.4775 19.3762ZM97.37 19.0895C97.1292 18.7224 96.4572 13.6039 96.4487 12.0738L96.4457 11.5217H97.377C97.7474 11.5217 97.9866 11.4956 98.1475 11.5955C98.4748 11.7987 98.4784 12.5233 98.6031 15.0496C98.6782 16.5695 98.8082 17.8308 98.8921 17.8526C98.9759 17.8743 99.6258 16.4779 100.336 14.7494L101.628 11.6066L102.605 11.5557C103.359 11.5164 103.582 11.5598 103.582 11.7454C103.582 12.0623 100.742 18.2702 100.329 18.8568C99.6875 19.7668 97.9056 19.9069 97.37 19.0895ZM50.914 13.9941C50.9928 13.6253 51.0193 13.2623 50.9729 13.1872C50.8594 13.0036 49.3919 13.0329 48.9046 13.2286C48.3967 13.4323 48.0999 14.173 47.8363 15.8939C47.6387 17.1841 47.6462 17.3182 47.9325 17.6345C48.1746 17.902 48.4557 17.9771 49.2157 17.9771H50.1888L50.4799 16.3208C50.6399 15.4097 50.8353 14.3628 50.914 13.9941ZM58.648 14.8313C58.737 14.1406 58.6985 13.9097 58.4439 13.6144C57.8795 12.9594 56.9782 12.9721 56.347 13.6438C55.9429 14.0738 55.5034 15.6209 55.499 16.6281C55.4949 17.5407 55.8351 17.891 56.7035 17.8682C57.8592 17.8378 58.3617 17.0533 58.648 14.8313ZM78.7745 14.2722C78.7745 14.0098 78.679 13.67 78.5621 13.5171C78.3025 13.1772 77.6451 13.0363 77.0773 13.1987C76.6909 13.3095 75.886 14.2591 75.886 14.6047C75.886 14.6843 76.5359 14.7494 77.3303 14.7494H78.7745V14.2722ZM107.918 15.5774C108.225 14.0942 108.089 13.4806 107.397 13.2174C107.156 13.1257 106.944 13.0567 106.927 13.064C106.91 13.0713 106.781 13.1152 106.641 13.1614C105.506 13.5351 105.051 14.4358 105.036 16.3413C105.027 17.4908 105.047 17.5524 105.498 17.7714C105.871 17.9521 106.096 17.9589 106.566 17.8037C107.344 17.5472 107.597 17.1303 107.918 15.5774ZM42.5053 17.3387C42.5642 16.9891 42.6492 16.5693 42.694 16.4057C42.765 16.1463 42.6444 16.1084 41.7485 16.1084C40.8477 16.1084 40.6882 16.1592 40.4503 16.5221C40.3013 16.7497 40.2039 17.151 40.234 17.414C40.2789 17.805 40.4009 17.9199 40.9028 18.0439C41.9031 18.2911 42.3799 18.0813 42.5053 17.3387ZM5.43743 15.1339L3.73828 23.5429H7.30649L8.41093 18.2767H12.8287C14.3579 18.22 17.6203 17.3763 18.4359 14.4544C19.0306 13.0387 19.3704 10.3773 17.9262 9.01824C16.4819 7.6592 15.8022 7.40439 12.7438 7.48933L9.80195 7.62719C8.30116 7.69753 7.00172 8.69213 6.54187 10.1225H11.8942L12.234 8.5086L15.7173 12.8405L10.8747 17.0026L11.1296 15.1339H5.43743Z" fill="black"/>
</svg>
