<svg width="215" height="25" viewBox="0 0 215 25" fill="none" xmlns="http://www.w3.org/2000/svg">
<path d="M73.0946 6L68.9301 17.8472H66.1645L62 6H64.4402L67.5636 15.4201L70.6707 6H73.0946Z" fill="#9C9C9C"/>
<path d="M83.814 12.942C83.814 13.2815 83.7923 13.587 83.749 13.8586H77.1605C77.2148 14.5375 77.4425 15.0693 77.8438 15.454C78.245 15.8388 78.7385 16.0311 79.3241 16.0311C80.1701 16.0311 80.772 15.6521 81.1299 14.8939H83.5863C83.326 15.7992 82.8271 16.546 82.0897 17.1344C81.3522 17.7115 80.4466 18 79.3729 18C78.5053 18 77.7245 17.802 77.0304 17.4059C76.3471 16.9986 75.8103 16.4272 75.4199 15.6917C75.0403 14.9562 74.8505 14.1075 74.8505 13.1457C74.8505 12.1726 75.0403 11.3182 75.4199 10.5827C75.7995 9.84724 76.3309 9.28147 77.0141 8.88543C77.6974 8.48939 78.4836 8.29137 79.3729 8.29137C80.2297 8.29137 80.9943 8.48373 81.6667 8.86846C82.3499 9.25318 82.8759 9.80198 83.2447 10.5149C83.6242 11.2164 83.814 12.0255 83.814 12.942ZM81.4552 12.2631C81.4444 11.6521 81.2329 11.1655 80.8208 10.8034C80.4087 10.43 79.9044 10.2433 79.3079 10.2433C78.7439 10.2433 78.2667 10.4243 77.8763 10.7864C77.4967 11.1372 77.2636 11.6294 77.1768 12.2631H81.4552Z" fill="#9C9C9C"/>
<path d="M91.4467 8.30834C92.5203 8.30834 93.3879 8.66478 94.0495 9.37765C94.7111 10.0792 95.0418 11.0636 95.0418 12.331V17.8472H92.7643V12.6535C92.7643 11.9066 92.5854 11.3352 92.2275 10.9392C91.8696 10.5318 91.3816 10.3281 90.7634 10.3281C90.1344 10.3281 89.6355 10.5318 89.2668 10.9392C88.9089 11.3352 88.7299 11.9066 88.7299 12.6535V17.8472H86.4525V8.44413H88.7299V9.61528C89.0336 9.20792 89.4186 8.89109 89.885 8.66478C90.3621 8.42716 90.8827 8.30834 91.4467 8.30834Z" fill="#9C9C9C"/>
<path d="M100.835 10.396V14.9448C100.835 15.2617 100.906 15.4936 101.047 15.6407C101.199 15.7765 101.448 15.8444 101.795 15.8444H102.853V17.8472H101.421C99.5014 17.8472 98.5416 16.8741 98.5416 14.9279V10.396H97.4679V8.44413H98.5416V6.11881H100.835V8.44413H102.853V10.396H100.835Z" fill="#9C9C9C"/>
<path d="M104.881 13.1117C104.881 12.1612 105.06 11.3182 105.418 10.5827C105.787 9.84724 106.28 9.28147 106.898 8.88543C107.527 8.48939 108.227 8.29137 108.997 8.29137C109.669 8.29137 110.255 8.43281 110.754 8.7157C111.263 8.99859 111.67 9.35502 111.974 9.78501V8.44413H114.268V17.8472H111.974V16.4724C111.681 16.9137 111.274 17.2815 110.754 17.5757C110.244 17.8586 109.653 18 108.98 18C108.221 18 107.527 17.7963 106.898 17.389C106.28 16.9816 105.787 16.4102 105.418 15.6747C105.06 14.9279 104.881 14.0736 104.881 13.1117ZM111.974 13.1457C111.974 12.5686 111.865 12.0764 111.648 11.669C111.432 11.2504 111.139 10.9335 110.77 10.7185C110.401 10.4922 110.005 10.3791 109.582 10.3791C109.159 10.3791 108.769 10.4866 108.411 10.7016C108.053 10.9165 107.76 11.2334 107.533 11.6521C107.316 12.0594 107.207 12.546 107.207 13.1117C107.207 13.6775 107.316 14.1754 107.533 14.6054C107.76 15.024 108.053 15.3465 108.411 15.5728C108.78 15.7992 109.17 15.9123 109.582 15.9123C110.005 15.9123 110.401 15.8048 110.77 15.5898C111.139 15.3635 111.432 15.0467 111.648 14.6393C111.865 14.2207 111.974 13.7228 111.974 13.1457Z" fill="#9C9C9C"/>
<path d="M122.462 8.30834C123.536 8.30834 124.403 8.66478 125.065 9.37765C125.727 10.0792 126.057 11.0636 126.057 12.331V17.8472H123.78V12.6535C123.78 11.9066 123.601 11.3352 123.243 10.9392C122.885 10.5318 122.397 10.3281 121.779 10.3281C121.15 10.3281 120.651 10.5318 120.282 10.9392C119.924 11.3352 119.745 11.9066 119.745 12.6535V17.8472H117.468V8.44413H119.745V9.61528C120.049 9.20792 120.434 8.89109 120.9 8.66478C121.378 8.42716 121.898 8.30834 122.462 8.30834Z" fill="#9C9C9C"/>
<path d="M128.614 13.1117C128.614 12.1612 128.792 11.3182 129.15 10.5827C129.519 9.84724 130.013 9.28147 130.631 8.88543C131.26 8.48939 131.959 8.29137 132.729 8.29137C133.402 8.29137 133.987 8.43281 134.486 8.7157C134.996 8.99859 135.403 9.35502 135.706 9.78501V8.44413H138V17.8472H135.706V16.4724C135.413 16.9137 135.007 17.2815 134.486 17.5757C133.976 17.8586 133.385 18 132.713 18C131.954 18 131.26 17.7963 130.631 17.389C130.013 16.9816 129.519 16.4102 129.15 15.6747C128.792 14.9279 128.614 14.0736 128.614 13.1117ZM135.706 13.1457C135.706 12.5686 135.598 12.0764 135.381 11.669C135.164 11.2504 134.871 10.9335 134.502 10.7185C134.134 10.4922 133.738 10.3791 133.315 10.3791C132.892 10.3791 132.502 10.4866 132.144 10.7016C131.786 10.9165 131.493 11.2334 131.265 11.6521C131.048 12.0594 130.94 12.546 130.94 13.1117C130.94 13.6775 131.048 14.1754 131.265 14.6054C131.493 15.024 131.786 15.3465 132.144 15.5728C132.512 15.7992 132.903 15.9123 133.315 15.9123C133.738 15.9123 134.134 15.8048 134.502 15.5898C134.871 15.3635 135.164 15.0467 135.381 14.6393C135.598 14.2207 135.706 13.7228 135.706 13.1457Z" fill="#9C9C9C"/>
<g clip-path="url(#clip0_2662_12899)">
<path fill-rule="evenodd" clip-rule="evenodd" d="M10.4477 7.61914L1.25977 17.2084L7.23731 23.4471C7.65738 23.8842 8.15754 24.2311 8.70882 24.4679C9.2601 24.7047 9.85155 24.8266 10.4489 24.8266C11.0463 24.8266 11.6378 24.7047 12.1891 24.4679C12.7404 24.2311 13.2405 23.8842 13.6606 23.4471L19.6393 17.2103L10.4477 7.61914Z" fill="#005F27"/>
<path fill-rule="evenodd" clip-rule="evenodd" d="M28.8357 7.61914L19.644 17.2084L25.6234 23.4503C26.0442 23.8876 26.5451 24.2346 27.0971 24.4713C27.6491 24.708 28.2413 24.8297 28.8393 24.8292C29.4374 24.8288 30.0294 24.7064 30.5811 24.4689C31.1328 24.2315 31.6332 23.8837 32.0534 23.4459L38.0273 17.2084L28.8357 7.61914Z" fill="#005F27"/>
<path fill-rule="evenodd" clip-rule="evenodd" d="M47.222 7.61914L38.0249 17.2084L44.0067 23.4497C44.8447 24.3205 45.9826 24.8165 47.1736 24.83C47.7797 24.8387 48.3811 24.7206 48.9414 24.4827C49.5017 24.2449 50.0092 23.8923 50.4331 23.4465L56.4088 17.2084L47.222 7.61914Z" fill="#005F27"/>
<path fill-rule="evenodd" clip-rule="evenodd" d="M38.0288 17.2053L28.8359 7.62173L34.8165 1.38237C35.2364 0.944494 35.7366 0.596815 36.2882 0.359507C36.8397 0.122198 37.4316 0 38.0294 0C38.6272 0 39.2191 0.122198 39.7706 0.359507C40.3222 0.596815 40.8224 0.944494 41.2423 1.38237L47.2192 7.6192L38.0288 17.2053Z" fill="#158C30"/>
<path fill-rule="evenodd" clip-rule="evenodd" d="M19.6411 17.2044L10.4507 7.62081L16.4245 1.38147C16.8455 0.943219 17.3467 0.595278 17.8993 0.357804C18.4519 0.12033 19.0447 -0.00195313 19.6436 -0.00195312C20.2424 -0.00195313 20.8353 0.12033 21.3878 0.357804C21.9404 0.595278 22.4416 0.943219 22.8626 1.38147L28.8383 7.61829L19.6411 17.2044Z" fill="#158C30"/>
</g>
<path d="M185.189 8.99805C188.547 8.99805 190.227 11.3961 190.227 13.7911C190.227 16.186 188.558 18.5864 185.189 18.5864C181.761 18.5864 180.05 16.1575 180.077 13.7396C180.1 11.3605 181.807 8.99884 185.189 8.99884V8.99805ZM183.13 13.7499C183.12 14.0331 183.165 14.3156 183.262 14.5806C183.36 14.8456 183.509 15.0876 183.699 15.2923C183.89 15.497 184.118 15.6602 184.371 15.7721C184.624 15.8841 184.897 15.9425 185.172 15.9439C185.448 15.9453 185.721 15.8898 185.975 15.7805C186.229 15.6712 186.459 15.5104 186.652 15.3077C186.844 15.105 186.995 14.8645 187.095 14.6005C187.196 14.3366 187.244 14.0546 187.236 13.7713C187.241 13.4905 187.192 13.2114 187.091 12.9504C186.99 12.6894 186.84 12.4516 186.649 12.2511C186.458 12.0506 186.23 11.8913 185.978 11.7826C185.726 11.6738 185.456 11.6178 185.183 11.6178C184.91 11.6178 184.64 11.6738 184.388 11.7826C184.136 11.8913 183.908 12.0506 183.717 12.2511C183.526 12.4516 183.376 12.6894 183.275 12.9504C183.174 13.2114 183.125 13.4905 183.13 13.7713V13.7499Z" fill="#005F27"/>
<path d="M169.808 9.18117H172.242L172.78 10.3083L172.833 10.3027C173.158 9.8699 173.581 9.52539 174.065 9.29906C174.549 9.07273 175.08 8.97144 175.611 9.00401C177.658 9.00401 178.839 10.3423 178.839 12.4564V18.3559H175.817V13.5953C175.817 12.5229 175.649 11.5065 174.414 11.5065C174.187 11.5027 173.962 11.5492 173.755 11.6429C173.547 11.7365 173.361 11.8752 173.211 12.0493C173.06 12.2235 172.947 12.429 172.88 12.652C172.814 12.875 172.795 13.1102 172.824 13.3414V18.3559H169.803L169.808 9.18117Z" fill="#005F27"/>
<path d="M142.539 18.355L144.667 6H148.087L150.301 11.7999L150.424 12.45L150.555 11.7999L152.769 6H156.183L158.313 18.355H155.065L153.989 10.8072L153.807 11.5064L151.092 18.355H149.761L147.047 11.5064L146.866 10.8072L145.79 18.355H142.539Z" fill="#005F27"/>
<path d="M212.749 18.3585L212.189 17.1879H212.125C211.764 17.6518 211.298 18.0182 210.768 18.2554C210.238 18.4925 209.66 18.5933 209.083 18.5491C207.392 18.5491 206.444 17.3295 206.444 15.6226C206.444 13.2665 208.546 12.7239 210.419 12.6512C210.902 12.6298 211.384 12.6345 211.843 12.6227C211.843 11.8673 211.585 11.3754 210.783 11.3754C209.943 11.4278 209.123 11.6569 208.373 12.0485L207.507 9.98414C208.701 9.3982 210.014 9.11661 211.336 9.16317C213.32 9.16317 214.842 10.2515 214.842 12.4463V18.3585H212.749ZM211.858 15.0366V14.3374L211.166 14.3674C210.182 14.4109 209.506 14.7851 209.506 15.5016C209.506 16.1004 209.953 16.3353 210.443 16.3353C210.62 16.3526 210.799 16.3321 210.968 16.2751C211.137 16.218 211.293 16.1257 211.426 16.0038C211.559 15.8818 211.666 15.733 211.74 15.5666C211.815 15.4001 211.855 15.2197 211.858 15.0366V15.0366Z" fill="#005F27"/>
<path d="M202.442 18.5457C199.604 18.5457 198.053 16.7471 198.053 13.8334C198.053 10.8397 199.821 9.0372 202.675 9.0372C203.677 9.03168 204.665 9.27049 205.559 9.73402L204.664 12.0759C204.333 11.9239 203.994 11.7903 203.649 11.6757C203.334 11.5733 203.006 11.5215 202.675 11.5223C200.625 11.5223 200.485 16.0195 202.698 16.0195C203.61 16.0133 204.5 15.7334 205.259 15.2143V17.7311C204.422 18.2895 203.44 18.5736 202.442 18.5457V18.5457Z" fill="#005F27"/>
<path d="M196.793 9.03711C197.103 9.03955 197.412 9.07241 197.716 9.1352L197.447 12.1233C197.106 12.0485 196.757 12.0158 196.408 12.026C196.149 12.0018 195.888 12.0313 195.64 12.1128C195.393 12.1943 195.163 12.3262 194.966 12.5006C194.647 12.8773 194.486 13.3686 194.517 13.8673V18.351H191.481V9.19847H193.736L194.211 10.668H194.359C194.592 10.202 194.939 9.80657 195.366 9.5206C195.793 9.23463 196.285 9.068 196.793 9.03711V9.03711Z" fill="#005F27"/>
<path d="M168.564 14.3186H162.152C162.175 15.6015 162.771 16.3631 164.034 16.3631C164.342 16.3783 164.647 16.3067 164.918 16.1561C165.189 16.0056 165.415 15.7818 165.572 15.5089H168.428C167.832 17.6523 166.122 18.5872 164.072 18.5872C161.275 18.5872 159.068 16.8907 159.068 13.8227C159.068 10.6875 161.17 8.99805 164.052 8.99805C167.093 8.99805 168.566 11.3487 168.566 14.3178L168.564 14.3186ZM165.73 12.475C165.648 12.0661 165.43 11.6994 165.114 11.4377C164.798 11.1759 164.403 11.0354 163.997 11.0402C163.582 11.009 163.171 11.1384 162.844 11.4031C162.517 11.6678 162.298 12.0487 162.229 12.471L165.73 12.475Z" fill="#005F27"/>
<defs>
<clipPath id="clip0_2662_12899">
<rect width="57.6729" height="24.6857" fill="white"/>
</clipPath>
</defs>
</svg>
