<svg width="156" height="32" viewBox="0 0 156 32" fill="none" xmlns="http://www.w3.org/2000/svg">
<g filter="url(#filter0_d_1604_13480)">
<path d="M9.43 13.07C9.43 13.65 9.23 14.1333 8.83 14.52C8.43667 14.9 7.83333 15.09 7.02 15.09H5.68V18H4.77V11.03H7.02C7.80667 11.03 8.40333 11.22 8.81 11.6C9.22333 11.98 9.43 12.47 9.43 13.07ZM7.02 14.34C7.52667 14.34 7.9 14.23 8.14 14.01C8.38 13.79 8.5 13.4767 8.5 13.07C8.5 12.21 8.00667 11.78 7.02 11.78H5.68V14.34H7.02ZM14.681 16.45H11.641L11.081 18H10.121L12.641 11.07H13.691L16.201 18H15.241L14.681 16.45ZM14.421 15.71L13.161 12.19L11.901 15.71H14.421ZM22.5793 13.05C22.386 12.6433 22.106 12.33 21.7393 12.11C21.3726 11.8833 20.946 11.77 20.4593 11.77C19.9726 11.77 19.5326 11.8833 19.1393 12.11C18.7526 12.33 18.446 12.65 18.2193 13.07C17.9993 13.4833 17.8893 13.9633 17.8893 14.51C17.8893 15.0567 17.9993 15.5367 18.2193 15.95C18.446 16.3633 18.7526 16.6833 19.1393 16.91C19.5326 17.13 19.9726 17.24 20.4593 17.24C21.1393 17.24 21.6993 17.0367 22.1393 16.63C22.5793 16.2233 22.836 15.6733 22.9093 14.98H20.1293V14.24H23.8793V14.94C23.826 15.5133 23.646 16.04 23.3393 16.52C23.0326 16.9933 22.6293 17.37 22.1293 17.65C21.6293 17.9233 21.0726 18.06 20.4593 18.06C19.8126 18.06 19.2226 17.91 18.6893 17.61C18.156 17.3033 17.7326 16.88 17.4193 16.34C17.1126 15.8 16.9593 15.19 16.9593 14.51C16.9593 13.83 17.1126 13.22 17.4193 12.68C17.7326 12.1333 18.156 11.71 18.6893 11.41C19.2226 11.1033 19.8126 10.95 20.4593 10.95C21.1993 10.95 21.8526 11.1333 22.4193 11.5C22.9926 11.8667 23.4093 12.3833 23.6693 13.05H22.5793ZM29.2025 16.45H26.1625L25.6025 18H24.6425L27.1625 11.07H28.2125L30.7225 18H29.7625L29.2025 16.45ZM28.9425 15.71L27.6825 12.19L26.4225 15.71H28.9425ZM35.4908 18L33.8308 15.15H32.7308V18H31.8208V11.03H34.0708C34.5974 11.03 35.0408 11.12 35.4008 11.3C35.7674 11.48 36.0408 11.7233 36.2208 12.03C36.4008 12.3367 36.4908 12.6867 36.4908 13.08C36.4908 13.56 36.3508 13.9833 36.0708 14.35C35.7974 14.7167 35.3841 14.96 34.8308 15.08L36.5808 18H35.4908ZM32.7308 14.42H34.0708C34.5641 14.42 34.9341 14.3 35.1808 14.06C35.4274 13.8133 35.5508 13.4867 35.5508 13.08C35.5508 12.6667 35.4274 12.3467 35.1808 12.12C34.9408 11.8933 34.5708 11.78 34.0708 11.78H32.7308V14.42ZM40.2308 14.51C40.2308 13.83 40.3841 13.22 40.6908 12.68C40.9974 12.1333 41.4141 11.7067 41.9408 11.4C42.4741 11.0933 43.0641 10.94 43.7108 10.94C44.4708 10.94 45.1341 11.1233 45.7008 11.49C46.2674 11.8567 46.6808 12.3767 46.9408 13.05H45.8508C45.6574 12.63 45.3774 12.3067 45.0108 12.08C44.6508 11.8533 44.2174 11.74 43.7108 11.74C43.2241 11.74 42.7874 11.8533 42.4008 12.08C42.0141 12.3067 41.7108 12.63 41.4908 13.05C41.2708 13.4633 41.1608 13.95 41.1608 14.51C41.1608 15.0633 41.2708 15.55 41.4908 15.97C41.7108 16.3833 42.0141 16.7033 42.4008 16.93C42.7874 17.1567 43.2241 17.27 43.7108 17.27C44.2174 17.27 44.6508 17.16 45.0108 16.94C45.3774 16.7133 45.6574 16.39 45.8508 15.97H46.9408C46.6808 16.6367 46.2674 17.1533 45.7008 17.52C45.1341 17.88 44.4708 18.06 43.7108 18.06C43.0641 18.06 42.4741 17.91 41.9408 17.61C41.4141 17.3033 40.9974 16.88 40.6908 16.34C40.3841 15.8 40.2308 15.19 40.2308 14.51ZM51.4554 18.07C50.8087 18.07 50.2187 17.92 49.6854 17.62C49.1521 17.3133 48.7287 16.89 48.4154 16.35C48.1087 15.8033 47.9554 15.19 47.9554 14.51C47.9554 13.83 48.1087 13.22 48.4154 12.68C48.7287 12.1333 49.1521 11.71 49.6854 11.41C50.2187 11.1033 50.8087 10.95 51.4554 10.95C52.1087 10.95 52.7021 11.1033 53.2354 11.41C53.7687 11.71 54.1887 12.13 54.4954 12.67C54.8021 13.21 54.9554 13.8233 54.9554 14.51C54.9554 15.1967 54.8021 15.81 54.4954 16.35C54.1887 16.89 53.7687 17.3133 53.2354 17.62C52.7021 17.92 52.1087 18.07 51.4554 18.07ZM51.4554 17.28C51.9421 17.28 52.3787 17.1667 52.7654 16.94C53.1587 16.7133 53.4654 16.39 53.6854 15.97C53.9121 15.55 54.0254 15.0633 54.0254 14.51C54.0254 13.95 53.9121 13.4633 53.6854 13.05C53.4654 12.63 53.1621 12.3067 52.7754 12.08C52.3887 11.8533 51.9487 11.74 51.4554 11.74C50.9621 11.74 50.5221 11.8533 50.1354 12.08C49.7487 12.3067 49.4421 12.63 49.2154 13.05C48.9954 13.4633 48.8854 13.95 48.8854 14.51C48.8854 15.0633 48.9954 15.55 49.2154 15.97C49.4421 16.39 49.7487 16.7133 50.1354 16.94C50.5287 17.1667 50.9687 17.28 51.4554 17.28ZM61.6367 18H60.7267L57.0667 12.45V18H56.1567V11.02H57.0667L60.7267 16.56V11.02H61.6367V18Z" fill="black"/>
<path d="M89.483 11.9963C91.3656 13.2568 91.2252 16.0692 89.2264 17.1359L78.2549 22.9909C76.198 24.0886 73.73 22.5231 73.8462 20.1946L74.4839 7.42093C74.6002 5.09238 77.2119 3.78058 79.1492 5.07766L89.483 11.9963Z" fill="#FFCC00"/>
<path fill-rule="evenodd" clip-rule="evenodd" d="M74.6414 23.6137C72.055 20.7907 72.3134 5.44947 74.9706 4.06932C77.208 2.90734 86.7128 7.50853 90.7484 11.7073C91.8262 12.8287 92.2013 13.4263 92.2013 14.0222C92.2013 16.5791 79.9544 23.8867 75.6693 23.8867C75.0178 23.8867 74.851 23.8424 74.6414 23.6137ZM123.423 11.6919C123.526 11.0625 123.837 10.4955 124.206 10.2666C124.432 10.1264 124.803 10.0591 125.362 10.057C126.273 10.0533 126.404 10.1599 126.21 10.7474C126.115 11.0336 126.016 11.0943 125.561 11.1458C125.075 11.2007 125.011 11.2465 124.886 11.6311L124.748 12.0558L125.311 12.1165C125.852 12.1747 125.872 12.1914 125.839 12.5412C125.78 13.1581 125.728 13.2086 125.152 13.2086C124.965 13.2086 124.843 13.1817 124.749 13.2217C124.52 13.3199 124.463 13.8206 124.056 16.1062C123.825 17.3996 123.552 18.5865 123.449 18.7437C123.113 19.2569 122.672 19.4536 121.854 19.4558C120.968 19.4581 120.807 19.3507 120.941 18.8481C121.024 18.5373 121.108 18.4774 121.547 18.4178C121.827 18.3798 122.106 18.2979 122.167 18.2358C122.322 18.0773 123.16 13.2969 123.051 13.192C123.002 13.1446 122.798 13.0881 122.598 13.0663C122.27 13.0306 122.234 12.9841 122.234 12.6019C122.234 12.1829 122.241 12.1767 122.795 12.1408C123.33 12.1062 123.36 12.0851 123.423 11.6919ZM139.992 10.9034C140.015 10.67 140.085 10.3834 140.148 10.2664C140.233 10.1072 140.414 10.0537 140.868 10.0537C141.563 10.0537 141.639 10.1505 141.495 10.8476L141.395 11.3278H140.672H139.95L139.992 10.9034ZM95.7357 10.4784C95.8005 10.4116 96.1921 10.3211 96.6059 10.2773C98.2794 10.1 99.7065 10.3846 100.258 11.0056C100.553 11.3381 100.65 12.3212 100.456 13.0146C100.266 13.6927 99.7195 14.3565 99.0757 14.6907C98.7006 14.8854 98.2862 14.9657 97.4559 15.0047C96.8673 15.0323 96.5876 15.0091 96.4294 15.1367C96.2471 15.2835 96.226 15.6303 96.0797 16.4848C95.8574 17.7832 95.8295 17.8196 95.0554 17.8196C94.6212 17.8196 94.3854 17.7691 94.3854 17.6763C94.3854 17.2498 95.6366 10.5807 95.7357 10.4784ZM118.174 10.7355C118.533 10.4334 118.675 10.376 119.382 10.2493C119.735 10.1859 121.766 10.2874 122.008 10.3805C122.203 10.4553 122.225 10.9439 122.047 11.2751C121.935 11.4849 121.783 11.5098 120.61 11.5098C119.077 11.5098 118.97 11.573 118.776 12.5965C118.709 12.9513 118.654 13.2616 118.654 13.2858C118.654 13.31 119.284 13.3299 120.053 13.3299C121.59 13.3299 121.62 13.3453 121.466 14.058L121.375 14.4827L119.903 14.5167L118.432 14.5506L118.282 15.3919C118.071 16.5698 118.113 16.6062 119.693 16.6062C120.382 16.6062 120.978 16.6598 121.019 16.7255C121.059 16.7911 121.056 17.0373 121.012 17.2726C120.912 17.8065 120.713 17.8684 119.079 17.8734C117.705 17.8776 117.21 17.701 116.897 17.0955C116.636 16.5915 116.664 16.0902 117.08 13.7714C117.479 11.5542 117.6 11.218 118.174 10.7355ZM136.803 11.6896C136.895 11.1989 137.034 11.0641 137.523 10.9926C137.984 10.9251 138.189 10.8879 138.265 10.9701C138.331 11.0407 138.303 11.1993 138.263 11.5026L138.184 12.1022L138.702 12.1397C139.201 12.1757 139.22 12.1916 139.179 12.5412C139.119 13.0622 138.952 13.2086 138.418 13.2086C138.159 13.2086 137.947 13.2496 137.946 13.2996C137.945 13.3496 137.81 14.125 137.647 15.0225C137.483 15.9202 137.37 16.6756 137.395 16.7012C137.421 16.7269 137.67 16.7785 137.949 16.816C138.441 16.8819 138.454 16.8953 138.381 17.2569C138.34 17.4621 138.262 17.6746 138.208 17.7292C138.021 17.9156 137.272 17.9645 136.751 17.8241C136.333 17.7116 136.196 17.6031 136.059 17.2738C135.907 16.9095 135.916 16.7032 136.142 15.4305C136.282 14.6422 136.404 13.8062 136.414 13.5726C136.429 13.1861 136.398 13.1442 136.067 13.1069C135.551 13.0487 135.407 12.8936 135.51 12.5059C135.587 12.216 135.664 12.1728 136.161 12.1404C136.697 12.1053 136.729 12.0829 136.803 11.6896ZM98.3317 13.6239C99.0611 13.2778 99.384 12.074 98.848 11.6987C98.6694 11.5735 98.3052 11.5098 97.7686 11.5098H96.9589L96.764 12.5715C96.6568 13.1556 96.5692 13.6743 96.5693 13.7243C96.5698 13.8938 97.9257 13.8165 98.3317 13.6239ZM101.061 13.0728C101.064 12.4716 101.202 12.3363 101.989 12.1676C103.845 11.7693 104.907 12.1846 105.021 13.3527C105.05 13.6404 104.919 14.6949 104.731 15.6959C104.401 17.4584 104.379 17.5212 104.029 17.69C103.794 17.8035 103.245 17.8669 102.455 17.8723C101.44 17.8789 101.172 17.8395 100.817 17.6309C100.244 17.2944 100.064 16.9172 100.138 16.2094C100.27 14.9569 100.839 14.518 102.455 14.4246L103.547 14.3613L103.585 13.9591C103.66 13.1833 103.28 13.0809 101.514 13.4007C101.062 13.4826 101.059 13.4808 101.061 13.0728ZM105.566 15.2612C105.835 13.2348 106.428 12.3722 107.733 12.1087C107.967 12.0617 108.306 12.0168 108.487 12.0091C109.055 11.985 110.634 12.2603 110.75 12.4038C110.899 12.5902 109.884 18.168 109.594 18.7505C109.291 19.3609 108.898 19.618 108.036 19.7697C107.458 19.8714 107.119 19.8589 106.403 19.7096C105.32 19.4838 105.109 19.3195 105.274 18.8326C105.364 18.5666 105.459 18.4938 105.683 18.5163C107.64 18.7136 107.94 18.7048 108.202 18.4424C108.656 17.9885 108.541 17.8698 107.642 17.8668C105.98 17.8613 105.329 17.0446 105.566 15.2612ZM111.047 15.6326C111.203 13.745 111.962 12.4878 113.133 12.174C113.892 11.9707 114.221 11.9618 114.822 12.1286C115.448 12.3023 115.931 12.8021 116.107 13.4576C116.225 13.8924 116.213 14.1736 116.045 15.0229C115.74 16.5575 115.391 17.1306 114.468 17.6099C113.794 17.9599 112.564 17.9721 111.98 17.6348C111.347 17.2687 110.977 16.4761 111.047 15.6326ZM125.491 15.3294C125.648 13.4652 126.356 12.4308 127.694 12.1079C128.838 11.8317 129.826 12.2054 130.282 13.0872C130.52 13.5488 130.553 13.7528 130.497 14.4056C130.461 14.8305 130.368 15.2536 130.291 15.346C130.185 15.4744 129.754 15.5141 128.468 15.5141C126.796 15.5141 126.784 15.5162 126.784 15.7904C126.784 16.2186 127.113 16.5887 127.571 16.6745C127.802 16.7179 128.403 16.6676 128.925 16.561C129.442 16.4558 129.887 16.3926 129.915 16.4206C129.943 16.4487 129.917 16.6793 129.857 16.9333C129.729 17.4764 129.443 17.648 128.347 17.8411C127.285 18.0283 126.434 17.8241 125.942 17.264C125.471 16.7275 125.399 16.4166 125.491 15.3294ZM131.444 13.3554C131.717 12.8323 132.292 12.356 132.866 12.1769C133.569 11.9577 133.897 11.9586 134.649 12.1819C135.238 12.3568 135.278 12.3933 135.276 12.7583C135.273 13.4232 135.167 13.4893 134.355 13.3303C133.53 13.1687 133.09 13.2802 132.799 13.724C132.552 14.1015 132.203 15.8191 132.298 16.1951C132.407 16.6301 132.888 16.7756 133.69 16.6158C134.256 16.5031 134.449 16.4636 134.515 16.5376C134.55 16.5769 134.549 16.6483 134.548 16.7579C134.544 17.4018 134.415 17.5716 133.786 17.7584C132.982 17.997 132.536 17.9854 131.929 17.7099C131.252 17.4022 130.892 16.7979 130.892 15.9667C130.892 15.2395 131.186 13.8496 131.444 13.3554ZM146.496 14.6067C146.834 13.1567 147.342 12.5177 148.441 12.1572C149.058 11.9546 150.1 12.034 150.589 12.3206C151.234 12.6999 151.443 13.2403 151.377 14.3613C151.238 16.7085 150.303 17.8504 148.504 17.8712C146.711 17.8918 145.999 16.7339 146.496 14.6067ZM138.875 17.7269C138.812 17.6241 139.718 12.4157 139.832 12.2323C139.916 12.0961 141.062 12.0745 141.143 12.2075C141.206 12.3102 140.301 17.5229 140.189 17.7032C140.104 17.8408 138.958 17.8615 138.875 17.7269ZM142.369 17.5221C142.197 17.2598 141.717 13.6038 141.711 12.5109L141.709 12.1165H142.374C142.639 12.1165 142.809 12.0978 142.924 12.1692C143.158 12.3143 143.161 12.8319 143.25 14.6364C143.303 15.7221 143.396 16.623 143.456 16.6386C143.516 16.6541 143.98 15.6567 144.487 14.422L145.41 12.1772L146.108 12.1408C146.646 12.1127 146.805 12.1437 146.805 12.2763C146.805 12.5026 144.777 16.9368 144.482 17.3558C144.024 18.0059 142.752 18.106 142.369 17.5221ZM109.193 13.8825C109.249 13.6191 109.268 13.3598 109.235 13.3061C109.154 13.175 108.106 13.196 107.758 13.3358C107.395 13.4812 107.183 14.0103 106.995 15.2395C106.854 16.1611 106.859 16.2568 107.064 16.4828C107.237 16.6739 107.438 16.7275 107.98 16.7275H108.675L108.883 15.5444C108.997 14.8937 109.137 14.1458 109.193 13.8825ZM114.716 14.4805C114.78 13.9871 114.752 13.8222 114.57 13.6113C114.167 13.1434 113.524 13.1525 113.073 13.6323C112.784 13.9394 112.471 15.0445 112.467 15.7639C112.464 16.4158 112.707 16.666 113.328 16.6497C114.153 16.628 114.512 16.0677 114.716 14.4805ZM129.089 14.0812C129.089 13.8937 129.021 13.651 128.938 13.5418C128.752 13.299 128.283 13.1984 127.877 13.3144C127.601 13.3935 127.027 14.0718 127.027 14.3186C127.027 14.3755 127.491 14.422 128.058 14.422H129.089V14.0812ZM149.902 15.0134C150.121 13.954 150.024 13.5157 149.53 13.3277C149.357 13.2622 149.206 13.213 149.194 13.2182C149.182 13.2234 149.09 13.2547 148.99 13.2877C148.179 13.5547 147.855 14.198 147.844 15.5591C147.837 16.3801 147.851 16.4242 148.174 16.5806C148.44 16.7097 148.6 16.7145 148.937 16.6036C149.492 16.4204 149.672 16.1226 149.902 15.0134ZM103.188 16.2715C103.23 16.0218 103.291 15.722 103.323 15.6051C103.374 15.4198 103.287 15.3927 102.648 15.3927C102.004 15.3927 101.89 15.429 101.721 15.6882C101.614 15.8508 101.545 16.1374 101.566 16.3253C101.598 16.6046 101.685 16.6866 102.044 16.7752C102.758 16.9518 103.099 16.8019 103.188 16.2715ZM76.7168 14.6967L75.5034 20.7031H78.0516L78.8403 16.9415H81.9952C83.0873 16.901 85.4171 16.2984 85.9995 14.2113C86.4242 13.2001 86.6669 11.2991 85.6355 10.3283C84.6041 9.3576 84.1187 9.17559 81.9346 9.23625L79.834 9.33472C78.7621 9.38496 77.834 10.0954 77.5056 11.1171H81.3279L81.5705 9.96431L84.0581 13.0585L80.5998 16.0314L80.7818 14.6967H76.7168Z" fill="black"/>
</g>
<defs>
<filter id="filter0_d_1604_13480" x="0.77002" y="3.88672" width="154.619" height="28" filterUnits="userSpaceOnUse" color-interpolation-filters="sRGB">
<feFlood flood-opacity="0" result="BackgroundImageFix"/>
<feColorMatrix in="SourceAlpha" type="matrix" values="0 0 0 0 0 0 0 0 0 0 0 0 0 0 0 0 0 0 127 0" result="hardAlpha"/>
<feOffset dy="4"/>
<feGaussianBlur stdDeviation="2"/>
<feComposite in2="hardAlpha" operator="out"/>
<feColorMatrix type="matrix" values="0 0 0 0 0 0 0 0 0 0 0 0 0 0 0 0 0 0 0.25 0"/>
<feBlend mode="normal" in2="BackgroundImageFix" result="effect1_dropShadow_1604_13480"/>
<feBlend mode="normal" in="SourceGraphic" in2="effect1_dropShadow_1604_13480" result="shape"/>
</filter>
</defs>
</svg>
