<svg width="79" height="20" viewBox="0 0 79 20" fill="none" xmlns="http://www.w3.org/2000/svg">
<path fill-rule="evenodd" clip-rule="evenodd" d="M1.80795 19.727C-0.778468 16.9039 -0.52013 1.56275 2.13715 0.1826C4.37446 -0.979375 13.8793 3.62181 17.9149 7.82062C18.9927 8.94195 19.3678 9.53956 19.3678 10.1355C19.3678 12.6924 7.12092 20 2.83584 20C2.18435 20 2.0175 19.9557 1.80795 19.727ZM50.5899 7.80521C50.6921 7.17581 51.0034 6.60877 51.3726 6.37992C51.5986 6.23965 51.9697 6.17243 52.5283 6.17024C53.4399 6.1666 53.5707 6.27314 53.376 6.86068C53.2812 7.14693 53.1825 7.2076 52.7275 7.25905C52.2415 7.31402 52.1779 7.35976 52.0527 7.74442L51.9146 8.16912L52.4774 8.22979C53.0183 8.28803 53.039 8.30466 53.0057 8.65448C52.947 9.27139 52.8949 9.32187 52.3183 9.32187C52.1318 9.32187 52.0095 9.29493 51.916 9.33501C51.6867 9.43322 51.6298 9.93386 51.2221 12.2195C50.9914 13.5129 50.7184 14.6998 50.6154 14.857C50.2791 15.3702 49.8385 15.5669 49.0205 15.5691C48.1344 15.5714 47.9731 15.464 48.1072 14.9614C48.1902 14.6506 48.2747 14.5907 48.7132 14.5311C48.9935 14.4931 49.2725 14.4112 49.3333 14.3491C49.4885 14.1906 50.3263 9.41021 50.2174 9.30524C50.1682 9.25792 49.9643 9.20137 49.764 9.17953C49.4364 9.14386 49.4 9.09738 49.4 8.71516C49.4 8.29616 49.4077 8.28997 49.9615 8.25405C50.4966 8.21947 50.5261 8.19836 50.5899 7.80521ZM67.1581 7.01673C67.1813 6.78326 67.2514 6.49665 67.314 6.37968C67.3992 6.22048 67.5806 6.16697 68.0342 6.16697C68.7294 6.16697 68.8058 6.2638 68.6611 6.96091L68.5612 7.44106H67.8386H67.116L67.1581 7.01673ZM22.9022 6.59166C22.967 6.52493 23.3586 6.4344 23.7724 6.3906C25.4459 6.21332 26.873 6.49787 27.4244 7.1189C27.7196 7.45137 27.8166 8.43449 27.6225 9.12784C27.4326 9.80602 26.886 10.4698 26.2422 10.8039C25.8671 10.9987 25.4527 11.079 24.6224 11.118C24.0338 11.1456 23.7541 11.1224 23.5959 11.25C23.4137 11.3968 23.3925 11.7436 23.2462 12.5981C23.0239 13.8965 22.996 13.9329 22.2219 13.9329C21.7877 13.9329 21.5519 13.8824 21.5519 13.7896C21.5519 13.3631 22.8031 6.69396 22.9022 6.59166ZM45.34 6.84879C45.6992 6.54665 45.8415 6.48925 46.5485 6.36257C46.9013 6.29923 48.9322 6.40067 49.1747 6.49374C49.3697 6.56861 49.391 7.05713 49.2138 7.3884C49.1014 7.5982 48.9491 7.62307 47.7765 7.62307C46.2437 7.62307 46.1369 7.68629 45.9427 8.70982C45.8755 9.06462 45.8204 9.37489 45.8204 9.39904C45.8204 9.42331 46.4501 9.44321 47.2196 9.44321C48.7565 9.44321 48.7865 9.45862 48.6326 10.1713L48.541 10.596L47.0698 10.6299L45.5985 10.6639L45.4481 11.5052C45.2376 12.6831 45.2798 12.7195 46.8595 12.7195C47.5489 12.7195 48.1447 12.7731 48.1853 12.8387C48.2259 12.9044 48.2229 13.1506 48.1787 13.3859C48.0786 13.9198 47.8793 13.9817 46.2451 13.9866C44.8714 13.9909 44.3762 13.8143 44.063 13.2088C43.8024 12.7048 43.8302 12.2035 44.247 9.88465C44.6456 7.66749 44.7667 7.33125 45.34 6.84879ZM63.9695 7.8029C64.0616 7.31219 64.2009 7.17738 64.6892 7.10591C65.1506 7.03842 65.3551 7.0012 65.4319 7.08335C65.498 7.15393 65.4698 7.31262 65.4296 7.61591L65.3501 8.21547L65.869 8.25296C66.3673 8.289 66.3863 8.3049 66.3458 8.65448C66.2855 9.17553 66.1186 9.32187 65.5844 9.32187C65.3256 9.32187 65.1132 9.36288 65.1124 9.41287C65.1117 9.46287 64.977 10.2382 64.813 11.1358C64.6492 12.0335 64.5361 12.7889 64.5618 12.8145C64.5875 12.8402 64.8366 12.8918 65.1156 12.9293C65.6071 12.9951 65.6202 13.0086 65.5479 13.3702C65.5069 13.5754 65.4287 13.7879 65.3741 13.8425C65.1878 14.0289 64.4383 14.0778 63.9172 13.9374C63.4993 13.8249 63.3629 13.7164 63.2253 13.3871C63.0731 13.0228 63.0825 12.8165 63.3086 11.5438C63.4487 10.7555 63.571 9.91948 63.5802 9.68589C63.5955 9.29942 63.5643 9.25744 63.2331 9.22018C62.7171 9.16194 62.5737 9.00686 62.6767 8.61917C62.7536 8.32929 62.8306 8.28609 63.3279 8.25369C63.8637 8.21862 63.8957 8.19617 63.9695 7.8029ZM25.4982 9.73722C26.2276 9.39103 26.5505 8.18732 26.0145 7.812C25.8359 7.68678 25.4717 7.62307 24.9351 7.62307H24.1254L23.9305 8.68482C23.8233 9.26884 23.7357 9.78758 23.7359 9.83757C23.7363 10.0071 25.0922 9.92979 25.4982 9.73722ZM28.2276 9.18608C28.2304 8.58483 28.3689 8.44954 29.1552 8.28087C31.0112 7.88263 32.0738 8.29786 32.188 9.46602C32.2161 9.75373 32.0857 10.8082 31.8979 11.8091C31.5677 13.5716 31.5455 13.6345 31.1957 13.8033C30.9605 13.9167 30.4119 13.9802 29.6212 13.9855C28.6062 13.9922 28.3384 13.9528 27.9833 13.7442C27.4105 13.4077 27.2304 13.0305 27.3048 12.3227C27.4363 11.0702 28.0059 10.6313 29.6212 10.5378L30.7133 10.4746L30.7519 10.0724C30.8264 9.29663 30.4465 9.19421 28.6808 9.51395C28.2282 9.59586 28.2258 9.59404 28.2276 9.18608ZM32.7321 11.3745C33.0011 9.34808 33.5942 8.48545 34.8996 8.22202C35.1332 8.17494 35.4722 8.13004 35.653 8.1224C36.222 8.09825 37.8009 8.37358 37.9162 8.51712C38.0658 8.70351 37.0504 14.2813 36.7609 14.8638C36.4574 15.4742 36.0642 15.7313 35.2021 15.883C34.6244 15.9847 34.2858 15.9722 33.5697 15.8229C32.4867 15.5971 32.2752 15.4328 32.4406 14.9458C32.531 14.6799 32.625 14.6071 32.849 14.6296C34.8064 14.8269 35.1065 14.8181 35.3688 14.5557C35.8228 14.1018 35.7074 13.9831 34.8086 13.9801C33.1462 13.9746 32.4953 13.1579 32.7321 11.3745ZM38.2137 11.7459C38.37 9.85832 39.1281 8.60109 40.2993 8.2873C41.0584 8.08393 41.3879 8.07508 41.9885 8.24192C42.6141 8.41556 43.0974 8.91537 43.2739 9.57086C43.391 10.0056 43.3797 10.2869 43.2111 11.1362C42.9062 12.6708 42.557 13.2439 41.6341 13.7232C40.9605 14.0732 39.7302 14.0854 39.1466 13.7481C38.5132 13.382 38.1439 12.5894 38.2137 11.7459ZM52.6571 11.4427C52.8147 9.57851 53.5221 8.54406 54.8604 8.22117C56.0049 7.94499 56.9924 8.31873 57.448 9.20053C57.6866 9.66211 57.72 9.86609 57.6637 10.5189C57.6271 10.9437 57.5344 11.3669 57.4576 11.4593C57.3511 11.5877 56.9208 11.6274 55.6343 11.6274C53.9629 11.6274 53.9504 11.6294 53.9504 11.9037C53.9504 12.3319 54.2798 12.702 54.7371 12.7878C54.9685 12.8312 55.5695 12.7809 56.0918 12.6743C56.6081 12.5691 57.0534 12.5059 57.0815 12.5339C57.1095 12.562 57.0834 12.7926 57.0235 13.0466C56.8952 13.5897 56.6099 13.7613 55.5137 13.9544C54.4513 14.1416 53.6006 13.9374 53.1088 13.3773C52.6378 12.8408 52.5652 12.5299 52.6571 11.4427ZM58.6106 9.46869C58.8839 8.94559 59.4587 8.46932 60.0329 8.29021C60.7358 8.07095 61.0637 8.07192 61.8155 8.29519C62.4044 8.47004 62.4442 8.50657 62.4425 8.87157C62.4393 9.53652 62.333 9.60253 61.5213 9.44357C60.6966 9.28195 60.2565 9.39346 59.9657 9.83733C59.7184 10.2148 59.3696 11.9324 59.464 12.3083C59.5732 12.7434 60.055 12.8888 60.8568 12.729C61.4222 12.6164 61.6158 12.5769 61.6815 12.6509C61.7164 12.6902 61.7152 12.7616 61.7146 12.8711C61.7107 13.5151 61.5813 13.6849 60.9522 13.8717C60.1486 14.1103 59.7024 14.0986 59.0959 13.8232C58.4182 13.5155 58.0586 12.9112 58.0586 12.08C58.0586 11.3528 58.3524 9.96292 58.6106 9.46869ZM73.6621 10.72C74.0009 9.26993 74.5083 8.63094 75.6074 8.27044C76.2249 8.06792 77.2669 8.14727 77.7551 8.43388C78.401 8.8132 78.6097 9.35354 78.5434 10.4746C78.4046 12.8217 77.4699 13.9637 75.6706 13.9845C73.8774 14.0051 73.1651 12.8472 73.6621 10.72ZM66.0416 13.8402C65.9781 13.7374 66.8847 8.52902 66.9982 8.34555C67.0823 8.2094 68.229 8.1878 68.3096 8.32079C68.372 8.42345 67.467 13.6362 67.3555 13.8165C67.2706 13.9541 66.1248 13.9747 66.0416 13.8402ZM69.5356 13.6353C69.3636 13.3731 68.8837 9.71708 68.8777 8.62415L68.8755 8.22979H69.5406C69.805 8.22979 69.9759 8.21112 70.0908 8.28248C70.3246 8.42762 70.3271 8.94518 70.4162 10.7497C70.4698 11.8354 70.5626 12.7363 70.6226 12.7519C70.6824 12.7674 71.1465 11.77 71.654 10.5353L72.5764 8.29046L73.2741 8.25405C73.8123 8.22602 73.9719 8.25697 73.9719 8.38959C73.9719 8.6159 71.9436 13.0501 71.6485 13.4691C71.1906 14.1191 69.918 14.2192 69.5356 13.6353ZM36.3596 9.9958C36.4159 9.73237 36.4348 9.47306 36.4017 9.41943C36.3206 9.28826 35.2726 9.30925 34.9246 9.44903C34.5619 9.59452 34.3499 10.1236 34.1617 11.3528C34.0206 12.2744 34.0259 12.3701 34.2304 12.5961C34.4033 12.7872 34.604 12.8408 35.1468 12.8408H35.8417L36.0496 11.6577C36.1639 11.0069 36.3034 10.2591 36.3596 9.9958ZM41.8827 10.5938C41.9463 10.1004 41.9188 9.9355 41.737 9.7246C41.3339 9.25671 40.6903 9.26581 40.2395 9.7456C39.951 10.0527 39.637 11.1578 39.6339 11.8772C39.631 12.5291 39.8739 12.7793 40.4941 12.763C41.3195 12.7413 41.6783 12.1809 41.8827 10.5938ZM56.2559 10.1944C56.2559 10.007 56.1877 9.76428 56.1042 9.65507C55.9188 9.41227 55.4493 9.31167 55.0438 9.42768C54.7678 9.50679 54.193 10.1851 54.193 10.4319C54.193 10.4888 54.6572 10.5353 55.2244 10.5353H56.2559V10.1944ZM77.0683 11.1267C77.2874 10.0673 77.1907 9.62898 76.6964 9.44102C76.5239 9.3755 76.3729 9.32624 76.3605 9.33145C76.3481 9.33667 76.2561 9.36798 76.156 9.40098C75.3457 9.66794 75.0211 10.3113 75.0102 11.6724C75.0035 12.4934 75.0178 12.5374 75.3404 12.6939C75.6066 12.823 75.767 12.8278 76.1031 12.7169C76.6581 12.5337 76.8388 12.2359 77.0683 11.1267ZM30.3546 12.3848C30.3967 12.1351 30.4574 11.8352 30.4894 11.7184C30.5401 11.5331 30.454 11.506 29.8141 11.506C29.1709 11.506 29.057 11.5423 28.8871 11.8015C28.7807 11.9641 28.7111 12.2507 28.7326 12.4385C28.7646 12.7179 28.8518 12.7999 29.2102 12.8885C29.9246 13.065 30.265 12.9152 30.3546 12.3848ZM3.88335 10.8099L2.66992 16.8164H5.21811L6.00684 13.0548H9.16174C10.2538 13.0143 12.5836 12.4117 13.166 10.3246C13.5907 9.31339 13.8334 7.41236 12.802 6.44162C11.7706 5.47088 11.2852 5.28887 9.10107 5.34954L7.00055 5.448C5.92859 5.49825 5.00046 6.20869 4.67207 7.23034H8.49436L8.73704 6.07759L11.2246 9.17182L7.7663 12.1447L7.94832 10.8099H3.88335Z" fill="black"/>
</svg>
