<svg width="56" height="57" viewBox="0 0 56 57" fill="none" xmlns="http://www.w3.org/2000/svg">
<ellipse cx="28" cy="28.7146" rx="28" ry="28.2" fill="black" fill-opacity="0.05"/>
<path d="M33.3659 34.6557C32.6348 35.3844 31.7713 35.9668 30.8219 36.3717C29.1125 37.0934 27.2054 37.1987 25.4269 36.6697C23.6484 36.1407 22.109 35.0103 21.0719 33.4717L17.7559 35.7097C18.6207 36.986 19.721 38.0856 20.9979 38.9497C22.2972 39.8283 23.757 40.442 25.2939 40.7557C27.6719 41.2398 30.1406 40.9959 32.3779 40.0557C33.8017 39.4514 35.0964 38.5797 36.1919 37.4877C36.7359 36.9457 37.2319 36.3457 37.6599 35.7097L34.3439 33.4717C34.0552 33.8957 33.7278 34.2921 33.3659 34.6557Z" fill="#158A2F"/>
<path d="M28 9C16.972 9 8 17.972 8 29C8 40.028 16.972 49 28 49C39.028 49 48 40.028 48 29C48 17.972 39.028 9 28 9ZM28 13C33.906 13 39.062 16.226 41.836 21H14.164C16.938 16.226 22.094 13 28 13ZM28 45C19.178 45 12 37.822 12 29C12 27.618 12.196 26.282 12.528 25H14V27C14 28.0609 14.4214 29.0783 15.1716 29.8284C15.9217 30.5786 16.9391 31 18 31H22C23.0609 31 24.0783 30.5786 24.8284 29.8284C25.5786 29.0783 26 28.0609 26 27H30C30 28.0609 30.4214 29.0783 31.1716 29.8284C31.9217 30.5786 32.9391 31 34 31H38C39.0609 31 40.0783 30.5786 40.8284 29.8284C41.5786 29.0783 42 28.0609 42 27V25H43.472C43.804 26.282 44 27.618 44 29C44 37.822 36.822 45 28 45Z" fill="#158A2F"/>
</svg>
