<svg width="56" height="57" viewBox="0 0 56 57" fill="none" xmlns="http://www.w3.org/2000/svg">
<ellipse cx="28" cy="28.2" rx="28" ry="28.2" fill="black" fill-opacity="0.05"/>
<path d="M28 8C16.972 8 8 16.972 8 28C8 39.028 16.972 48 28 48C39.028 48 48 39.028 48 28C48 16.972 39.028 8 28 8ZM28 44C19.178 44 12 36.822 12 28C12 19.178 19.178 12 28 12C36.822 12 44 19.178 44 28C44 36.822 36.822 44 28 44Z" fill="#FBB919"/>
<path d="M21 28C22.6569 28 24 26.6569 24 25C24 23.3431 22.6569 22 21 22C19.3431 22 18 23.3431 18 25C18 26.6569 19.3431 28 21 28Z" fill="#FBB919"/>
<path d="M34.986 27.972C36.6351 27.972 37.972 26.6351 37.972 24.986C37.972 23.3369 36.6351 22 34.986 22C33.3369 22 32 23.3369 32 24.986C32 26.6351 33.3369 27.972 34.986 27.972Z" fill="#FBB919"/>
<path d="M20.248 37.9836L19.752 34.0156L35.752 32.0156L36.248 35.9836L20.248 37.9836Z" fill="#FBB919"/>
</svg>
