<svg width="56" height="57" viewBox="0 0 56 57" fill="none" xmlns="http://www.w3.org/2000/svg">
<ellipse cx="28" cy="28.2" rx="28" ry="28.2" fill="black" fill-opacity="0.05"/>
<path d="M28 8C16.972 8 8 16.972 8 28C8 39.028 16.972 48 28 48C39.028 48 48 39.028 48 28C48 16.972 39.028 8 28 8ZM28 44C19.178 44 12 36.822 12 28C12 19.178 19.178 12 28 12C36.822 12 44 19.178 44 28C44 36.822 36.822 44 28 44Z" fill="#ED1849"/>
<path d="M21 26C22.6569 26 24 24.6569 24 23C24 21.3431 22.6569 20 21 20C19.3431 20 18 21.3431 18 23C18 24.6569 19.3431 26 21 26Z" fill="#ED1849"/>
<path d="M34.986 25.972C36.6351 25.972 37.972 24.6351 37.972 22.986C37.972 21.3369 36.6351 20 34.986 20C33.3369 20 32 21.3369 32 22.986C32 24.6351 33.3369 25.972 34.986 25.972Z" fill="#ED1849"/>
<path d="M22.2943 36.3433C23.0254 35.6147 23.8888 35.0322 24.8383 34.6273C26.5477 33.9057 28.4547 33.8003 30.2332 34.3293C32.0117 34.8583 33.5512 35.9888 34.5883 37.5273L37.9043 35.2893C37.0394 34.0131 35.9391 32.9134 34.6623 32.0493C33.363 31.1707 31.9031 30.557 30.3663 30.2433C27.9883 29.7592 25.5196 30.0032 23.2823 30.9433C21.8585 31.5476 20.5637 32.4194 19.4683 33.5113C18.9243 34.0533 18.4283 34.6533 18.0003 35.2893L21.3163 37.5273C21.605 37.1033 21.9324 36.7069 22.2943 36.3433V36.3433Z" fill="#ED1849"/>
</svg>
