<svg width="28" height="28" viewBox="0 0 28 28" fill="none" xmlns="http://www.w3.org/2000/svg">
<path d="M14.1332 21.766C14.4887 21.766 14.7887 21.6438 15.0332 21.3993C15.2776 21.1549 15.3998 20.8549 15.3998 20.4993C15.3998 20.1438 15.2776 19.8438 15.0332 19.5993C14.7887 19.3549 14.4887 19.2327 14.1332 19.2327C13.7776 19.2327 13.4776 19.3549 13.2332 19.5993C12.9887 19.8438 12.8665 20.1438 12.8665 20.4993C12.8665 20.8549 12.9887 21.1549 13.2332 21.3993C13.4776 21.6438 13.7776 21.766 14.1332 21.766ZM12.9665 16.8993H14.9332C14.9332 16.3216 15.0054 15.7938 15.1498 15.316C15.2943 14.8382 15.7443 14.2882 16.4998 13.666C17.1887 13.0882 17.6776 12.5216 17.9665 11.966C18.2554 11.4105 18.3998 10.7993 18.3998 10.1327C18.3998 8.9549 18.0165 8.01046 17.2498 7.29935C16.4832 6.58824 15.4665 6.23268 14.1998 6.23268C13.1109 6.23268 12.1498 6.5049 11.3165 7.04935C10.4832 7.59379 9.87761 8.34379 9.49984 9.29935L11.2665 9.96602C11.5109 9.34379 11.8776 8.86046 12.3665 8.51602C12.8554 8.17157 13.4332 7.99935 14.0998 7.99935C14.8554 7.99935 15.4665 8.2049 15.9332 8.61602C16.3998 9.02713 16.6332 9.5549 16.6332 10.1993C16.6332 10.6882 16.4887 11.1493 16.1998 11.5827C15.9109 12.016 15.4887 12.466 14.9332 12.9327C14.2665 13.5105 13.7721 14.0827 13.4498 14.6493C13.1276 15.216 12.9665 15.966 12.9665 16.8993ZM13.9998 27.3327C12.1776 27.3327 10.4554 26.9827 8.83317 26.2827C7.21095 25.5827 5.79428 24.6271 4.58317 23.416C3.37206 22.2049 2.4165 20.7882 1.7165 19.166C1.0165 17.5438 0.666504 15.8216 0.666504 13.9993C0.666504 12.1549 1.0165 10.4216 1.7165 8.79935C2.4165 7.17713 3.37206 5.76602 4.58317 4.56602C5.79428 3.36602 7.21095 2.41602 8.83317 1.71602C10.4554 1.01602 12.1776 0.666016 13.9998 0.666016C15.8443 0.666016 17.5776 1.01602 19.1998 1.71602C20.8221 2.41602 22.2332 3.36602 23.4332 4.56602C24.6332 5.76602 25.5832 7.17713 26.2832 8.79935C26.9832 10.4216 27.3332 12.1549 27.3332 13.9993C27.3332 15.8216 26.9832 17.5438 26.2832 19.166C25.5832 20.7882 24.6332 22.2049 23.4332 23.416C22.2332 24.6271 20.8221 25.5827 19.1998 26.2827C17.5776 26.9827 15.8443 27.3327 13.9998 27.3327ZM13.9998 25.3327C17.1554 25.3327 19.8332 24.2271 22.0332 22.016C24.2332 19.8049 25.3332 17.1327 25.3332 13.9993C25.3332 10.8438 24.2332 8.16602 22.0332 5.96602C19.8332 3.76602 17.1554 2.66602 13.9998 2.66602C10.8665 2.66602 8.19428 3.76602 5.98317 5.96602C3.77206 8.16602 2.6665 10.8438 2.6665 13.9993C2.6665 17.1327 3.77206 19.8049 5.98317 22.016C8.19428 24.2271 10.8665 25.3327 13.9998 25.3327Z" fill="#158A2F"/>
</svg>
