<svg width="192" height="54" viewBox="0 0 192 54" fill="none" xmlns="http://www.w3.org/2000/svg">
<path d="M0 10C0 4.47715 4.47715 0 10 0H182C187.523 0 192 4.47715 192 10V44C192 49.5228 187.523 54 182 54H10C4.47715 54 0 49.5228 0 44V10Z" fill="#212A33"/>
<path d="M58.8389 31.7409L59.3421 33.6147L59.1023 33.7361C58.5399 34.0055 57.9922 34.1861 57.1486 34.1861C55.3043 34.1861 54.1617 33.0493 54.1617 31.2199L54.1587 25.7138H52.2642V23.8222H54.1587V21.1077L56.4322 20.4979V23.8222H58.8329V25.7138H56.4322L56.4351 30.9298C56.4351 31.5959 56.8792 32.0547 57.566 32.0961C57.9478 32.1198 58.3267 32.0073 58.6612 31.8356L58.8389 31.7409ZM114.799 23.8193V34.0736H117.073V23.8193H114.799ZM129.284 28.9464C129.284 31.9333 127.04 34.1861 124.062 34.1861C121.072 34.1861 118.819 31.9333 118.819 28.9464C118.819 25.9595 121.072 23.7068 124.062 23.7068C127.04 23.7068 129.284 25.9595 129.284 28.9464ZM127.019 28.9464C127.019 27.1436 125.776 25.8352 124.062 25.8352C122.336 25.8352 121.084 27.1436 121.084 28.9464C121.084 30.7492 122.336 32.0577 124.062 32.0577C125.776 32.0577 127.019 30.7492 127.019 28.9464ZM99.5423 28.677C99.5423 28.677 99.7495 31.8712 96.2564 31.8712C92.7633 31.8712 92.9735 28.6593 92.9735 28.6593V20.4298H90.5727V28.5823C90.5727 31.9925 92.8047 34.1861 96.2564 34.1861C99.708 34.1861 101.94 31.9925 101.94 28.6001V20.4298H99.5393V28.677H99.5423ZM115.936 19C114.983 19 114.21 19.7726 114.21 20.7258C114.21 21.161 114.373 21.5606 114.64 21.8626H117.233C117.499 21.5577 117.662 21.161 117.662 20.7258C117.662 19.7726 116.889 19 115.936 19ZM76.3458 23.7275C75.6619 23.8163 74.9456 24.0472 74.3062 24.5593V23.8193H72.0327V34.0736H74.3062V27.8393C74.3062 27.6291 74.3417 27.4219 74.4216 27.2265C74.617 26.7588 74.9929 26.2674 75.5435 26.0306C75.9136 25.8707 76.2658 25.8174 76.5678 25.8174C76.8964 25.8174 77.3789 25.8707 77.7164 26.0454V23.8548C77.7134 23.8548 77.0296 23.6387 76.3458 23.7275ZM30.2784 20.4328L27.6793 30.1364L24.5592 20.4328H22.114L18.9939 30.1364L16.3919 20.4298H14L17.6589 34.0736H20.0507L23.3396 23.9555L26.6255 34.0736H29.0173L32.6732 20.4328H30.2784ZM37.6287 34.1861C34.6388 34.1772 32.4009 31.9392 32.395 28.9494C32.395 28.2893 32.5075 27.6262 32.7384 27.0075C33.0906 26.072 33.7152 25.2461 34.5293 24.663C35.4174 24.0295 36.5068 23.7068 37.5932 23.7068C39.0318 23.7068 40.1952 24.2071 41.033 25.104C41.6073 25.7227 41.9951 26.5072 42.22 27.3153C42.4213 28.0406 42.4421 28.7688 42.4421 29.5178H34.6388L34.6832 29.7398C34.9704 31.1163 36.1486 32.0399 37.6287 32.0428C38.9075 32.0399 39.7453 31.439 40.1863 30.9949L41.7434 32.4454C40.7991 33.5259 39.2598 34.1831 37.6287 34.1861ZM40.1064 27.8719C40.0058 27.2117 39.689 26.6019 39.1621 26.2112C38.5908 25.7878 38.0342 25.7079 37.4304 25.7079C36.5926 25.7079 35.8318 26.1046 35.3049 26.7174C34.8845 27.2028 34.6951 27.8689 34.6951 27.8689H40.1064V27.8719ZM65.4728 34.1861C62.4829 34.1772 60.245 31.9392 60.2391 28.9494C60.2391 28.2893 60.3515 27.6262 60.5824 27.0075C60.9347 26.072 61.5593 25.2461 62.3734 24.663C63.2615 24.0295 64.3508 23.7068 65.4373 23.7068C66.8759 23.7068 68.0393 24.2071 68.8771 25.104C69.4514 25.7227 69.8391 26.5072 70.0641 27.3153C70.2654 28.0406 70.2861 28.7688 70.2861 29.5178H62.4829L62.5273 29.7398C62.8145 31.1163 63.9927 32.0399 65.4728 32.0428C66.7516 32.0399 67.5894 31.439 68.0304 30.9949L69.5875 32.4454C68.6402 33.5259 67.1039 34.1831 65.4728 34.1861ZM67.9475 27.8719C67.8469 27.2117 67.5301 26.6019 67.0032 26.2112C66.4319 25.7878 65.8754 25.7079 65.2715 25.7079C64.4337 25.7079 63.6729 26.1046 63.146 26.7174C62.7257 27.2028 62.5362 27.8689 62.5362 27.8689H67.9475V27.8719ZM48.034 27.7979C47.0452 27.564 46.3466 27.3124 46.3348 26.7292C46.32 25.9477 47.0068 25.7109 48.1968 25.7109C48.6882 25.7109 50.2482 25.7079 50.2482 25.7079V23.8163L48.2175 23.8193C46.4325 23.8193 44.1886 24.2041 44.1886 26.8683C44.2093 28.0643 45.0234 28.9908 46.539 29.4674C46.8883 29.577 47.2436 29.6599 47.587 29.7427C48.6408 29.9944 49.5496 30.2489 49.5614 31.0334C49.5733 31.7439 48.626 32.1701 47.8327 32.1849C46.4354 32.1849 45.5118 31.3798 45.2217 31.0867L43.7386 32.4691C43.7386 32.4691 45.0352 34.1801 47.9215 34.1801C49.8131 34.1801 51.7461 32.9546 51.7135 30.9535C51.678 28.9731 49.8338 28.2271 48.034 27.7979ZM108.796 23.7068C107.991 23.7068 107.049 23.843 106.226 24.4439V23.8193H103.953V34.0736H106.226V27.8807C106.226 26.966 106.961 25.8707 108.402 25.8707C109.666 25.8707 110.519 26.7292 110.519 28.008V34.0736H112.792V27.86C112.792 25.3201 111.164 23.7068 108.796 23.7068ZM84.5693 23.7068C83.7641 23.7068 82.8228 23.843 81.9998 24.4439V23.8193H79.7264V34.0736H81.9998V27.8807C81.9998 26.966 82.734 25.8707 84.1756 25.8707C85.4396 25.8707 86.2922 26.7292 86.2922 28.008V34.0736H88.5657V27.86C88.5657 25.3201 86.9375 23.7068 84.5693 23.7068ZM135.873 23.7068C135.068 23.7068 134.127 23.843 133.304 24.4439V23.8193H131.03V34.0736H133.304V27.8807C133.304 26.966 134.038 25.8707 135.48 25.8707C136.744 25.8707 137.596 26.7292 137.596 28.008V34.0736H139.87V27.86C139.87 25.3201 138.245 23.7068 135.873 23.7068Z" fill="#FFDD00"/>
<path d="M165.887 20.4326L162.175 34.0734H159.481L156.669 25.0299L153.857 34.0734H151.181L147.433 20.4326H150.352L152.646 29.0647L155.328 20.4326H158.028L160.757 29.1298L163.001 20.4326H165.887ZM174.463 20.4326V28.8338V28.8545C174.463 28.8664 174.522 30.009 173.785 30.7935C173.305 31.3026 172.586 31.5602 171.645 31.5602C170.703 31.5602 169.984 31.3026 169.504 30.7935C168.767 30.009 168.827 28.8664 168.827 28.8545V20.4326H167.616L165.887 26.7853V28.7598C165.887 30.4412 166.432 31.8651 167.462 32.8805C168.492 33.8929 169.937 34.4287 171.645 34.4287C173.35 34.4287 174.797 33.8929 175.828 32.8805C176.858 31.8681 177.402 30.4412 177.402 28.7598V20.4326H174.463Z" fill="#FFDD00"/>
<path d="M145.894 34.0734L142.146 20.4326H143.102L146.853 34.0734H145.894ZM149.497 34.0734L145.749 20.4326H144.793L148.537 34.0734H149.497Z" fill="white"/>
</svg>
